<?xml version="1.0" encoding="utf-8"?>
<!-- Generator: Adobe Illustrator 23.0.5, SVG Export Plug-In . SVG Version: 6.00 Build 0)  -->
<svg version="1.1" xmlns="http://www.w3.org/2000/svg" xmlns:xlink="http://www.w3.org/1999/xlink" x="0px" y="0px"
	 viewBox="0 0 285.1 224.7" style="enable-background:new 0 0 285.1 224.7;" xml:space="preserve">
<style type="text/css">
	.st0{opacity:0.2;fill:#B5D0FF;}
	.st1{fill:#6F3FBA;}
	.st2{fill:#5730A0;}
	.st3{fill:#774CC9;}
	.st4{fill:#854DCE;}
	.st5{fill:#B8B8F4;}
	.st6{opacity:0.3;}
	.st7{fill:#EEFAFF;}
	.st8{fill:#7272DD;}
	.st9{opacity:0.2;fill:url(#SVGID_1_);}
	.st10{opacity:0.2;fill:url(#SVGID_2_);}
	.st11{fill:#9494ED;}
	.st12{fill:#F98094;}
	.st13{fill:#FFFFFF;}
	.st14{fill:#D6D4FF;}
	.st15{fill:#7878C4;}
	.st16{fill:#0E7C74;}
	.st17{fill:#A29EE5;}
	.st18{fill:#8C8CDD;}
	.st19{fill:#BFB8F4;}
	.st20{fill:#383493;}
	.st21{fill:#5146AF;}
	.st22{fill:none;stroke:#5730A0;stroke-width:2;stroke-linecap:round;stroke-linejoin:round;stroke-miterlimit:10;}
	.st23{opacity:0.31;fill:#FFFFFF;}
	.st24{fill:#6C3DB7;}
	.st25{fill:#F7B59C;}
	.st26{fill:#01263A;}
	.st27{fill:#003051;}
	.st28{fill:#ED9780;}
	.st29{fill:#8D1612;}
	.st30{fill:#FF4C2F;}
	.st31{fill:#FAFFF7;}
	.st32{fill:#452E17;}
	.st33{fill:#F4F4F4;}
	.st34{fill:none;stroke:#FFFFFF;stroke-miterlimit:10;}
	.st35{fill:none;stroke:#FFFFFF;stroke-linecap:round;stroke-miterlimit:10;}
	.st36{fill:none;stroke:#ED9780;stroke-linecap:round;stroke-miterlimit:10;}
	.st37{fill:#9999EF;}
	.st38{fill:#4C4051;}
	.st39{fill:#0052A3;}
	.st40{fill:#594A5F;}
	.st41{fill:#0058C4;}
	.st42{fill:#2C1E56;}
	.st43{fill:#E5A18C;}
	.st44{fill:#D1DEFF;}
	.st45{fill:#EAA18B;}
	.st46{fill:none;stroke:#EAA18B;stroke-width:0.5;stroke-linecap:round;stroke-miterlimit:10;}
	.st47{fill:none;stroke:#C9806F;stroke-width:0.5;stroke-linecap:round;stroke-miterlimit:10;}
	.st48{fill:#9999F1;}
	.st49{fill:#C2E0F2;}
	.st50{fill:#1A1A47;}
	.st51{fill:#9CA2F2;}
	.st52{fill:#0B0B3A;}
	.st53{fill:#B0B2FF;}
	.st54{fill:#3D3D72;}
	.st55{fill:#94C1F7;}
	.st56{fill:#B5D0FF;}
	.st57{fill:#CFE3FF;}
	.st58{opacity:0.5;fill:#94C1F7;}
	.st59{fill:#E1EFFF;}
	.st60{fill:#CCE1FF;}
	.st61{fill:#7878FF;}
	.st62{fill:none;stroke:#9ACEE2;stroke-linecap:round;stroke-miterlimit:10;}
	.st63{fill:none;stroke:#9ACEE2;stroke-linecap:round;stroke-miterlimit:10;stroke-dasharray:11.8558,4.9399;}
	.st64{fill:none;stroke:#9ACEE2;stroke-linecap:round;stroke-miterlimit:10;stroke-dasharray:11.8353,4.9314;}
	.st65{fill:none;stroke:#9ACEE2;stroke-linecap:round;stroke-miterlimit:10;stroke-dasharray:12,5;}
	.st66{opacity:0.5;}
	.st67{fill:#389FE5;}
	.st68{fill:none;stroke:#FFFFFF;stroke-width:1.3801;stroke-linecap:round;stroke-linejoin:round;stroke-miterlimit:10;}
	.st69{fill:#81A8CC;}
	.st70{opacity:0.3;fill:#9999F1;}
	.st71{fill:none;stroke:#FFFFFF;stroke-width:1.0564;stroke-linecap:round;stroke-linejoin:round;stroke-miterlimit:10;}
	.st72{fill:none;stroke:#FFFFFF;stroke-width:1.6155;stroke-linecap:round;stroke-linejoin:round;stroke-miterlimit:10;}
	.st73{opacity:0.2;fill:#9999F1;}
</style>
<g id="BACKGROUND">
</g>
<g id="OBJECTS">
	<path class="st0" d="M12.4,225.2c0,0-30.4-43.5,3.8-90.8C43.8,96.3,35,81.5,33.7,55.8C32.7,34,52.8,1.9,82.8,0.2
		c49.3-2.6,61.5,16.8,87.7,15.4s38-12.6,68.4-8.2c56.4,8.2,48.8,73.9,40.6,123c-8.2,49.1,16.5,65.8-1.3,94.7"/>
	<g>
		<g>
			<polygon class="st1" points="-523.5,559.8 -626.2,559.8 -615.1,515.9 -612.5,506 -607.6,486.7 -542.1,486.7 -537.2,506 
				-534.6,515.9 			"/>
			<polygon class="st2" points="-534.6,515.9 -615.1,515.9 -612.5,506 -537.2,506 			"/>
			<path class="st3" d="M-484.1,571.9h-181.6c-4.4,0-7.9-3.5-7.9-7.9l0,0c0-4.4,3.5-7.9,7.9-7.9h181.6c4.4,0,7.9,3.5,7.9,7.9l0,0
				C-476.2,568.4-479.7,571.9-484.1,571.9z"/>
		</g>
		<path class="st4" d="M-407.2,300.3v193.1c0,4.6-3.7,8.3-8.3,8.3h-318.6c-4.6,0-8.3-3.7-8.3-8.3V300.3c0-4.6,3.7-8.3,8.3-8.3h318.6
			C-411,292-407.2,295.7-407.2,300.3z"/>
		<rect x="-736.3" y="298.1" class="st5" width="322.3" height="170.2"/>
		<g class="st6">
			<rect x="-454.9" y="298.1" class="st7" width="9" height="144.8"/>
			<rect x="-432" y="298.1" class="st7" width="9" height="144.8"/>
			<rect x="-729.7" y="298.1" class="st7" width="9" height="144.8"/>
			<rect x="-706.8" y="298.1" class="st7" width="9" height="144.8"/>
			<rect x="-683.9" y="298.1" class="st7" width="9" height="144.8"/>
			<rect x="-661" y="298.1" class="st7" width="9" height="144.8"/>
			<rect x="-638.1" y="298.1" class="st7" width="9" height="144.8"/>
			<rect x="-615.2" y="298.1" class="st7" width="9" height="144.8"/>
			<rect x="-592.3" y="298.1" class="st7" width="9" height="144.8"/>
			<rect x="-569.4" y="298.1" class="st7" width="9" height="144.8"/>
			<rect x="-546.5" y="298.1" class="st7" width="9" height="144.8"/>
			<rect x="-523.6" y="298.1" class="st7" width="9" height="144.8"/>
			<rect x="-500.7" y="298.1" class="st7" width="9" height="144.8"/>
			<rect x="-477.8" y="298.1" class="st7" width="9" height="144.8"/>
		</g>
		<rect x="-736.3" y="442.9" class="st8" width="322.3" height="25.5"/>
		<path class="st2" d="M-574.9,492.2L-574.9,492.2c-4.3,0-7.7-3.5-7.7-7.7l0,0c0-4.3,3.5-7.7,7.7-7.7l0,0c4.3,0,7.7,3.5,7.7,7.7l0,0
			C-567.1,488.7-570.6,492.2-574.9,492.2z"/>
		<linearGradient id="SVGID_1_" gradientUnits="userSpaceOnUse" x1="-532.7114" y1="289.7274" x2="-532.7114" y2="500.6417">
			<stop  offset="0" style="stop-color:#FFFFFF"/>
			<stop  offset="1" style="stop-color:#FFFFFF;stop-opacity:0"/>
		</linearGradient>
		<polygon class="st9" points="-551.2,501.6 -573.8,501.6 -514.3,292 -491.6,292 		"/>
		<linearGradient id="SVGID_2_" gradientUnits="userSpaceOnUse" x1="-488.5204" y1="289.7274" x2="-488.5204" y2="500.6417">
			<stop  offset="0" style="stop-color:#FFFFFF"/>
			<stop  offset="1" style="stop-color:#FFFFFF;stop-opacity:0"/>
		</linearGradient>
		<polygon class="st10" points="-494.3,501.6 -542.3,501.6 -482.8,292 -434.7,292 		"/>
		<g>
			<path class="st11" d="M-426.4,458.1h-264.5c-1.4,0-2.5-1.1-2.5-2.5c0-1.4,1.1-2.5,2.5-2.5h264.5c1.4,0,2.5,1.1,2.5,2.5
				C-423.9,457-425,458.1-426.4,458.1z"/>
			<path class="st12" d="M-558.6,453.1v5h-132.2c-1.4,0-2.5-1.1-2.5-2.5c0-1.4,1.1-2.5,2.5-2.5H-558.6z"/>
			<circle class="st13" cx="-558.5" cy="455.6" r="4.5"/>
		</g>
		<g>
			
				<ellipse transform="matrix(0.2298 -0.9732 0.9732 0.2298 -993.9485 -344.731)" class="st13" cx="-714.8" cy="455.6" rx="10" ry="10"/>
			<path class="st4" d="M-716.3,451.1l5.5,4.2c0.2,0.1,0.2,0.4,0,0.5l-5.5,4.2c-0.2,0.2-0.5,0-0.5-0.3v-8.5
				C-716.8,451.1-716.5,450.9-716.3,451.1z"/>
		</g>
	</g>
	<g>
		<g>
			<path class="st14" d="M-2180.5,318.5c0,0-48.4-65.4-33.2-79.3C-2198.5,225.2-2176.3,274.4-2180.5,318.5z"/>
			<g>
				<g>
					<path class="st15" d="M-2209.2,246.9c6.8,10.4,12.5,21.4,17.1,33c4.1,10.4,7.3,21.1,9.7,32.1c0.6,2.8,1.1,5.6,1.7,8.4
						c0.5,2.7,0.9,5.4,1.4,8c0.1,0.3,0.6,0.3,0.6-0.1c-0.4-4.9-1.3-9.8-2.3-14.6c-1.1-5.3-2.4-10.6-3.8-15.8
						c-3.2-11.3-7.4-22.4-12.8-32.9c-3.2-6.4-6.9-12.5-11-18.4C-2208.8,246.2-2209.4,246.5-2209.2,246.9L-2209.2,246.9z"/>
				</g>
			</g>
			<g>
				<g>
					<path class="st15" d="M-2210.4,255.9c2,1.4,4.1,2.8,6.1,4.3c1,0.8,2.1,1.6,3.1,2.4c0.9,0.7,1.8,1.7,2.9,2.3
						c0.2,0.1,0.5-0.1,0.4-0.4c-0.6-1-1.7-1.8-2.6-2.5c-1-0.9-2-1.7-3.1-2.5c-2-1.5-4.2-3-6.5-4.1
						C-2210.5,255.2-2210.8,255.6-2210.4,255.9L-2210.4,255.9z"/>
				</g>
			</g>
			<g>
				<g>
					<path class="st15" d="M-2208.9,259.8c2,1.4,4.1,2.8,6.1,4.3c1,0.8,2.1,1.6,3.1,2.4c0.9,0.7,1.8,1.7,2.9,2.3
						c0.2,0.1,0.5-0.1,0.4-0.4c-0.6-1-1.7-1.8-2.6-2.5c-1-0.9-2-1.7-3.1-2.5c-2-1.5-4.2-3-6.5-4.1
						C-2209,259.1-2209.3,259.6-2208.9,259.8L-2208.9,259.8z"/>
				</g>
			</g>
		</g>
		<g>
			<path class="st14" d="M-2170.6,311c0,0,46.7-66.6,31.1-80.2C-2155.1,217.3-2176,267-2170.6,311z"/>
			<g>
				<g>
					<path class="st15" d="M-2144.5,238.4c-7.4,11.1-13.2,23.3-17.6,35.9c-4,11.2-6.8,22.9-8.7,34.6c-0.5,2.9-0.9,5.8-1.2,8.8
						c-0.3,2.8-0.7,5.6-0.8,8.5c0,0.3,0.5,0.4,0.6,0.1c0.8-5.1,1.3-10.2,2.1-15.2c0.9-5.5,2-11.1,3.3-16.5
						c2.9-12.2,6.9-24.1,12.1-35.5c3.2-7,6.8-13.7,10.8-20.2C-2143.6,238.3-2144.2,238-2144.5,238.4L-2144.5,238.4z"/>
				</g>
			</g>
			<g>
				<g>
					<path class="st16" d="M-2169.3,279.1c-0.1,3,0.1,5.9,0.2,8.9c0.1,1.3,0.2,2.7,0.3,4c0.1,1.2,0.1,2.6,0.5,3.7
						c0.1,0.2,0.5,0.3,0.5,0c0.2-1.2,0-2.4-0.1-3.6c-0.1-1.4-0.2-2.7-0.3-4.1c-0.2-3-0.3-5.9-0.6-8.9
						C-2168.7,278.7-2169.3,278.7-2169.3,279.1L-2169.3,279.1z"/>
				</g>
			</g>
		</g>
		<g>
			<path class="st17" d="M-2174.3,287.4c0,0-47-66.4-31.5-80C-2190.3,193.7-2169.2,243.4-2174.3,287.4z"/>
			<g>
				<g>
					<path class="st15" d="M-2201.4,215.2c4.5,7.2,8.6,14.8,12.1,22.6c3.3,7.4,6.1,15,8.4,22.7c2.1,7.1,3.8,14.3,5.2,21.6
						c1.2,6.5,2.2,13,2.8,19.6c0.6,5.5,0.9,11,1.2,16.5c0,0.6,0.1,1.2,0.1,1.8c0,0.4,0.6,0.4,0.6,0c0.1-5.4-0.2-10.8-0.7-16.2
						c-0.6-6.5-1.4-13-2.5-19.4c-1.3-7.3-2.9-14.5-4.9-21.6c-2.2-7.7-4.8-15.2-8-22.5c-3.4-7.9-7.3-15.5-11.9-22.7
						c-0.6-0.9-1.2-1.9-1.8-2.8C-2201,214.5-2201.6,214.8-2201.4,215.2L-2201.4,215.2z"/>
				</g>
			</g>
		</g>
		<g>
			<path class="st18" d="M-2177.1,306.8c0,0,28.9-39.7,19.7-48.1C-2166.7,250.3-2179.8,280.2-2177.1,306.8z"/>
			<g>
				<g>
					<path class="st15" d="M-2160.6,263.1c-5.8,8.3-10,17.6-13.1,27.2c-2.6,8.1-4.2,16.5-5.2,25c-0.4,3.7-0.8,7.4-0.6,11.1
						c0,0.4,0.6,0.4,0.6,0c0.4-3.2,0.5-6.5,0.9-9.7c0.4-3.9,1-7.7,1.7-11.6c1.7-9,4.4-17.9,8.1-26.4c2.3-5.3,5.1-10.4,8.2-15.3
						C-2159.8,263.1-2160.4,262.7-2160.6,263.1L-2160.6,263.1z"/>
				</g>
			</g>
		</g>
		<g>
			<polygon class="st19" points="-2157.7,304.9 -2158,306.4 -2158.4,309.6 -2163,340.6 -2190.6,340.6 -2195.2,309.6 -2195.7,306.4 
				-2195.9,304.9 			"/>
			<polygon class="st15" points="-2158,306.4 -2158.4,309.6 -2195.2,309.6 -2195.7,306.4 			"/>
			<path class="st17" d="M-2157.2,307.8h-39.3c-1.3,0-2.3-1-2.3-2.3l0,0c0-1.3,1-2.3,2.3-2.3h39.3c1.3,0,2.3,1,2.3,2.3l0,0
				C-2154.9,306.8-2155.9,307.8-2157.2,307.8z"/>
		</g>
	</g>
	<g>
		<path class="st20" d="M-2140.5,192.4v20.5c0,0.3-0.1,0.6-0.3,0.8c-0.3,0.4-0.7,0.6-1.2,0.6h-30.1c-0.4,0-0.7-0.2-1-0.4v-19
			c0-0.7,0.6-1.3,1.3-1.3h21.1c0.7,0,1.3-0.6,1.3-1.3s0.6-1.3,1.3-1.3h6.4C-2141.1,191.1-2140.5,191.7-2140.5,192.4z"/>
		<path class="st21" d="M-2140.8,213.7c-0.3,0.4-0.7,0.6-1.2,0.6h-30.1c-0.4,0-0.7-0.2-1-0.4c-0.1-0.1-0.2-0.3-0.3-0.4
			c0,0,0-0.1,0-0.1l-6.7-15.3c-0.3-0.8,0.2-1.7,1.1-1.7h29.8c0.5,0,0.9,0.3,1.1,0.7l6.3,14.3L-2140.8,213.7z"/>
	</g>
	<line class="st22" x1="-2206.6" y1="341" x2="-1602.7" y2="341"/>
	<g>
		<path class="st14" d="M-451.2-78.6h-146.6c-0.8,0-1.4-0.6-1.4-1.4v-109.1c0-2.5,2-4.5,4.5-4.5h138.4c3.7,0,6.6,3,6.6,6.6v106.9
			C-449.8-79.3-450.4-78.6-451.2-78.6z"/>
		<path class="st13" d="M-458.3-84.2h-132.2c-1.6,0-2.8-1.3-2.8-2.8v-19.1c0-1.6,1.3-2.8,2.8-2.8h132.2c1.6,0,2.8,1.3,2.8,2.8V-87
			C-455.5-85.5-456.8-84.2-458.3-84.2z"/>
		<path class="st13" d="M-457.3-113.1h-134.3c-1,0-1.8-0.8-1.8-1.8v-6.4c0-1,0.8-1.8,1.8-1.8h134.3c1,0,1.8,0.8,1.8,1.8v6.4
			C-455.5-113.9-456.3-113.1-457.3-113.1z"/>
		<g>
			<path class="st23" d="M-513.1-174.2h-78.7c-1.2,0-2.2-1-2.2-2.2v0c0-1.2,1-2.2,2.2-2.2h78.7c1.2,0,2.2,1,2.2,2.2l0,0
				C-510.9-175.2-511.9-174.2-513.1-174.2z"/>
			<path class="st23" d="M-513.1-165h-78.7c-1.2,0-2.2-1-2.2-2.2l0,0c0-1.2,1-2.2,2.2-2.2h78.7c1.2,0,2.2,1,2.2,2.2l0,0
				C-510.9-166-511.9-165-513.1-165z"/>
			<path class="st23" d="M-513.1-155.9h-78.7c-1.2,0-2.2-1-2.2-2.2l0,0c0-1.2,1-2.2,2.2-2.2h78.7c1.2,0,2.2,1,2.2,2.2v0
				C-510.9-156.9-511.9-155.9-513.1-155.9z"/>
			<path class="st23" d="M-513.1-146.7h-78.7c-1.2,0-2.2-1-2.2-2.2l0,0c0-1.2,1-2.2,2.2-2.2h78.7c1.2,0,2.2,1,2.2,2.2l0,0
				C-510.9-147.7-511.9-146.7-513.1-146.7z"/>
			<path class="st23" d="M-513.1-137.6h-78.7c-1.2,0-2.2-1-2.2-2.2l0,0c0-1.2,1-2.2,2.2-2.2h78.7c1.2,0,2.2,1,2.2,2.2l0,0
				C-510.9-138.6-511.9-137.6-513.1-137.6z"/>
			<path class="st23" d="M-531.6-128.4h-60.2c-1.2,0-2.2-1-2.2-2.2l0,0c0-1.2,1-2.2,2.2-2.2h60.2c1.2,0,2.2,1,2.2,2.2l0,0
				C-529.4-129.4-530.4-128.4-531.6-128.4z"/>
		</g>
		<path class="st4" d="M-451.3-197.4h-146.5c-0.8,0-1.5,0.7-1.5,1.5v11.2h149.5v-11.2C-449.8-196.7-450.5-197.4-451.3-197.4z"/>
		<g>
			<path class="st13" d="M-472-191c0,0.8-0.6,1.4-1.4,1.4c-0.8,0-1.4-0.6-1.4-1.4c0-0.8,0.6-1.4,1.4-1.4
				C-472.6-192.4-472-191.8-472-191z"/>
			<path class="st13" d="M-465.1-191c0,0.8-0.6,1.4-1.4,1.4c-0.8,0-1.4-0.6-1.4-1.4c0-0.8,0.6-1.4,1.4-1.4
				C-465.7-192.4-465.1-191.8-465.1-191z"/>
			<path class="st13" d="M-458.2-191c0,0.8-0.6,1.4-1.4,1.4c-0.8,0-1.4-0.6-1.4-1.4c0-0.8,0.6-1.4,1.4-1.4
				C-458.9-192.4-458.2-191.8-458.2-191z"/>
		</g>
		<g>
			<path class="st13" d="M-455.5-177.2v47.4c0,0.8-0.6,1.4-1.4,1.4h-46.8c-0.8,0-1.4-0.6-1.4-1.4v-47.4c0-0.8,0.6-1.4,1.4-1.4h46.8
				C-456.2-178.6-455.5-178-455.5-177.2z"/>
			<path class="st24" d="M-455.5-138.7v8.9c0,0.8-0.6,1.4-1.4,1.4h-23.2l1-10.3l10.9-12.1L-455.5-138.7z"/>
			<path class="st4" d="M-462-128.4h-41.8c-0.8,0-1.4-0.6-1.4-1.4v-8.9l16.4-17.2L-462-128.4z"/>
			<path class="st4" d="M-462.1-165c0,3.2-2.6,5.8-5.8,5.8c-3.2,0-5.8-2.6-5.8-5.8c0-3.2,2.6-5.8,5.8-5.8
				C-464.7-170.8-462.1-168.2-462.1-165z"/>
		</g>
	</g>
	<g>
		<path class="st25" d="M-663.7-121.5l-15.6-26.8l-24.9,2l-6.8,6.2c-0.9-1-0.7-0.8-1.4-1.5c-5.2-5.9-17.5-15.6-27.2-25.7
			c-11-11.4-19.3-22.8-19.3-22.8l-2,1c0-1,0-1.7,0-1.7l-8.7-11.7l-10.6-0.7l-7.9,9.6l0.4,5.1c0,0,0.1,7.9,6.3,8.7
			c1.8,0.2,6.5,1.1,8,2.1c4.2,2.9,7.6,6.9,9.9,11.4c6.9,13.6,17.1,33,26.6,49.7c0,0,0.4,0.7,1.1,1.8c3.3,5.3,13.6,20.5,21.9,21.2
			C-703.7-92.9-663.7-121.5-663.7-121.5z"/>
		<g id="XMLID_5_">
			<path id="XMLID_219_" class="st26" d="M-628-263c0,0,3.3-5,7.9-6.2c4.6-1.2-5,10.7-5,10.7s-2.6,1.1-2.9,1
				C-628.3-257.7-628-263-628-263z"/>
			<path id="XMLID_218_" class="st27" d="M-542.5-298.6c0,0,32.7,11.8-6.2,45.5l-5.9-1.8L-542.5-298.6z"/>
			<path class="st25" d="M-625.3-196.9c15.6,19,36.5,22.1,36.5,22.1c36.3-0.7,42.5-20.7,42.5-20.7l-20.3-4.5c0,0-0.6-26.4,10.6-42.8
				c8.4,1.6,12.4-11.7,10.1-15.2c-2.5-3.9-5.3-3.4-5.3-3.4c-2.4,2.6-4.6,8.7-5.6,11.7l-50.5,26.1c0,0,0.6,1.3,1.4,3.6
				c0.8,2.5,1.7,6.2,2.3,10.9c0.3,2.9,0.5,6.2,0.4,9.9L-625.3-196.9z M-560.5-243.9c1.1-1.8,2.2-3.7,3.5-5.5c-0.4,1.3-0.8,2.4-1,3.4
				C-559.4-244.8-560.5-243.9-560.5-243.9z"/>
			<path id="XMLID_502_" class="st28" d="M-606.1-219.9c0.8,2.5,1.7,6.2,2.3,10.9c42.1-9.2,43.3-32,43.3-32l-21.6,8.8L-606.1-219.9z
				"/>
			<path id="XMLID_48_" class="st26" d="M-612.7-312.8c0,0-9.2,17-2.9,28.3l14.6-18.9"/>
			<path id="XMLID_628_" class="st25" d="M-628.8-226.3c9.7,15.3,45.2,15,61.9-7c16.7-21.9,19.4-47.1,11.1-62.6
				c-4.6-8.6-15.7-13.6-26.6-14.4c-2.9-0.2-5.8,0-8.7,0.6c-6.6,1.5-12.7,5.2-17.2,10.5c-0.4,0.5-0.8,1-1.2,1.5l-2.6,3.4
				c-0.3,0.4-0.6,0.9-1,1.3c-1.6,2.4-2.9,5-3.7,7.8c-0.5,1.4-0.8,2.9-1,4.4c-0.6,4-2.2,9.3-6,14C-631-257.7-638.5-241.5-628.8-226.3
				z"/>
			<path id="XMLID_501_" class="st28" d="M-608.3-299.1c2.4,1,6.3,2.3,11.3,2.9c8.5,1,25.6,2.7,31.3,8.9c0,0,2.4,2.2,3.8,7.1
				c1.4,4.9-3.2-16.7-3.2-16.7l-26-12.8C-597.8-308.1-603.8-304.4-608.3-299.1z"/>
			<path id="XMLID_463_" class="st28" d="M-558.7-273.3c0,0-0.1,22.2-11.8,28.1c-11.7,5.9-19.8-1.4-25.1-5.2
				c-3.1-2.2-4.2,3.4-4.2,3.4s6.1,10.2,9.2,10.2c3.1,0,15.4-0.2,16.3-0.8c0.9-0.6,8-4,8-4s4.8-8.3,5.2-9.2
				c0.3-0.9,5.9-10.3,5.6-11.5c-0.3-1.2-0.2-9-0.2-9L-558.7-273.3z"/>
			<path id="XMLID_47_" class="st27" d="M-612.4-341.9c-2.8,0.5-5.3,6.2-6.4,8.8c-1.6,3.7-4.7,12.4,2.3,22.2
				c8,11.1,25.3,11.1,38.1,14.4c11.4,2.9,17.2,10.3,16.4,18.7c-0.2,2.3,0.6,4.6,2.1,6.3l0.2,0.3c1.4,1.6,2,3.8,1.6,5.9
				c-1.3,6.6-5.5,20.3-15.9,23.3c-8.9,2.6-12.6-0.7-14.1-1.8c-5.2-4-8.1-8.3-18.3-13.3c-5.3-2.6-10.9-2.2-18.3-3.3
				c-1.4-0.2-3.3-0.4-3.5-2.6c0,0-16.1,18.9-4.8,38.6c2.8,4.9,7.5,8.5,13.1,9.9c7.6,1.8,20.2,2.9,34.8-3.7
				c24-10.8,31.9-35.6,35.1-43.4c3.2-7.8,11.5-28.7,5.3-48c-3.8-11.9-15.9-22-35.7-22.9C-594-333.1-604.2-343.4-612.4-341.9z"/>
			<path id="XMLID_470_" class="st29" d="M-596.7-245.3c0,0-0.3,0.6-1,1.5c-2.2,2.8-7.8,8.2-17.5,3.4c-3-1.5-4.6-3.5-5.3-5.5
				c-1.5-4.2,0.7-8.5,0.7-8.5s3.6,2.4,8.5,4.7c4.2,2,9.4,3.9,14.1,4.3C-597.1-245.3-596.9-245.3-596.7-245.3z"/>
			<path id="XMLID_468_" class="st30" d="M-597-246.2l-0.3,0.9l-0.5,1.6c-2.2,2.8-7.8,8.2-17.5,3.4c-3-1.5-4.6-3.5-5.3-5.5
				c4-3.8,8-3.8,8-3.8h6.5L-597-246.2z"/>
			<path id="XMLID_45_" class="st31" d="M-619.4-254.3c0,0-2.7,3.4-2.7,4.3c0,1.5,17.9,9.9,18.8,10c1,0.1,2.6-3.4,2.6-3.4l-7.2-4.3"
				/>
			<path id="XMLID_44_" class="st27" d="M-618.5-290.5c-0.4,1-0.1,0.1-0.5,1.4c-0.4,1.4,0.5,2.6,1.8,3.1c3.3,1.2,13.5,5.2,13.5,5.2
				c1.1,0.6,1.1-0.5,0.7-1.2c-1.3-2.8-2.7-6.3-12.3-9.5C-616.5-292-617.9-291.8-618.5-290.5z"/>
			<path id="XMLID_1_" class="st27" d="M-570.8-271.3c-0.4,1,0,0.1-0.7,1.3c-0.7,1.2-2.2,1.4-3.5,0.8c-3.2-1.6-13.1-6.2-13.1-6.2
				c-1.2-0.3-0.4-1.1,0.4-1.4c2.9-1,6.4-2.4,15.4,2.4C-571.1-273.8-570.2-272.6-570.8-271.3z"/>
			<path id="XMLID_221_" class="st27" d="M-623.5-253.7c0,0,5.6,7.2,13.4,5c0,0,0.1,5.9,13.2,7.8l1.1-4.6c0,0-8.5-4.5-9-4.2
				c-0.6,0.3-8.6-2.1-10.1-2.4c-1.5-0.3-6.8-4.4-6.8-4.4L-623.5-253.7z"/>
			<path id="XMLID_618_" class="st28" d="M-550-256.8c0,0-4.8,6.8-4,9.8c0,0,0.2-1.7,4.6-1.7c0,0,2.8-4,1.4-6.9
				C-548.8-257.1-550-256.8-550-256.8z"/>
			<g>
				<g>
					<path class="st32" d="M-587.6-269.1c-1.5,2.4-2.1,5.1,0.3,7c0.8,0.6,2.1,0.4,2.8-0.3c1.2-1.2,1.4-1.8,2.1-3.1
						C-580.7-268.7-585.7-272.3-587.6-269.1L-587.6-269.1z"/>
				</g>
				<g>
					<path class="st13" d="M-587.2-267.7c-0.4,0.6-0.6,1.3,0.1,1.8c0.2,0.2,0.6,0.1,0.7-0.1c0.3-0.3,0.2-0.6,0.4-1
						C-585.5-267.8-586.7-268.5-587.2-267.7L-587.2-267.7z"/>
				</g>
			</g>
			<g>
				<g>
					<path class="st32" d="M-613.8-278c-1.2,1.9-1.8,4,0.1,5.6c0.6,0.5,1.7,0.3,2.2-0.2c1-0.9,1.1-1.6,1.7-2.7
						C-608.3-277.8-612.2-280.4-613.8-278L-613.8-278z"/>
				</g>
				<g>
					<path class="st13" d="M-613.5-276.8c-0.3,0.5-0.5,1,0,1.5c0.2,0.1,0.4,0.1,0.6,0c0.3-0.2,0.2-0.5,0.4-0.8
						C-612.1-276.9-613.1-277.5-613.5-276.8L-613.5-276.8z"/>
				</g>
			</g>
		</g>
		<path class="st25" d="M-758.5-189.7c0,0-12.5-26.9-21.3-33.3c0,0-3.1,0.5-2.7,4.2c0.4,3.7,5.7,8.3,5.9,11.8c0.2,3.5-2.1,3-5,2.4
			c-2.9-0.7-24.3-12.6-26.4-11.5c-2.2,1.1,0.1,3.3,1.6,4.5c1.5,1.2,12.9,8.4,12.9,8.4s-20.6-11.3-22.1-7.4
			c-1,2.5,18.2,12.4,18.2,12.4s-16.5-9.2-17.2-5.8c-0.6,2.9,13.3,9.5,13.3,9.5s-8.6-4.5-9.3-2.5c-0.8,2.5,11.1,9,14.6,11.3
			c3.5,2.3,11.9,5.9,15.3,5.8c3.4-0.1,5.8-0.4,7.7,1.5"/>
		<path class="st13" d="M-529.1-132l6.9,25.6h-125.7c0-6.6-0.4-14.5-0.9-22.3l-27,16.6c-8.8-17.5-28.1-34.2-28.4-34.2
			c18.8-18.4,41.8-39.3,54.3-48c6-4.2,34.8-5.8,38.6-6.2c3.3-0.3,6.1-2.3,7.7-5.1c0,0,4,9.3,10.5,12.7c1.8,0.7,1.9,11.3,4.2,11.2
			c0.7,0,5.5-11.1,6.2-11.2c0,0,7.7-1.3,16.3-14.2l1.5,2.1c1.4,1.9,3.4,3.3,5.7,3.8c4.4,1,12.2,3.1,19.8,6.2
			c10.8,4.4,22.7,25,22.7,25l2.7,38l-15.8-0.7L-529.1-132z"/>
		<polygon class="st33" points="-540.6,-138.5 -537.7,-106.4 -522.2,-106.4 -524.9,-127.4 		"/>
		<polyline class="st25" points="-494.4,-143.6 -480.4,-106.4 -522.2,-106.4 -529.1,-121.5 		"/>
		<path class="st13" d="M-555.5-200.3c0,0,32,4.6,41.6,14.2c4.8,4.7,8.7,13.8,14.7,27.5c9.8,22.3,14.4,34.5,14.4,34.5
			s-24.2,16.8-48.5,11.8l-11.9-34.3L-555.5-200.3z"/>
		
			<ellipse transform="matrix(0.3746 -0.9272 0.9272 0.3746 -126.6205 -739.3213)" class="st34" cx="-611.4" cy="-275.8" rx="10.1" ry="9.1"/>
		
			<ellipse transform="matrix(0.3746 -0.9272 0.9272 0.3746 -120.4911 -710.2053)" class="st34" cx="-586.7" cy="-265.8" rx="10.1" ry="9.1"/>
		<path class="st34" d="M-602.7-273.1c0,0,5.5-0.6,7.5,3.9"/>
		<line class="st35" x1="-577.9" y1="-263.3" x2="-549.9" y2="-261.6"/>
		<path class="st33" d="M-641-106.4h-6.9c0-6.6-0.4-14.5-0.9-22.3l5.6-3.1C-643.2-131.9-640.8-113.5-641-106.4z"/>
		<path class="st36" d="M-599.9-270.4c0,0-7.3,5.6-8.1,8.6c-0.5,1.7,2.5,3.7,2.5,3.7"/>
	</g>
	<g>
		<path class="st25" d="M-2069.5,243.8c0,0,3,10.4-8.2,10.4c-1.6,0-2.9-0.4-4.1-1c-4.1-2-5.1-9-5.1-9c3.5-0.9,2.3-6,2.3-6l12.5,0.3
			c0,0-0.6,3.3,0.3,4.2C-2070.3,244.5-2069.5,243.8-2069.5,243.8z"/>
		<path class="st21" d="M-2086.3,243.6c0,0-0.7,9.3,8,9.3c7.9,0,8-6.1,7.4-9.5c9,0.8,18.9,4.4,23.9,8.6c6,7.7,10.1,19.5,10.1,19.5
			s-2.8,1.3-5.6,2.2c-2.9,0.9-5.1,2.2-5.1,2.2l-3.5,47.7h-55.2l-0.9-47.7c0,0-3.6-0.9-6.6-1.8c-4.3-1.4-5.9-2.8-5.9-2.8
			s3.3-9.8,8.3-17.8C-2106.3,248.7-2096.8,244.8-2086.3,243.6z"/>
		<path class="st25" d="M-2118.7,271.7c0,0-5.3,18.6-4.8,27.5c0.5,8.9,21.5,21.3,21.5,21.3l2.7-9.4c0,0-8.7-3.7-10-10.5
			s6-23.8,6-23.8s-3.2-0.9-7.7-2.2C-2115.2,273.5-2118.7,271.7-2118.7,271.7z"/>
		<path class="st25" d="M-2037.5,271.7c0,0,5.3,18.6,4.8,27.5c-0.5,8.9-21.5,21.3-21.5,21.3l-2.7-9.4c0,0,8.7-3.7,10-10.5
			c1.3-6.8-6.3-24.2-6.3-24.2s3.5-0.8,7.9-2C-2041,273.2-2037.5,271.7-2037.5,271.7z"/>
		<path class="st37" d="M-2044.3,324.3h-68.2l-1.5-42.7c0-1.1,0.8-2,2-2h67.4c1.1,0,2,0.9,2,2L-2044.3,324.3z"/>
		<g>
			<path class="st38" d="M-2049.8,334c0,0,1.5-1.7,4.8-1.8c2.2-0.1,8.4,1.3,11.3,1.3c3,0,6-0.7,7.7,1.8c2.9,4.3,1.6,8.1-3.2,8.7
				c-2.6,0.3-4.8-1.4-9-1c-4.1,0.4-10.4-1-12.2-3.9"/>
			<path class="st25" d="M-2055.5,332c0,0,3.3,0.9,5.4,1.1c2.2,0.1,7-0.4,9.2,1c2.4,1.5,1.5,5.6,0,6.5c-2.4,1.5-4.4,0.7-8.9-0.7
				c-4.5-1.4-9.7-0.9-9.7-0.9"/>
			<path class="st39" d="M-2048.9,341.8c0,0-50.6-0.9-64-2.7c-5.7-0.8-11-2-15.4-3.8c-6.1-3.6-8.3-12.2-4.2-20.1
				c1.9-3.7,7.8-3,8.7-3c0.2,0,0.3,0,0.3,0c16.4,0.6,31.3,4.8,48.2,11.6c15.7,6.3,27.7,8.9,27.7,8.9
				C-2046.7,339.1-2048.9,341.8-2048.9,341.8z"/>
			<path class="st38" d="M-2036.7,336.2c0,0-1.3-0.7-1.8,0.1c-0.4,0.8-0.7,4.2-0.5,4.7c0.4,0.9,2.4,0.6,2.4,0.6l1.6-4.3
				L-2036.7,336.2z"/>
		</g>
		<g>
			<path class="st40" d="M-2106.1,334.1c0,0-1.5-1.8-5-1.9c-2.3-0.1-8.7,1.4-11.8,1.3c-3.1-0.1-6.1-0.7-8.1,1.3
				c-3.7,3.9-0.3,8.8,4.8,9.4c2.7,0.3,3.5-1.2,7.9-0.8c4.2,0.4,10.8-1,12.7-4"/>
			<path class="st25" d="M-2100.1,332.1c0,0-3.4,1-5.7,1.1s-7.3-0.5-9.6,1c-2.5,1.5-1.6,5.8,0,6.8c2.5,1.6,4.6,0.8,9.2-0.6
				c4.6-1.4,10.1-0.9,10.1-0.9"/>
			<path class="st41" d="M-2027.3,335.1L-2027.3,335.1c-4.6,2-10.3,3.3-16.3,4.1c-13.5,1.7-64.1,2.5-64.1,2.5s-2.2-2.7-1.3-9.2
				c0,0,12-2.6,27.8-8.8c16.5-6.5,31.2-10.6,47.1-11.4c3.1,0.3,6.7,1.7,9.3,7C-2021.3,326.5-2024,333.9-2027.3,335.1z"/>
			<path class="st40" d="M-2116.8,334.6c0,0,1.7-0.9,2.3,0.1c0.6,1,0.9,5.4,0.6,6.1c-0.5,1.2-3,0.8-3,0.8l-2-5.5L-2116.8,334.6z"/>
		</g>
		<path class="st42" d="M-2063.8,214.1c0,0,4.7-0.5-0.6,11.7c-2,4.6-2.7,4.3-2.7,4.5c0,0.2-1.8-1.5-1.8-2.3c0-0.8,0.1-6.8,0.2-7.1
			C-2068.7,220.6-2063.8,214.1-2063.8,214.1z"/>
		<path class="st42" d="M-2091.4,216.9c0,0-3.6-1-2.2,6.2c1,4.9,3.6,6.9,3.6,7.1c0,0.2,1.8-1.5,1.8-2.3c0-0.8-0.1-6.8-0.2-7.1
			C-2088.4,220.6-2091.4,216.9-2091.4,216.9z"/>
		<path class="st43" d="M-2090.4,225.9c0,0-1.5-1.5-2,0.5c-0.4,2,1.2,7.1,3.2,5.1"/>
		<path class="st43" d="M-2066.7,225.9c0,0,1.5-1.5,2,0.5c0.4,2-1.2,7.1-3.2,5.1"/>
		<path class="st25" d="M-2078.1,241.7c0,0,0,0-0.1,0c-1.4,0.1-14.1,0.2-12.5-22.9h24.2C-2066.5,218.8-2063.6,240.3-2078.1,241.7z"
			/>
		<path class="st42" d="M-2069.8,205.9c4.6,1.3,7.5,7.1,5.2,11.7c-2.2,4.6-9.5,7.2-17.6,5.5c-4.8-1-6.3-2.9-9.2-2.8
			c-2.2,0.1-4.2-1.2-5-3.3c-1-2.8-1.7-6.6,1.3-8.8C-2087.1,210.4-2076.6,203.9-2069.8,205.9z"/>
		<path class="st44" d="M-2074.5,300.5c0,2.4-2,4.4-4.4,4.4c-2.4,0-4.4-2-4.4-4.4c0-2.4,2-4.4,4.4-4.4
			C-2076.5,296.1-2074.5,298.1-2074.5,300.5z"/>
		<path class="st45" d="M-2084.5,239.8c0,0,0.7,0.5,1.8,0.9c1.1,0.4,2.7,0.8,4.2,0.7c0.8,0,1.6-0.2,2.3-0.3c0.7-0.2,1.4-0.4,2-0.6
			c1.1-0.4,1.8-0.8,1.8-0.8s-0.6,0.6-1.7,1.1c-0.5,0.3-1.2,0.6-2,0.8c-0.7,0.2-1.6,0.4-2.4,0.4c-0.8,0-1.7,0-2.4-0.2
			c-0.8-0.2-1.4-0.5-2-0.8C-2083.9,240.4-2084.5,239.8-2084.5,239.8z"/>
		<g>
			<g>
				<path class="st32" d="M-2083.6,228.6c0.1,0.8,0.2,1.8-0.7,1.9c-0.4,0.1-0.8-0.3-0.9-0.5c-0.2-0.5-0.1-0.7-0.1-1.2
					C-2085.4,227.7-2083.7,227.5-2083.6,228.6L-2083.6,228.6z"/>
			</g>
			<g>
				<path class="st13" d="M-2084,229.3c0,0.2,0,0.4-0.2,0.5c-0.1,0-0.2,0-0.2-0.1c-0.1-0.1,0-0.2,0-0.3
					C-2084.5,229.1-2084.1,229-2084,229.3L-2084,229.3z"/>
			</g>
		</g>
		<g>
			<g>
				<path class="st32" d="M-2072.5,228.6c0.1,0.8,0.2,1.8-0.7,1.9c-0.4,0.1-0.8-0.3-0.9-0.5c-0.2-0.5-0.1-0.7-0.1-1.2
					C-2074.3,227.7-2072.6,227.5-2072.5,228.6L-2072.5,228.6z"/>
			</g>
			<g>
				<path class="st13" d="M-2072.9,229.3c0,0.2,0,0.4-0.2,0.5c-0.1,0-0.2,0-0.2-0.1c-0.1-0.1,0-0.2,0-0.3
					C-2073.4,229.1-2073,229-2072.9,229.3L-2072.9,229.3z"/>
			</g>
		</g>
		<path id="XMLID_4_" class="st27" d="M-2071.2,225.5c0.1,0.2,0,0,0.1,0.3c0,0.3-0.2,0.5-0.6,0.5c-0.9,0-3.7,0.1-3.7,0.1
			c-0.3,0-0.3-0.2-0.1-0.3c0.5-0.4,1-1,3.6-1C-2071.6,225.2-2071.3,225.3-2071.2,225.5z"/>
		<path id="XMLID_6_" class="st27" d="M-2086.7,225.5c-0.1,0.2,0,0-0.1,0.3c0,0.3,0.2,0.5,0.6,0.5c0.9,0,3.7,0.1,3.7,0.1
			c0.3,0,0.3-0.2,0.1-0.3c-0.5-0.4-1-1-3.6-1C-2086.2,225.2-2086.6,225.3-2086.7,225.5z"/>
		<path class="st46" d="M-2078.9,230.1c0,0-1.1,2.3-0.7,2.8c0.3,0.5,1.6,0.5,1.6,0.5"/>
		<path class="st47" d="M-2081.7,236.8c0,0,3.3,2,6.3-0.2"/>
	</g>
	<g>
		<g id="XMLID_609_">
			<g>
				<path class="st13" d="M60.9,222.2v-90.1c0-0.2-0.2-0.4-0.4-0.4h-2.2c-0.2,0-0.4,0.2-0.4,0.4v90.1c-0.6,0.1-1,0.6-1,1.2
					c0,0.7,0.6,1.3,1.3,1.3h2.3c0.7,0,1.3-0.6,1.3-1.3C61.9,222.8,61.5,222.3,60.9,222.2z"/>
				<path class="st13" d="M239.6,222.1L239.6,222.1l-0.1-90.4h-2.9v90.4h-0.1c-0.5,0-0.9,0.4-0.9,0.9v0.7c0,0.5,0.4,0.9,0.9,0.9h3.1
					c0.5,0,0.9-0.4,0.9-0.9V223C240.5,222.5,240.1,222.1,239.6,222.1z"/>
			</g>
			<path id="XMLID_610_" class="st48" d="M262.3,132.6H32.5c-1.5,0-2.7-1.2-2.7-2.7l0,0c0-1.5,1.2-2.7,2.7-2.7h229.8
				c1.5,0,2.7,1.2,2.7,2.7l0,0C265,131.4,263.8,132.6,262.3,132.6z"/>
		</g>
		<path id="XMLID_401_" class="st21" d="M155,124.2H88.7L75.6,82.9c-0.7-2.1,0.9-4.2,3.1-4.2h59.6c1.4,0,2.6,0.9,3.1,2.2L155,124.2z
			"/>
		<path id="XMLID_2_" class="st13" d="M153.7,124.2H90.9L77.7,82.3c-0.2-0.8,0.3-1.6,1.1-1.6H139c0.6,0,1.1,0.4,1.3,1L153.7,124.2z"
			/>
		<path id="XMLID_550_" class="st49" d="M114.1,87.2H85.2c-0.4,0-0.8-0.3-0.8-0.8l0,0c0-0.4,0.3-0.8,0.8-0.8h28.9
			c0.4,0,0.8,0.3,0.8,0.8l0,0C114.9,86.9,114.5,87.2,114.1,87.2z"/>
		<path id="XMLID_549_" class="st49" d="M118.6,90.8H86.3c-0.4,0-0.8-0.3-0.8-0.8l0,0c0-0.4,0.3-0.8,0.8-0.8h32.3
			c0.4,0,0.8,0.3,0.8,0.8l0,0C119.4,90.5,119,90.8,118.6,90.8z"/>
		<path id="XMLID_547_" class="st49" d="M115.6,94.4H87.5c-0.4,0-0.8-0.3-0.8-0.8l0,0c0-0.4,0.3-0.8,0.8-0.8h28.1
			c0.4,0,0.8,0.3,0.8,0.8l0,0C116.4,94.1,116,94.4,115.6,94.4z"/>
		<path id="XMLID_546_" class="st49" d="M110.9,98H88.7c-0.4,0-0.8-0.3-0.8-0.8l0,0c0-0.4,0.3-0.8,0.8-0.8h22.3
			c0.4,0,0.8,0.3,0.8,0.8l0,0C111.7,97.7,111.4,98,110.9,98z"/>
		<path id="XMLID_545_" class="st49" d="M122.1,101.6H89.8c-0.4,0-0.8-0.3-0.8-0.8l0,0c0-0.4,0.3-0.8,0.8-0.8h32.3
			c0.4,0,0.8,0.3,0.8,0.8l0,0C122.9,101.3,122.5,101.6,122.1,101.6z"/>
		<path id="XMLID_544_" class="st49" d="M119.1,105.3H91c-0.4,0-0.8-0.3-0.8-0.8l0,0c0-0.4,0.3-0.8,0.8-0.8h28.1
			c0.4,0,0.8,0.3,0.8,0.8l0,0C119.9,104.9,119.5,105.3,119.1,105.3z"/>
		<path id="XMLID_542_" class="st49" d="M125.5,112.5H93.3c-0.4,0-0.8-0.3-0.8-0.8l0,0c0-0.4,0.3-0.8,0.8-0.8h32.3
			c0.4,0,0.8,0.3,0.8,0.8l0,0C126.3,112.1,126,112.5,125.5,112.5z"/>
		<path id="XMLID_539_" class="st49" d="M126.7,116.1H94.5c-0.4,0-0.8-0.3-0.8-0.8l0,0c0-0.4,0.3-0.8,0.8-0.8h32.3
			c0.4,0,0.8,0.3,0.8,0.8l0,0C127.5,115.7,127.2,116.1,126.7,116.1z"/>
		<path id="XMLID_405_" class="st49" d="M143.9,116.1h-10.4c-1,0-1.8-0.6-2.1-1.6L122.6,87c-0.5-1.4,0.6-2.9,2.1-2.9h10.4
			c1,0,1.8,0.6,2.1,1.6l8.7,27.5C146.5,114.6,145.4,116.1,143.9,116.1z"/>
		<path id="XMLID_403_" class="st21" d="M160.6,127.2H88.5c-1.2,0-2.1-1-2.1-2.1l0,0c0-1.2,1-2.1,2.1-2.1h72.1c1.2,0,2.1,1,2.1,2.1
			l0,0C162.7,126.2,161.8,127.2,160.6,127.2z"/>
		<g id="XMLID_404_">
			<path id="XMLID_419_" class="st50" d="M167.7,72.1c-0.5,0-1.1-0.3-1.4-0.8l-2.1-3.7c-0.2-0.4-0.3-0.8-0.1-1.2
				c0.1-0.4,0.4-0.8,0.8-1l5.8-3.1c0.8-0.4,1.7-0.1,2.1,0.6l2,3.6c0.2,0.4,0.2,0.8,0.1,1.2c-0.1,0.4-0.4,0.7-0.8,0.9l-5.7,3.1
				C168.3,72,168,72.1,167.7,72.1z M171.5,62.9c-0.1,0-0.3,0-0.4,0.1l-5.8,3.1c-0.2,0.1-0.4,0.3-0.4,0.5c-0.1,0.2,0,0.5,0.1,0.7v0
				l2.1,3.7c0.2,0.4,0.7,0.5,1.1,0.3l5.7-3.1c0.2-0.1,0.3-0.3,0.4-0.5c0.1-0.2,0-0.4-0.1-0.6l-2-3.6
				C172.1,63.1,171.8,62.9,171.5,62.9z"/>
		</g>
		<path id="XMLID_538_" class="st25" d="M156.8,104.1c-0.5,0.6-0.8,1-0.8,1s-3.5-2.6-4.5-2.9c-1-0.2-3.1,0.4-4.2,0.6
			c-1.9,0.4-1.1-1.2-1.1-1.2s-1.3,0.4-2.4,0.9c-1.3,0.5-2.6,1.6-3,1.7c-0.7,0.2-1.5-0.2-0.8-1.2c1-1.5,5.6-5.7,6.7-6.2
			c1.5-0.7,3.4-1.7,5-1.1c1.6,0.6,6.8,4.5,6.8,4.5C158.6,101.5,157.6,103.1,156.8,104.1z"/>
		<path id="XMLID_406_" class="st51" d="M155.4,105.1c0,0,17.2,15,30,16.5c12.8,1.5,34.5-22.8,34.5-22.8s-1.4-13-9.4-11.4
			c-8,1.5-18.7,20.8-23.4,21.7c-4.6,0.9-28.8-9.3-28.8-9.3s-0.7,0.5-1.5,1.8C156,103,155.4,105.1,155.4,105.1z"/>
		<path id="XMLID_407_" class="st25" d="M193.6,46.5c-4.1-4.7-10.1-5.2-14.8-4.7c-6.1,0.7-11.5,4.8-13.2,10.7
			c-0.8,2.6-0.9,5.5,0.3,8.8c3.8,10.5,7.9,16.3,11,19.2c1.4,1.3,4.3-0.5,7.2-1.5c0.4-0.1,0.8,0,1,0.4l1.7,3.1l12-2.4
			c0,0-1.8-3.8-2.5-6.9C197.6,71.2,201,55.1,193.6,46.5z"/>
		<path id="XMLID_408_" class="st52" d="M171.8,61.5c1.3-0.1,2.6,0.6,3.1,1.8c0.9,2.1,2.3,5.1,3.3,6c0.2,0.2,0.7,0.3,1.2,0
			c0.5-0.2,0.6-0.7,0.5-0.9c-0.1-0.9-0.8-2.9-1.2-4.2c-0.6-1.7,0.1-3.5,2.1-3.9c0.4-0.1,1.3,0,1.7,0.1c3.2,1,1,6,0.9,8.6
			c0,1.8,2.2,6.1,3.1,6.5c3.2,1.3,8,0.1,10.6-3.1c2.6-3.2,3.1-13.8,1.7-20.1c-1.4-6.3-6.5-9.9-8.2-10.3c-0.8-0.2-1.5-0.2-2-0.2
			c-0.5,0.1-1-0.1-1.4-0.5c-1.7-1.5-6.7-4.8-14.7-1.4c-10,4.3-11.7,13.5-11.5,17.7c0.1,2.7,2.2,2.5,3.7,2c0.8-0.3,1.7,0,2.3,0.5
			C168.1,60.9,169.6,61.7,171.8,61.5z"/>
		<path id="XMLID_409_" class="st51" d="M184.5,84.1c0,0-1.1-1.2-0.7-1.9c0.5-0.9,5.9-5.2,12.2-5c1,0,2.2,0,3.4,2.6
			c1.2,2.6,1.5,4.3,1.5,4.3H184.5z"/>
		<path id="XMLID_509_" class="st53" d="M212.7,160.7c-0.4,0.1-0.8,0.2-1.2,0.3c-5.4,1-14.1,1.1-14.1,1.1
			c-17.2-0.3-24.9-9.6-27.7-14.4c-1-1.7-1.4-2.8-1.4-2.8c1-0.5,4.4-3.6,5.7-7.9c1.3-4.3-0.1-14.5-2.3-18.3c-1.2-2.1-4.8-6.5-7.1-11
			c-1.9-3.7-2.8-7.7-0.8-10.6c5.1-7.4,13-11.4,13-11.4s14.7-5.9,27.1-4.5c7.9,0.8,15,4.6,16.9,14.5
			C225.7,121.2,212.7,160.7,212.7,160.7z"/>
		<path id="XMLID_411_" class="st25" d="M176.7,211.5c0,0-1.2,1.4-3.1,1.7c-2.1,0.3-3.6-0.7-3.6-0.7l-1-2.8l6.6-1.4L176.7,211.5z"/>
		<path id="XMLID_412_" class="st25" d="M142.1,214.9c0,0-1.4,1.2-3.3,1.2c-2.1,0-3.4-1.2-3.4-1.2l-0.5-2.9h6.8L142.1,214.9z"/>
		<path id="XMLID_514_" class="st50" d="M176.7,208.4c-0.4,0.2-1.8,0.7-2.2,0.9c-2.5,0.8-6,1.6-6,1.6c-5.7-12.3-14.9-43.2-14.9-43.2
			c-1.3-5.5,2.6-7.7,6-7.9c1.2-0.1,2.3,0.1,3.1,0.5c3.3,1.4,8.1,10.6,8.1,10.6s1.5,3.2,3,9.8C175.2,187.2,176.7,208.4,176.7,208.4z"
			/>
		<path id="XMLID_513_" class="st54" d="M189.5,161.2c0,3.1-0.9,8.1-5.5,9.5c-6.9,2.1-12.1,0.9-20.1-0.5c-6.7-1.2-17.4-5.1-20.7-6.3
			c-0.4-0.2-0.3,0.1-0.3,0.5c1.5,7.5-1,48.2-1,48.2s-1.1,0.3-2.3,0.5c-0.4,0.1-0.9,0.1-1.3,0.1c-1.7,0-5-0.3-5-0.3
			s-6.2-28.6-7.2-44.7c-1-16,0-18.5,7.6-21.1c8.5-2.9,34.5-2.2,34.5-2.2l0,0c0.1,0.3,1.9,5.3,7.3,9.8
			C178.9,157.4,183.4,159.9,189.5,161.2z"/>
		<g id="XMLID_415_">
			<path id="XMLID_515_" class="st55" d="M197.4,177.5v41.2c0,1.5-1.2,2.7-2.7,2.7c-0.6,0-1.1-0.2-1.6-0.5c-0.7-0.5-1.1-1.3-1.1-2.1
				v-41.2H197.4z"/>
			<path id="XMLID_506_" class="st56" d="M197.4,179.3v39.2c0,1.3-1,2.6-2.3,2.7c-0.6,0.1-1.2,0-1.7-0.3c-0.1-0.2-0.2-0.3-0.3-0.5
				v-40.1c0-0.6,0.5-1.1,1.1-1.1H197.4z"/>
			<path id="XMLID_512_" class="st55" d="M200.7,176.1c0,0.2,0,0.4-0.1,0.6c-0.1,0.4-0.3,0.8-0.6,1c-0.4,0.4-1,0.7-1.6,0.7h-7.9
				c-1.3,0-2.3-1-2.3-2.3c0-0.6,0.3-1.2,0.7-1.6c0.4-0.4,1-0.7,1.6-0.7h7.9C199.7,173.8,200.7,174.8,200.7,176.1z"/>
			<path id="XMLID_508_" class="st56" d="M200.7,176.7c-0.1,0.4-0.3,0.8-0.6,1c-0.4,0.4-1,0.7-1.6,0.7h-7.6c0.1-0.4,0.3-0.8,0.6-1.1
				c0.4-0.4,1-0.7,1.6-0.7H200.7z"/>
			<path class="st57" d="M228.9,104.3C228.9,104.3,228.9,104.3,228.9,104.3c0,0.3-0.1,0.6-0.2,0.8c-0.6,2.7-2.9,7.9-3.2,15.8
				c-0.2,4.8,0,17.7-0.2,25.5c0,0,0,0,0,0c0,1.2-0.1,2.2-0.1,3.1c-0.4,6.9-2.8,17.1-9.9,22.2c-7.3,5.5-22,4.5-30.9,4.3
				c-8.9-0.2-31-4.2-32.7-7.5c-0.4-0.7-0.5-1.4-0.4-1.9c0,0,0,0,0,0c0.1-0.5,0.3-0.9,0.7-1.3c0.8-0.8,2.1-1.1,3.3-0.8
				c3.6,0.9,14.3,3,19.1-3.1c5.8-7.4,5.1-15.9,7.6-33.9c2.4-17,7.7-22.2,16.5-25.6c9.4-3.6,24.5-2.1,28.3-0.9
				C228,101.4,229,102.8,228.9,104.3z"/>
			<path id="XMLID_516_" class="st56" d="M225.5,223.7c0,0.5-0.4,1-1,1h-59.7c-0.5,0-1-0.4-1-1c0-0.5,0.3-0.9,0.8-1l30-4.9l7.5,1.2
				l22.4,3.6C225.2,222.8,225.5,223.2,225.5,223.7z"/>
		</g>
		<path id="XMLID_420_" class="st50" d="M135.3,214.9c0,0,1.8,0.7,3.4,0.7c2,0,3.4-0.7,3.4-0.7s3.5,4.4,1.6,9.4
			c-0.1,0.3-0.4,0.4-0.6,0.4h-23.3c-0.3,0-0.5-0.2-0.5-0.5c0-0.6,0.2-1.5,1.6-1.9c2.2-0.7,4.4-1,6-1.6c1.7-0.6,4.1-3,5.4-3.5
			C134,216.6,135.3,214.9,135.3,214.9z"/>
		<path id="XMLID_421_" class="st50" d="M170,212.6c0,0,1.9,0.4,3.5,0.2c1.9-0.3,3.2-1.2,3.2-1.2s4.1,3.8,3.1,9
			c-0.1,0.3-0.3,0.5-0.6,0.5c0,0-12.3,2.8-16.5,3.4c-2.5,0.4-6.6,0.4-6.6,0.4c-0.3,0-0.6-0.2-0.6-0.4c-0.1-0.6,0-1.5,1.3-2.2
			c2-1,4.2-1.7,5.7-2.6c1.6-0.8,3.5-3.6,4.8-4.3C169,214.4,170,212.6,170,212.6z"/>
		<path id="XMLID_536_" class="st25" d="M123.2,124.9c0,0-2.4-1-3.6-1.4c-0.5-0.2-1-0.3-1.3-0.4c-0.5-0.1-1.1-0.2-1.6-0.2H103
			c-0.4,0-0.7-0.3-0.7-0.7c0-0.5,0.3-1,0.7-1.3l1.5-0.9l4.4-2.8c2.2-1.4,3.7-1.5,6.3-1.3c0.5,0,2.3,0.8,2.7,0.9
			c2.5,0.8,3.1,1.2,4.8,1.8c0.7,0.2,1.1,0.4,1.4,0.4c0.5,0.1,0.6,0.1,0.6,0.1C125,122.6,123.2,124.9,123.2,124.9z"/>
		<path id="XMLID_423_" class="st53" d="M176.4,92.5c-1.8-1.1-7.2-4.1-14.1,6.7c-6.9,10.8-9.1,15.4-11.1,18.8
			c-2.4,1.5-26.9,0.8-26.9,0.8s-1.5,3.3-1.8,6.1c0,0,13,6.5,30.2,7.7c13.3,0,27.1-26.1,27.7-29.3C181.1,100,180.6,95.1,176.4,92.5z"
			/>
		<g id="XMLID_424_">
			<path id="XMLID_417_" class="st50" d="M165.1,69.6c-0.1,0-0.3-0.1-0.3-0.2c-0.1-0.2,0-0.4,0.2-0.5l13.5-6.9c1.5-0.8,4.7-2.4,7,1
				c0.1,0.2,0.1,0.4-0.1,0.5c-0.2,0.1-0.4,0.1-0.5-0.1c-1.8-2.7-4-1.9-6-0.8l-13.5,6.9C165.2,69.6,165.2,69.6,165.1,69.6z"/>
		</g>
		<path id="XMLID_482_" class="st25" d="M178.4,62.7l1.8,5.7c0,0,1.4,1.3,2.7-0.2c1.3-1.5,2.5-6.9,0-7.8
			C180.5,59.5,179,60.8,178.4,62.7z"/>
		<path class="st58" d="M228.4,102.3C228.4,102.3,228.4,102.2,228.4,102.3c-0.4-0.6-1-1.1-1.8-1.3c-3.8-1.1-18.9-2.7-28.3,0.9
			c-8.8,3.4-14.1,8.6-16.5,25.6c-2.5,18-1.8,26.5-7.6,33.9c-4.8,6.1-15.5,4-19.1,3.1c-1.1-0.3-2.4,0-3.3,0.8
			c-0.3,0.3-0.6,0.8-0.7,1.3c-0.1,0.5,0,1.2,0.4,1.9c1.8,3.3,23.8,7.3,32.7,7.5c8.9,0.2,23.6,1.1,30.9-4.3
			c7.2-5.2,9.5-15.3,9.9-22.2c0.1-0.9,0.1-1.9,0.1-3.1c-0.2,0.6-5.1,14.5-22.4,11.3c-16.7-3.1-18.2-21.4-17.6-27.6
			c0.1-0.7,0.2-1.3,0.2-1.9c0.2-1.1,1.1-6,2.2-10.2c0.8-2.8,2.7-7.1,6.6-10.2c0.5-0.4,1-0.7,1.6-1c0.2-0.1,0.4-0.2,0.5-0.3
			c0.3-0.1,0.5-0.3,0.8-0.4c0.3-0.1,0.6-0.3,0.9-0.4c0.2-0.1,0.4-0.2,0.7-0.3c13.6-5.4,28.2-1.9,29.1-1.7
			C228.8,104,228.4,102.5,228.4,102.3z"/>
	</g>
	<g>
		<path class="st59" d="M-2023.9,349.7l1.5-4c0,0,23.6,1.1,34.8,8.1l-21.3,0.4L-2023.9,349.7z"/>
		<path class="st59" d="M-1951.3,349.7l-1.5-4c0,0-23.6,1.1-34.8,8.1l21.3,0.4L-1951.3,349.7z"/>
		<path class="st60" d="M-1987.6,353.8c-12.8-5-37.6-5.3-37.6-5.3v8.4h32.1h11h32.1v-8.4C-1950,348.5-1974.8,348.9-1987.6,353.8z"/>
		<rect x="-2028" y="354.6" class="st61" width="80.9" height="2.9"/>
	</g>
	<path class="st56" d="M-505.9,32.4l7.1-4.7c1.5,0.9,3.2,1.5,5.1,1.5h34.3c5.3,0,9.5-4.3,9.5-9.5V8.9c0-5.3-4.3-9.5-9.5-9.5h-34.3
		c-5.3,0-9.5,4.3-9.5,9.5v10.8c0,2,0.6,3.8,1.6,5.3L-505.9,32.4z M-493.7,23.1c0-0.5,0.4-0.9,0.9-0.9h33c0.5,0,0.9,0.4,0.9,0.9
		c0,0.5-0.4,0.9-0.9,0.9h-33C-493.3,23.9-493.7,23.6-493.7,23.1z M-459.8,19.5h-17.4c-0.5,0-0.9-0.4-0.9-0.9c0-0.5,0.4-0.9,0.9-0.9
		h17.4c0.5,0,0.9,0.4,0.9,0.9C-458.9,19.1-459.3,19.5-459.8,19.5z M-493.7,14.2c0-0.5,0.4-0.9,0.9-0.9h33c0.5,0,0.9,0.4,0.9,0.9
		s-0.4,0.9-0.9,0.9h-33C-493.3,15-493.7,14.6-493.7,14.2z M-459.8,10.6h-24.4c-0.5,0-0.9-0.4-0.9-0.9c0-0.5,0.4-0.9,0.9-0.9h24.4
		c0.5,0,0.9,0.4,0.9,0.9C-458.9,10.2-459.3,10.6-459.8,10.6z M-493.7,5.2c0-0.5,0.4-0.9,0.9-0.9h33c0.5,0,0.9,0.4,0.9,0.9
		c0,0.5-0.4,0.9-0.9,0.9h-33C-493.3,6.1-493.7,5.7-493.7,5.2z"/>
	<g>
		<g>
			<g>
				<line class="st62" x1="-2078.9" y1="135.3" x2="-2084.9" y2="135.3"/>
				<path class="st63" d="M-2089.9,135.3h-38.6c-2.2,0-4,1.8-4,4v152.7c0,0.5,0.1,1,0.3,1.4"/>
				<path class="st62" d="M-2130.7,295.4c0.6,0.4,1.4,0.7,2.3,0.7h3.6"/>
			</g>
		</g>
		<g>
			<g>
				<line class="st62" x1="-1730.6" y1="84.2" x2="-1724.6" y2="84.2"/>
				<path class="st64" d="M-1719.7,84.2h83.9c3.9,0,7.1,3.2,7.1,7.1v123.8c0,3.9-3.2,7.1-7.1,7.1h-2.4"/>
				<line class="st62" x1="-1640.6" y1="222.2" x2="-1646.6" y2="222.2"/>
			</g>
		</g>
		<path class="st65" d="M-1990.8-10.2h57.1c6.4,0,11.6,5.2,11.6,11.6v54.6"/>
	</g>
	<g>
		<g>
			<path class="st13" d="M66,116.7c0,0-6.6-3.9-8.1-11.5c0,0,6.2,1.3,9.4,11.5"/>
			<path class="st13" d="M68.7,116.7c0,0,6.6-3.9,8.1-11.5c0,0-6.2,1.3-9.4,11.5"/>
			<path class="st13" d="M66.7,116c0,0-4.8-6-3.4-13.6c0,0,5.4,3.5,4.6,14.1"/>
			<path class="st13" d="M68.2,116.1c0,0,4.6-6.1,3-13.7c0,0-5.3,3.6-4.3,14.2"/>
		</g>
		<g>
			<rect x="60" y="115.1" class="st57" width="14.5" height="12.1"/>
			<rect x="60" y="115.1" class="st58" width="4.3" height="12.1"/>
		</g>
	</g>
	<g>
		<g class="st66">
			<g>
				<g>
					<polyline class="st67" points="203.7,40.6 197.1,44 200.4,35.5 					"/>
				</g>
				<path class="st67" d="M224,29.7c0,7.6-6.2,13.8-13.8,13.8c-7.6,0-13.8-6.2-13.8-13.8c0-7.6,6.2-13.8,13.8-13.8
					C217.8,15.9,224,22.1,224,29.7z"/>
			</g>
		</g>
		<polyline class="st68" points="204.3,28.4 208.5,33.6 216,25.8 		"/>
	</g>
	<g>
		<g class="st66">
			<g>
				<g>
					<polyline class="st67" points="-2103.3,203.5 -2096.8,207 -2100,198.5 					"/>
				</g>
				<path class="st67" d="M-2123.6,192.6c0,7.6,6.2,13.8,13.8,13.8c7.6,0,13.8-6.2,13.8-13.8c0-7.6-6.2-13.8-13.8-13.8
					C-2117.4,178.8-2123.6,185-2123.6,192.6z"/>
			</g>
		</g>
		<polyline class="st68" points="-2115.6,191.3 -2111.4,196.5 -2104,188.7 		"/>
	</g>
	<g>
		<g class="st66">
			<path class="st48" d="M-435.1,64.1c0,2.4-0.5,4.8-1.5,6.9c-0.5,1-1,2-1.7,2.9c-0.5,0.6-0.9,1.2-1.5,1.7c0,0,0,0,0,0
				c-0.5,0.5-0.9,0.9-1.4,1.3c-0.7,0.6-1.5,1.1-2.4,1.6c-0.7,0.4-1.3,0.7-2,1c-1.6,0.6-3.3,1-5,1.1c-0.3,0-0.7,0-1,0
				c-4,0-7.6-1.4-10.4-3.7c-3.7-3-6.1-7.7-6.1-12.8c0-2.4,0.5-4.6,1.4-6.6c2.1-4.7,6.2-8.3,11.3-9.4c0,0,0.1,0,0.2,0
				c0.5-0.1,1.1-0.2,1.6-0.3c0.7-0.1,1.4-0.1,2-0.1c6.3,0,11.7,3.5,14.5,8.7c0.2,0.3,0.4,0.7,0.5,1.1
				C-435.7,59.4-435.1,61.7-435.1,64.1z"/>
			<g>
				<g class="st66">
					<path class="st69" d="M-447.5,78.7c0.1,0.8-0.9,1.3-1.7,1.5c-0.5,0.1-1,0.2-1.4,0.3c-0.3,0-0.7,0-1,0c-3.9,0-7.6-1.4-10.4-3.7
						c0-0.1,0-0.3,0-0.4c0-0.6,0.2-1.2,0.4-1.9c0.1-0.5,0.2-1,0.2-1.6c0-0.2,0-0.4-0.1-0.6c-0.1-0.1-0.3-0.2-0.4-0.2
						c-0.9-0.4-1.6-1.6-1.2-2.5c0.8-2,3.6-1.3,1.8-6.3c-0.4-1.1,0.4-1.3,0.4-1.6c-0.2-0.7-2.6-0.5-3.3-0.6c-0.4-0.1-0.9-0.1-1.2-0.4
						c-0.2-0.2-0.3-0.4-0.4-0.7c-0.4-0.9-0.6-1.8-0.7-2.8c2.1-4.7,6.3-8.3,11.5-9.5l0.1,0.5c-0.2,1.9-0.3,3.8-0.4,5.6
						c0,0.3,0,0.7-0.1,1c-0.3,0.7-1.1,1-1.8,0.9c-0.3,0-0.6-0.1-0.8,0c-0.4,0.2-0.3,0.8-0.3,1.2c-0.1,0.7-0.8,1.3-1.2,1.9
						c-0.5,0.6-0.6,1.6,0,2c0.2,0.1,0.4,0.1,0.5,0.3c0.1,0.2,0,0.5-0.3,0.7c-0.2,0.1-0.5,0.2-0.6,0.4c-0.3,0.4-0.1,1,0.3,1.4
						c0.4,0.3,0.9,0.6,1.2,1c0.4,0.5,0.5,1.2,0.9,1.7c1.1,1.1,3.3-0.1,4.4,1.1c0.6,0.6,0.6,1.5,1.1,2.1c0.3,0.4,0.8,0.6,1.2,0.9
						c0.9,0.7,1.6,1.8,1.6,2.9c0.1,1.2-0.4,2.7,0.5,3.6C-448.6,77.7-447.6,77.9-447.5,78.7z"/>
				</g>
				<g class="st66">
					<path class="st69" d="M-437.1,56.2c-0.3,0-0.6,0-0.8,0.1c-0.1,0-0.2,0.1-0.3,0.1c-0.1,0.1-0.1,0.3-0.1,0.5
						c0,0.5-0.2,1.1-0.6,1.4c-0.1,0.1-0.2,0.1-0.3,0.2c-0.3,0.1-0.5-0.3-0.6-0.6c-0.3-0.8-0.6-1.6-0.9-2.4c-0.1-0.2-0.2-0.5-0.4-0.7
						c-0.4-0.3-0.9-0.2-1.3-0.4c-0.5-0.3-0.7-1.1-1.3-1c-0.4,0.1-0.4,0.7-0.3,1.2c0.1,0.4,0.3,1,0,1.3c-0.4,0.3-0.9,0-1.2-0.4
						c-0.3-0.4-0.5-0.9-1-1.1c-0.6-0.2-1.3,0.3-1.7,0.9c-0.4,0.6-0.7,1.3-1.3,1.5c-0.3,0.1-0.7,0.1-1,0.3c-0.6,0.3-0.6,1.2-0.4,1.9
						c0.2,0.7,0.5,1.4,0.2,2c-0.1,0.1-0.1,0.2-0.3,0.3c-0.3,0.1-0.5-0.2-0.7-0.4c-1-1.3-1.9-2.6-2.6-4.1c-0.1-0.3-0.3-0.6-0.2-0.9
						c0-0.2,0.1-0.4,0.2-0.6c0.2-0.7,0-1.4,0.1-2.1c0.1-1.2,1.1-2.3,0.7-3.4c-0.1-0.4-0.4-0.7-0.6-1.1c-0.2-0.4-0.2-0.9,0.1-1.2
						c0.7-0.1,1.4-0.1,2-0.1C-445.4,47.6-439.9,51.1-437.1,56.2z"/>
				</g>
				<g class="st66">
					<path class="st69" d="M-435.1,64.1c0,2.4-0.5,4.8-1.5,6.9c-0.5,1-1,2-1.7,2.9c0,0,0,0,0,0c0-0.1,0-0.2,0-0.3
						c0-0.4,0-0.8,0.2-1.2c0.1-0.2,0.3-0.4,0.4-0.6c0.3-0.6,0.2-1.2,0.2-1.9c0-0.3-0.1-0.7-0.3-1c-0.2-0.2-0.4-0.2-0.5-0.4
						c-0.4-0.4-0.2-1-0.2-1.5c0.1-0.5,0-1.2-0.4-1.4c-0.6,0.8-1.2,1.6-1.9,2.2c0.1-0.6-0.6-1-1.1-0.9c-0.5,0.2-0.8,0.8-0.8,1.3
						c-0.5,0-0.6-0.7-0.5-1.1c0.1-0.8,0.2-1.6,0.3-2.4c-0.5-0.2-0.9,0.6-1.5,0.7c-0.5,0.1-0.9-0.4-1-0.8c-0.1-0.5,0.2-0.9,0.4-1.4
						c0.2-0.5,0.5-1,0.7-1.5c0.3-0.7,0.7-1.4,1.3-1.7c0.8-0.4,1.7-0.1,2.6,0.1c0.9,0.2,1.9,0.3,2.5-0.3c0.4-0.4,0.5-0.9,0.6-1.4
						c0.1-0.4,0.2-0.9,0.6-1.1l0,0C-435.7,59.4-435.1,61.7-435.1,64.1z"/>
				</g>
			</g>
			<path class="st70" d="M-439.1,74.8c-0.2,0.3-0.5,0.5-0.7,0.8c0,0,0,0,0,0c-0.5,0.5-0.9,0.9-1.4,1.3c-0.7,0.6-1.5,1.1-2.4,1.6
				c-0.7,0.4-1.3,0.7-2,1c-1.6,0.6-3.3,1-5,1.1c-0.3,0-0.7,0-1,0c-4,0-7.6-1.4-10.4-3.7c-3.7-3-6.1-7.7-6.1-12.8
				c0-2.4,0.5-4.6,1.4-6.6c2.1-4.7,6.2-8.3,11.3-9.4c0,0,0.1,0,0.2,0c0.5-0.1,1.1-0.2,1.6-0.3c0,0,0.1,0,0.1,0
				c-1.6,1.5-2.9,3.3-3.8,5.4c-0.9,2-1.3,4.1-1.3,6.4c0,5,2.3,9.4,5.9,12.3c2.7,2.2,6.2,3.5,10,3.5c0.3,0,0.6,0,1,0
				C-441,75.2-440,75-439.1,74.8z"/>
			<path class="st61" d="M-431.4,64c0-6.1-2.7-11.8-7.4-15.7c-3.6-3-8.2-4.6-12.9-4.6c-0.6,0-1.1,0.5-1.1,1.1c0,0.6,0.5,1.1,1.1,1.1
				c4.2,0,8.3,1.5,11.6,4.1c4.2,3.5,6.6,8.6,6.6,14.1c0,10-8.2,18.2-18.2,18.2c-5.5,0-10.6-2.4-14.1-6.7c-0.4-0.5-1-0.5-1.5-0.1
				c-0.2,0.2-0.4,0.4-0.4,0.7c0,0.3,0.1,0.6,0.2,0.8c3.6,4.4,8.8,7.1,14.5,7.4v3.5h-6.1c-0.7,0-1.3,0.6-1.3,1.3
				c0,0.7,0.6,1.3,1.3,1.3h14.9c0.7,0,1.3-0.6,1.3-1.3c0-0.7-0.6-1.3-1.3-1.3h-6.1v-3.6C-439.8,83.6-431.4,74.8-431.4,64z"/>
		</g>
	</g>
	<g>
		<g>
			<path class="st48" d="M-1979.7,298.4c0.4,3-1.8,5.8-4.8,6.2c-3,0.4-5.8-1.8-6.2-4.8c-0.4-3,1.8-5.8,4.8-6.2
				C-1982.9,293.2-1980.1,295.4-1979.7,298.4z"/>
			<polyline class="st71" points="-1987.6,299.7 -1985.2,301.6 -1982.8,297.3 			"/>
		</g>
		<g>
			<path class="st48" d="M-1964.7,5.5c1,2.9-0.6,6.1-3.6,7c-2.9,1-6.1-0.6-7-3.6s0.6-6.1,3.6-7C-1968.8,1-1965.7,2.6-1964.7,5.5z"/>
			<polyline class="st71" points="-1972.3,8.2 -1969.5,9.6 -1968,4.9 			"/>
		</g>
		<g>
			<path class="st48" d="M-1665.2,108.7c-0.3,4.7-4.4,8.2-9.1,7.9c-4.7-0.3-8.2-4.4-7.9-9.1c0.3-4.7,4.4-8.2,9.1-7.9
				C-1668.4,99.9-1664.9,104-1665.2,108.7z"/>
			<polyline class="st72" points="-1677.5,108.2 -1674.4,111.7 -1669.5,106 			"/>
		</g>
		<path class="st48" d="M-1691.3,107.8c0,1.1-0.9,2-2,2c-1.1,0-2-0.9-2-2c0-1.1,0.9-2,2-2C-1692.3,105.7-1691.3,106.6-1691.3,107.8z
			"/>
		<path class="st70" d="M-1760.3-33.1c0,1.1-0.9,2-2,2c-1.1,0-2-0.9-2-2c0-1.1,0.9-2,2-2C-1761.2-35.1-1760.3-34.2-1760.3-33.1z"/>
		<path class="st48" d="M-2093.9,153.6c0,1.8-1.5,3.3-3.3,3.3s-3.3-1.5-3.3-3.3c0-1.8,1.5-3.3,3.3-3.3S-2093.9,151.8-2093.9,153.6z"
			/>
		<path class="st70" d="M-1597.1,186.7c0,2.8-2.3,5-5,5c-2.8,0-5-2.3-5-5c0-2.8,2.3-5,5-5C-1599.4,181.7-1597.1,183.9-1597.1,186.7z
			"/>
		<path class="st70" d="M-2146.7,117.3c0,2.8-2.3,5-5,5s-5-2.3-5-5c0-2.8,2.3-5,5-5S-2146.7,114.5-2146.7,117.3z"/>
		<path class="st70" d="M-1638.4,232c0,1.8-1.5,3.3-3.3,3.3c-1.8,0-3.3-1.5-3.3-3.3c0-1.8,1.5-3.3,3.3-3.3
			C-1639.9,228.8-1638.4,230.2-1638.4,232z"/>
		<path class="st70" d="M-1893.4-21.3c0,1.8-1.5,3.3-3.3,3.3c-1.8,0-3.3-1.5-3.3-3.3c0-1.8,1.5-3.3,3.3-3.3
			C-1894.9-24.5-1893.4-23.1-1893.4-21.3z"/>
		<path class="st73" d="M-1832.6-37.7c0,1.8-1.5,3.3-3.3,3.3c-1.8,0-3.3-1.5-3.3-3.3c0-1.8,1.5-3.3,3.3-3.3
			C-1834.1-40.9-1832.6-39.5-1832.6-37.7z"/>
		<g>
			<g>
				<g>
					<path class="st48" d="M-2155.7,73.1c-0.4,0-0.7-0.3-0.7-0.7v-4.6c0-0.4,0.3-0.7,0.7-0.7s0.7,0.3,0.7,0.7v4.6
						C-2155.1,72.8-2155.4,73.1-2155.7,73.1z"/>
				</g>
				<g>
					<path class="st48" d="M-2153.4,70.8h-4.6c-0.4,0-0.7-0.3-0.7-0.7c0-0.4,0.3-0.7,0.7-0.7h4.6c0.4,0,0.7,0.3,0.7,0.7
						C-2152.8,70.5-2153.1,70.8-2153.4,70.8z"/>
				</g>
			</g>
		</g>
		<g class="st6">
			<g>
				<g>
					<path class="st48" d="M-2119.6-42.7c-0.4,0-0.7-0.3-0.7-0.7V-48c0-0.4,0.3-0.7,0.7-0.7s0.7,0.3,0.7,0.7v4.6
						C-2118.9-43-2119.2-42.7-2119.6-42.7z"/>
				</g>
				<g>
					<path class="st48" d="M-2117.3-45h-4.6c-0.4,0-0.7-0.3-0.7-0.7c0-0.4,0.3-0.7,0.7-0.7h4.6c0.4,0,0.7,0.3,0.7,0.7
						C-2116.6-45.3-2116.9-45-2117.3-45z"/>
				</g>
			</g>
		</g>
		<g>
			<g>
				<g>
					<path class="st48" d="M-1736.3,12.4c-0.4,0-0.7-0.3-0.7-0.7V7.2c0-0.4,0.3-0.7,0.7-0.7s0.7,0.3,0.7,0.7v4.6
						C-1735.6,12.1-1735.9,12.4-1736.3,12.4z"/>
				</g>
				<g>
					<path class="st48" d="M-1734,10.1h-4.6c-0.4,0-0.7-0.3-0.7-0.7c0-0.4,0.3-0.7,0.7-0.7h4.6c0.4,0,0.7,0.3,0.7,0.7
						C-1733.3,9.8-1733.6,10.1-1734,10.1z"/>
				</g>
			</g>
		</g>
		<g>
			<g>
				<g>
					<path class="st48" d="M-1594.2,255.6c-0.4,0-0.7-0.3-0.7-0.7v-4.6c0-0.4,0.3-0.7,0.7-0.7s0.7,0.3,0.7,0.7v4.6
						C-1593.5,255.3-1593.8,255.6-1594.2,255.6z"/>
				</g>
				<g>
					<path class="st48" d="M-1591.8,253.3h-4.6c-0.4,0-0.7-0.3-0.7-0.7c0-0.4,0.3-0.7,0.7-0.7h4.6c0.4,0,0.7,0.3,0.7,0.7
						C-1591.2,253-1591.5,253.3-1591.8,253.3z"/>
				</g>
			</g>
		</g>
	</g>
</g>
</svg>
