<?xml version="1.0" encoding="utf-8"?>
<!-- Generator: Adobe Illustrator 23.0.5, SVG Export Plug-In . SVG Version: 6.00 Build 0)  -->
<svg version="1.1" xmlns="http://www.w3.org/2000/svg" xmlns:xlink="http://www.w3.org/1999/xlink" x="0px" y="0px"
	 viewBox="0 0 124.1 86.5" style="enable-background:new 0 0 124.1 86.5;" xml:space="preserve">
<style type="text/css">
	.st0{fill:url(#SVGID_1_);}
	.st1{opacity:0.335;}
	.st2{fill:#FFFFFF;}
	.st3{fill:url(#SVGID_2_);}
	.st4{opacity:0.7;fill:url(#SVGID_3_);}
	.st5{fill:#3D4051;}
	.st6{fill:#00B255;}
	.st7{opacity:0.3;}
	.st8{fill:#FFD524;}
	.st9{fill:#FFC32E;}
	.st10{fill:#FFE2B2;}
	.st11{fill:#FF582A;}
	.st12{fill:#AE1E0B;}
	.st13{fill:#009FDA;}
	.st14{fill:#0071B8;}
	.st15{fill:#484D5B;}
	.st16{fill:#1794FF;}
	.st17{fill:#CADFEF;}
	.st18{fill:#8D5115;}
	.st19{fill:#774206;}
	.st20{fill:#00C4D8;}
	.st21{fill:#008C41;}
	.st22{fill:#F9FBFC;}
</style>
<g id="BACKGROUND">
</g>
<g id="OBJECTS">
	<g>
		<path class="st5" d="M93.2,13.2L39.6,31.5l9.5,27.3c19.8,2.8,39.7-4.1,53.5-18.6L93.2,13.2z"/>
		<g>
			<polygon class="st5" points="124.1,4.4 75.8,48.1 10.9,43.7 17.7,37.6 21.3,34.3 59.2,0 110.1,3.5 115,3.8 			"/>
		</g>
		<g>
			<polygon class="st15" points="115,3.8 73.5,41.4 17.7,37.6 21.3,34.3 59.2,0 110.1,3.5 			"/>
		</g>
	</g>
	<g>
		<g>
			<polygon class="st16" points="8.9,81.1 6.2,80.9 9.7,42.8 66.7,19.4 67.7,21.8 12.1,44.6 			"/>
		</g>
		<path class="st16" d="M8.9,66.9l-0.5-0.2C6.8,67.4,1.1,70.5,0,84.7l11.7,1.8C14.8,72.7,10.3,68,8.9,66.9z"/>
	</g>
</g>
<g id="DESIGNED_BY_FREEPIK">
</g>
</svg>
