<?xml version="1.0" encoding="utf-8"?>
<!-- Generator: Adobe Illustrator 23.0.5, SVG Export Plug-In . SVG Version: 6.00 Build 0)  -->
<svg version="1.1" xmlns="http://www.w3.org/2000/svg" xmlns:xlink="http://www.w3.org/1999/xlink" x="0px" y="0px"
	 viewBox="0 0 124.1 86.5" style="enable-background:new 0 0 124.1 86.5;" xml:space="preserve">
<style type="text/css">
	.st0{fill:url(#SVGID_1_);}
	.st1{opacity:0.335;}
	.st2{fill:#FFFFFF;}
	.st3{fill:url(#SVGID_2_);}
	.st4{opacity:0.7;fill:url(#SVGID_3_);}
	.st5{fill:#3D4051;}
	.st6{fill:#00B255;}
	.st7{opacity:0.3;}
	.st8{fill:#FFD524;}
	.st9{fill:#FFC32E;}
	.st10{fill:#FFE2B2;}
	.st11{fill:#FF582A;}
	.st12{fill:#AE1E0B;}
	.st13{fill:#009FDA;}
	.st14{fill:#0071B8;}
	.st15{fill:#484D5B;}
	.st16{fill:#1794FF;}
	.st17{fill:#CADFEF;}
	.st18{fill:#8D5115;}
	.st19{fill:#774206;}
	.st20{fill:#00C4D8;}
	.st21{fill:#008C41;}
	.st22{fill:#F9FBFC;}
</style>
<g id="BACKGROUND">
	<linearGradient id="SVGID_1_" gradientUnits="userSpaceOnUse" x1="-476.1277" y1="847.4656" x2="-915.9127" y2="407.6805">
		<stop  offset="0" style="stop-color:#FF6B1F"/>
		<stop  offset="0.1889" style="stop-color:#FF7121"/>
		<stop  offset="0.4467" style="stop-color:#FF8328"/>
		<stop  offset="0.7429" style="stop-color:#FF9F32"/>
		<stop  offset="1" style="stop-color:#FFBE3D"/>
	</linearGradient>
	<rect x="-1287.7" y="160.9" class="st0" width="750" height="500"/>
</g>
<g id="OBJECTS">
	<g class="st1">
		
			<image style="overflow:visible;" width="669" height="454" xlink:href="B264911F.png"  transform="matrix(1 0 0 1 -2507.1655 237.9227)">
		</image>
	</g>
	<g>
		<g>
			<rect x="-2530.3" y="349.2" class="st2" width="596.3" height="381.7"/>
			<linearGradient id="SVGID_2_" gradientUnits="userSpaceOnUse" x1="-2336.0032" y1="531.7015" x2="-1934.0715" y2="531.7015">
				<stop  offset="0" style="stop-color:#8EE5B6"/>
				<stop  offset="1" style="stop-color:#00C4D8"/>
			</linearGradient>
			<path class="st3" d="M-1934.1,349.2v364.9c-27.9-6.1-54.5-22.7-67.5-48.1c-8.2-16-11.6-35.8-25.9-46.7c-12-9.1-28.9-9.2-43.4-5
				c-14.5,4.2-27.6,12.1-41.5,18.1c-21.7,9.3-46.1,13.7-69,8.1c-22.9-5.6-43.7-22.6-49.9-45.3c-6.7-24.6,3-54.6-13.7-73.9
				c-18.7-21.6-56.8-13.1-77.5-32.8c-13.2-12.6-15.2-33.1-12.5-51.1c2.7-18,9.3-35.5,9.9-53.8c0.4-12-2.6-24.9-9.5-34.4H-1934.1z"/>
			<linearGradient id="SVGID_3_" gradientUnits="userSpaceOnUse" x1="-2115.2629" y1="509.9721" x2="-2219.3691" y2="628.6384">
				<stop  offset="0" style="stop-color:#A7EBEB"/>
				<stop  offset="1" style="stop-color:#A7EBEB;stop-opacity:0"/>
			</linearGradient>
			<path class="st4" d="M-1943.2,677.1c-24.8-1.5-50.7-16.4-56.6-40.6c-5.2-21.5,5.4-47-7.7-64.8c-10.1-13.7-30.8-15.7-46.5-9.1
				c-15.8,6.6-27.7,19.6-39.2,32.2c-11.5,12.6-23.5,25.6-39.3,32c-16.4,6.6-35.8,5-50.9-4.2c-15.1-9.2-25.5-25.7-27.2-43.3
				c-1.6-17,4.3-33.7,6.1-50.6c1.8-17-2.2-36.9-17.3-45c-12.8-6.9-28.5-2.6-42.8,0.6c-14.3,3.2-31.5,4.3-41.1-6.6
				c-11.1-12.5-5.2-32.1,2.5-47c13.6-26.2,31.6-52.8,32.6-81.5h-64c6.9,9.5,9.9,22.4,9.5,34.4c-0.6,18.2-7.1,35.7-9.9,53.8
				c-2.7,18-0.7,38.6,12.5,51.1c20.7,19.6,58.9,11.2,77.5,32.8c16.7,19.3,7.1,49.3,13.7,73.9c6.2,22.7,27,39.7,49.9,45.3
				c22.9,5.6,47.3,1.2,69-8.1c13.9-5.9,27-13.9,41.5-18.1c14.5-4.2,31.3-4.1,43.4,5c14.3,10.9,17.7,30.6,25.9,46.7
				c13,25.4,39.6,42,67.5,48.1v-37C-1937.1,677.3-1940.2,677.3-1943.2,677.1z M-2038.9,590.7c-6.6,4-22.2,3.7-22.2-7
				c0-9,13.5-15,21.1-14.8C-2025.8,569.3-2030.1,585.5-2038.9,590.7z M-2012.3,587.6c-0.4,1.2-1.3,2.2-2.5,2.6
				c-1.3,0.5-2.7,0.2-3.9-0.5c-2-1-3.5-3-4-5.2c-0.5-2.3,0.2-5.8,2.6-6.7c1.7-0.7,4.1,0,5.5,1.1c1.5,1.2,2.3,3.1,2.6,5
				C-2011.9,585.1-2011.9,586.4-2012.3,587.6z"/>
			<g>
				<g>
					<g>
						<text transform="matrix(1 0 0 1 -2502.583 387.222)"><tspan x="0" y="0" class="st5" style="font-family:'Montserrat-Bold'; font-size:14.5603px;">YOUR</tspan><tspan x="35.2" y="0" class="st5" style="font-family:'Montserrat-Regular'; font-size:14.5603px;">LOGO</tspan></text>
					</g>
					<g>
						<g>
							
								<text transform="matrix(1 0 0 1 -2198.4717 386.1238)" class="st2" style="font-family:'Montserrat-Regular'; font-size:10.1922px;">Home</text>
						</g>
						<g>
							
								<text transform="matrix(1 0 0 1 -2140.5215 386.1238)" class="st2" style="font-family:'Montserrat-Regular'; font-size:10.1922px;">About</text>
						</g>
						<g>
							
								<text transform="matrix(1 0 0 1 -2078.0215 386.1238)" class="st2" style="font-family:'Montserrat-Regular'; font-size:10.1922px;">Blog</text>
						</g>
						<g>
							
								<text transform="matrix(1 0 0 1 -2028.2872 386.1238)" class="st2" style="font-family:'Montserrat-Regular'; font-size:10.1922px;">Contact</text>
						</g>
					</g>
				</g>
			</g>
			<g>
				<g>
					<g>
						<g>
							
								<text transform="matrix(1 0 0 1 -2502.415 508.6649)" class="st6" style="font-family:'Montserrat-Black'; font-size:32.0326px;">BACK TO</text>
						</g>
						<g>
							
								<text transform="matrix(1 0 0 1 -2502.415 545.5213)" class="st6" style="font-family:'Montserrat-Black'; font-size:36.4007px;">SCHOOL</text>
						</g>
					</g>
				</g>
				<g>
					<rect x="-2502.6" y="591.6" style="fill:none;" width="131.5" height="26"/>
					<text transform="matrix(1 0 0 1 -2502.584 596.9969)"><tspan x="0" y="0" style="fill:#CBD0E3; font-family:'Montserrat-Regular'; font-size:7.2801px;">Lorem ipsum dolor sit amet, </tspan><tspan x="0" y="8.7" style="fill:#CBD0E3; font-family:'Montserrat-Regular'; font-size:7.2801px;">consectetuer adipiscing elit, sed </tspan><tspan x="0" y="17.5" style="fill:#CBD0E3; font-family:'Montserrat-Regular'; font-size:7.2801px;">diam nonummy nibh euismod</tspan></text>
				</g>
				<g>
					<path class="st5" d="M-2444.1,579.1h-49.9c-4.7,0-8.6-3.8-8.6-8.6v0c0-4.7,3.8-8.6,8.6-8.6h49.9c4.7,0,8.6,3.8,8.6,8.6v0
						C-2435.5,575.3-2439.4,579.1-2444.1,579.1z"/>
					
						<text transform="matrix(1 0 0 1 -2492.0088 572.6253)" class="st2" style="font-family:'Montserrat-Bold'; font-size:7.2801px;">READ MORE</text>
				</g>
				<g>
					<g>
						<g>
							<circle class="st6" cx="-2499.5" cy="636.5" r="3.1"/>
						</g>
						<g class="st7">
							<path class="st6" d="M-2484.6,636.5c0,1.7-1.4,3.1-3.1,3.1c-1.7,0-3.1-1.4-3.1-3.1c0-1.7,1.4-3.1,3.1-3.1
								C-2485.9,633.4-2484.6,634.8-2484.6,636.5z"/>
						</g>
						<g class="st7">
							<circle class="st6" cx="-2475.8" cy="636.5" r="3.1"/>
						</g>
					</g>
				</g>
			</g>
		</g>
	</g>
	<g>
		<path class="st8" d="M-1956,500.1l43.3-68c1.3-2,4-2.6,6-1.3l4.5,2.8c2,1.3,2.6,4,1.3,6l-43.3,68l-7.5,5.1l-7.1,4.8l1.4-8.4
			L-1956,500.1z"/>
		<path class="st9" d="M-1950.1,503.9l45.7-71.7l2.2,1.4c2,1.3,2.6,4,1.3,6l-43.3,68L-1950.1,503.9z"/>
		<polygon class="st10" points="-1956,500.1 -1944.2,507.7 -1951.7,512.8 -1958.8,517.6 -1957.4,509.1 		"/>
		<polygon class="st5" points="-1957.4,509.1 -1951.7,512.8 -1958.8,517.6 		"/>
		<path class="st11" d="M-1917.1,439.1l4.4-7c1.3-2,4-2.6,6-1.3l4.5,2.8c2,1.3,2.6,4,1.3,6l-4.4,7L-1917.1,439.1z"/>
		
			<rect x="-1919.5" y="442.5" transform="matrix(-0.8434 -0.5373 0.5373 -0.8434 -3764.5361 -207.4543)" class="st5" width="14" height="4.9"/>
		<path class="st12" d="M-1911.2,442.9l6.8-10.7l2.2,1.4c2,1.3,2.6,4,1.3,6l-4.4,7L-1911.2,442.9z"/>
	</g>
	<g>
		<path class="st13" d="M-2232.1,375.1l76.5-25.5c2.3-0.8,4.8,0.5,5.5,2.8l1.7,5c0.8,2.3-0.5,4.8-2.8,5.5l-76.5,25.5l-9.1-0.8
			l-8.5-0.7l6.4-5.7L-2232.1,375.1z"/>
		<path class="st14" d="M-2229.8,381.8l80.6-26.9l0.8,2.5c0.8,2.3-0.5,4.8-2.8,5.5l-76.5,25.5L-2229.8,381.8z"/>
		<polygon class="st10" points="-2232.1,375.1 -2227.6,388.4 -2236.7,387.6 -2245.2,386.9 -2238.8,381.2 		"/>
		<polygon class="st5" points="-2238.8,381.2 -2236.7,387.6 -2245.2,386.9 		"/>
		<path class="st8" d="M-2163.4,352.2l7.8-2.6c2.3-0.8,4.8,0.5,5.5,2.8l1.7,5c0.8,2.3-0.5,4.8-2.8,5.5l-7.8,2.6L-2163.4,352.2z"/>
		
			<rect x="-2170.5" y="357.2" transform="matrix(-0.3162 -0.9487 0.9487 -0.3162 -3188.8994 -1579.0952)" class="st5" width="14" height="4.9"/>
		<path class="st9" d="M-2161.2,358.9l12-4l0.8,2.5c0.8,2.3-0.5,4.8-2.8,5.5l-7.8,2.6L-2161.2,358.9z"/>
	</g>
	<g>
		<path class="st5" d="M93.2,13.2L39.6,31.5l9.5,27.3c19.8,2.8,39.7-4.1,53.5-18.6L93.2,13.2z"/>
		<g>
			<polygon class="st5" points="124.1,4.4 75.8,48.1 10.9,43.7 17.7,37.6 21.3,34.3 59.2,0 110.1,3.5 115,3.8 			"/>
		</g>
		<g>
			<polygon class="st15" points="115,3.8 73.5,41.4 17.7,37.6 21.3,34.3 59.2,0 110.1,3.5 			"/>
		</g>
	</g>
	<g>
		<g>
			<polygon class="st16" points="8.9,81.1 6.2,80.9 9.7,42.8 66.7,19.4 67.7,21.8 12.1,44.6 			"/>
		</g>
		<path class="st16" d="M8.9,66.9l-0.5-0.2C6.8,67.4,1.1,70.5,0,84.7l11.7,1.8C14.8,72.7,10.3,68,8.9,66.9z"/>
	</g>
	<g>
		<g>
			<path class="st17" d="M-1929.8,349.1c-1.6-3.1-0.4-6.9,2.6-8.5c3.1-1.6,6.9-0.4,8.5,2.6c1.6,3.1,0.4,6.9-2.6,8.5
				C-1924.4,353.4-1928.2,352.2-1929.8,349.1z M-1919.6,343.8c-1.3-2.6-4.5-3.6-7.1-2.2c-2.6,1.3-3.6,4.5-2.2,7.1
				c1.3,2.6,4.5,3.6,7.1,2.2C-1919.2,349.5-1918.2,346.3-1919.6,343.8z"/>
		</g>
		
			<rect x="-1966.4" y="360.8" transform="matrix(0.464 0.8858 -0.8858 0.464 -727.1337 1925.0934)" class="st2" width="24" height="1.8"/>
		<g>
			<g>
				<g>
					<polygon class="st17" points="-1981.8,391.6 -1986.8,396.7 -1980.9,392.7 -1975.7,388.4 -1976.6,387.3 					"/>
				</g>
				<g>
					<g>
						
							<rect x="-1985.9" y="368.5" transform="matrix(0.7707 -0.6372 0.6372 0.7707 -683.8999 -1159.493)" class="st5" width="65.6" height="4.1"/>
					</g>
				</g>
				<g>
					<g>
						<path class="st2" d="M-1969.6,389.2c-1.7,1.4-4.1,1.1-5.5-0.5c-1.4-1.7-1.1-4.1,0.5-5.5c1.7-1.4,4.1-1.1,5.5,0.5
							C-1967.7,385.4-1967.9,387.8-1969.6,389.2z"/>
					</g>
				</g>
				<g>
					<g>
						<g>
							<path class="st17" d="M-1970.6,387.9c-0.9,0.8-2.3,0.6-3.1-0.3c-0.8-0.9-0.6-2.3,0.3-3.1c0.9-0.8,2.3-0.6,3.1,0.3
								C-1969.5,385.7-1969.7,387.1-1970.6,387.9z"/>
						</g>
					</g>
				</g>
			</g>
			<g>
				<polygon class="st17" points="-1994.2,367.9 -2001.2,369.1 -1994.6,366.5 -1988.1,364.7 -1987.7,366 				"/>
			</g>
			<g>
				<g>
					<g>
						
							<rect x="-1993.3" y="354.2" transform="matrix(0.9627 -0.2707 0.2707 0.9627 -169.6775 -517.4894)" class="st5" width="65.6" height="4.1"/>
					</g>
				</g>
			</g>
			<g>
				
					<rect x="-1926.5" y="343.7" transform="matrix(0.8858 -0.464 0.464 0.8858 -379.1416 -851.9755)" class="st5" width="11.2" height="1.6"/>
			</g>
			<path class="st17" d="M-1959.5,364.4L-1959.5,364.4c-0.3-0.6-0.1-1.3,0.5-1.6l8.1-4.2c0.6-0.3,1.3-0.1,1.6,0.5l0,0
				c0.3,0.6,0.1,1.3-0.5,1.6l-8.1,4.2C-1958.5,365.2-1959.2,365-1959.5,364.4z"/>
		</g>
		<g>
			<path class="st2" d="M-1926,352.1c-2.1,1.1-4.7,0.3-5.9-1.8c-1.1-2.1-0.3-4.7,1.8-5.9c2.1-1.1,4.7-0.3,5.9,1.8
				C-1923.1,348.3-1923.9,351-1926,352.1z"/>
		</g>
		<g>
			<path class="st17" d="M-1926.9,350.4c-1.2,0.6-2.7,0.2-3.3-1c-0.6-1.2-0.2-2.7,1-3.3c1.2-0.6,2.7-0.2,3.3,1
				C-1925.3,348.3-1925.7,349.8-1926.9,350.4z"/>
		</g>
		<g>
			<path class="st2" d="M-1917.4,343.5l-0.7-1.3c-0.4-0.8-0.1-1.7,0.7-2.1l13.6-7.1c0.8-0.4,1.7-0.1,2.1,0.7l0.7,1.3
				c0.4,0.8,0.1,1.7-0.7,2.1l-13.6,7.1C-1916.1,344.6-1917,344.3-1917.4,343.5z"/>
		</g>
	</g>
	<g>
		<path class="st17" d="M-2054.2,542.4c0,0-8.1-19.6-24.1-21.4c-16-1.8-47.3,16.6-101.2,16.6l-10.6,16h135.9V542.4z"/>
		<path class="st2" d="M-2054.2,542.4c0,0,1.3-17.2-7.2-21.5c-10.6-5.4-49.9,6.2-96.9-26.5l-14.6,28.6c0,0,17.3,11.1,47.1,14.2
			C-2087.7,541.2-2072.1,518.7-2054.2,542.4z"/>
		<path class="st17" d="M-2054.2,542.4c0,0,8.1-19.6,24.1-21.4c16-1.8,47.3,16.6,101.2,16.6l10.6,16h-135.9V542.4z"/>
		<path class="st2" d="M-2054.2,540.1c0,0,3.9-19.6,19.9-21.7c16-2.1,52.4,12.6,62.6,13.7s40.4,2,40.4,2l5.6,8.3
			c0,0-35-0.3-45.6-1.5c-13.1-1.5-41.5-17.8-60.8-15.1c-19.3,2.7-21.5,16.6-21.5,16.6L-2054.2,540.1z"/>
		<g>
			<rect x="-2196.7" y="553.6" class="st18" width="287.6" height="8"/>
			<path class="st18" d="M-2044,568.2h-20.4c-5.8,0-10.6-4.7-10.6-10.6l0,0h41.5l0,0C-2033.5,563.4-2038.2,568.2-2044,568.2z"/>
			<path class="st19" d="M-2045.8,562.3h-16.8c-4.8,0-8.7-3.9-8.7-8.7l0,0l17.1-13.5l17.1,13.5l0,0
				C-2037.1,558.4-2041,562.3-2045.8,562.3z"/>
			<path class="st8" d="M-2037.1,553.6c0,1.9-0.6,3.7-1.7,5.1l-15.4-12.2l-15.4,12.2c-1-1.4-1.7-3.2-1.7-5.1l17.1-13.5
				L-2037.1,553.6z"/>
		</g>
	</g>
	<g>
		<g>
			<path class="st20" d="M-2172.7,340.2c-0.8,1.8-3,2.7-4.9,1.8l-8.5-3.9c-0.3-0.1-0.4-0.4-0.3-0.7c0.1-0.3,0.4-0.4,0.7-0.3l8.5,3.9
				c1.3,0.6,2.9,0,3.5-1.3c0.6-1.3,0-2.9-1.3-3.5l-9.8-4.5c-0.9-0.4-2,0-2.4,0.9c-0.4,0.9,0,2,0.9,2.4l8.1,3.7
				c0.5,0.2,1.2,0,1.4-0.5c0.2-0.5,0-1.2-0.5-1.4l-6-2.7c-0.3-0.1-0.4-0.4-0.3-0.7c0.1-0.3,0.4-0.4,0.7-0.3l6,2.7
				c1.1,0.5,1.5,1.7,1.1,2.8c-0.5,1.1-1.7,1.5-2.8,1.1l-8.1-3.7c-1.4-0.7-2.1-2.4-1.4-3.8c0.7-1.4,2.4-2.1,3.8-1.4l9.8,4.5
				C-2172.7,336.1-2171.9,338.3-2172.7,340.2z"/>
		</g>
		<g>
			<path class="st20" d="M-2186.1,413.9c0.2-0.1,0.4-0.2,0.6-0.3c2-1,3-2.3,2.8-3.5c-0.2-1.5-2-2.6-4.7-3.1c0.3-2.7-0.3-4.8-1.7-5.3
				c-1.4-0.6-3.2,0.5-4.9,2.7c-2.3-1.5-4.4-1.9-5.5-1c-1,0.8-1.1,2.4-0.4,4.5c0.1,0.2,0.1,0.4,0.2,0.6c-2.3,1-3.6,2.4-3.4,3.8
				c0.1,1.1,1,1.9,2.5,2.5c0.6,0.2,1.4,0.4,2.2,0.6c-0.3,2.7,0.3,4.8,1.7,5.3c1.4,0.6,3.2-0.5,4.9-2.7c0.7,0.4,1.3,0.8,2,1.1
				c1.5,0.6,2.7,0.6,3.6-0.1C-2185.1,418.1-2185.1,416.2-2186.1,413.9z M-2185.5,408.6c1.1,0.5,1.8,1,1.9,1.7
				c0.1,0.8-0.8,1.7-2.3,2.5c-0.2,0.1-0.3,0.2-0.5,0.3c-0.4-0.8-0.9-1.7-1.5-2.6c0.2-0.8,0.4-1.6,0.5-2.4
				C-2186.7,408.2-2186.1,408.3-2185.5,408.6z M-2192.5,414.6c-0.6,0.1-1.2,0.1-1.7,0.1c-0.4-0.4-0.8-0.8-1.2-1.3
				c-0.4-0.5-0.8-1-1.2-1.6c0.2-0.6,0.4-1.2,0.7-1.9c0.3-0.6,0.5-1.2,0.8-1.8c0.6-0.1,1.3-0.2,2-0.3c0.6-0.1,1.2-0.1,1.7-0.1
				c0.4,0.4,0.8,0.8,1.2,1.3c0.4,0.5,0.9,1,1.2,1.6c-0.2,0.6-0.4,1.2-0.7,1.9c-0.3,0.6-0.5,1.2-0.8,1.8
				C-2191.2,414.4-2191.8,414.5-2192.5,414.6z M-2191.2,415.4c-0.3,0.5-0.5,0.9-0.8,1.3c-0.4-0.3-0.9-0.7-1.3-1.1
				c0.3,0,0.6,0,0.9-0.1C-2192,415.5-2191.6,415.5-2191.2,415.4z M-2195.6,414.7c-0.6,0-1.1-0.1-1.7-0.1c0.1-0.5,0.2-1,0.3-1.5
				c0.3,0.3,0.5,0.7,0.8,1C-2196,414.3-2195.8,414.5-2195.6,414.7z M-2197.4,410.8c-0.4-0.6-0.7-1.2-1-1.8c0.6-0.2,1.2-0.4,1.9-0.6
				c-0.2,0.4-0.3,0.8-0.5,1.2C-2197.1,410-2197.2,410.4-2197.4,410.8z M-2194.6,407c0.3-0.5,0.5-0.9,0.8-1.3
				c0.4,0.3,0.9,0.7,1.3,1.1c-0.3,0-0.6,0-0.9,0.1C-2193.8,406.9-2194.2,407-2194.6,407z M-2190.1,407.7c0.6,0,1.1,0.1,1.7,0.1
				c-0.1,0.5-0.2,1-0.3,1.5c-0.3-0.3-0.5-0.7-0.8-1C-2189.7,408.2-2189.9,408-2190.1,407.7z M-2188.4,411.7c0.4,0.6,0.7,1.2,1,1.8
				c-0.6,0.2-1.2,0.4-1.9,0.6c0.2-0.4,0.3-0.8,0.5-1.2C-2188.7,412.4-2188.5,412.1-2188.4,411.7z M-2189.4,402.6
				c0.9,0.3,1.3,2,1.1,4.3c-0.9-0.1-1.8-0.1-2.8-0.1c-0.7-0.7-1.4-1.3-2.1-1.8C-2191.7,403.1-2190.3,402.2-2189.4,402.6z
				 M-2198.9,404.1c0.5-0.4,1.4-0.4,2.5,0.1c0.5,0.2,1.1,0.5,1.8,0.9c-0.4,0.6-0.9,1.4-1.3,2.1c-1.1,0.2-2,0.5-2.9,0.8
				c-0.1-0.2-0.1-0.4-0.2-0.6C-2199.5,405.9-2199.5,404.7-2198.9,404.1z M-2202.1,412.2c-0.1-0.9,1-1.9,2.8-2.8
				c0.4,0.8,0.9,1.7,1.5,2.6c-0.2,0.8-0.4,1.6-0.5,2.4C-2200.6,414-2202,413.2-2202.1,412.2z M-2196.3,419.9c-0.9-0.3-1.3-2-1.1-4.3
				c0.9,0.1,1.8,0.1,2.8,0.1c0.7,0.7,1.4,1.3,2.1,1.8C-2194,419.3-2195.4,420.2-2196.3,419.9z M-2186.9,418.3
				c-0.7,0.6-2.3,0.2-4.3-1c0.4-0.6,0.9-1.4,1.3-2.1c1-0.2,2-0.5,2.9-0.8C-2186.2,416.2-2186.2,417.7-2186.9,418.3z"/>
			<path class="st20" d="M-2192.2,409.4c-1-0.4-2.1,0.1-2.5,1.1c-0.4,1,0.1,2.1,1.1,2.5c1,0.4,2.1-0.1,2.5-1.1
				C-2190.7,410.9-2191.2,409.8-2192.2,409.4z"/>
		</g>
		<g>
			<path class="st20" d="M-1915.6,496.1c-0.8,2.6,0.5,5.2,2.8,6.4l-0.8,2.6c-1.2,0-2.3,0.8-2.7,1.9l5.7,1.7c0.3-1.2-0.2-2.4-1.2-3.1
				l0.8-2.6c2.6,0.3,5-1.3,5.8-3.8l2-6.8l-10.4-3.1L-1915.6,496.1z"/>
			<path class="st20" d="M-1910.2,509.3l-6.8-2c-0.3-0.1-0.6,0.1-0.7,0.4c-0.1,0.3,0.1,0.6,0.4,0.7l6.8,2c0.3,0.1,0.6-0.1,0.7-0.4
				C-1909.7,509.7-1909.9,509.4-1910.2,509.3z"/>
			<path class="st20" d="M-1918.9,492.1c-0.5,1.6,0.4,3.3,2,3.7l0.6,0.2l0.3-1.1l-0.6-0.2c-1-0.3-1.5-1.3-1.2-2.3
				c0.3-1,1.3-1.5,2.3-1.2l0.6,0.2l0.3-1.1l-0.6-0.2C-1916.8,489.6-1918.5,490.6-1918.9,492.1z"/>
			<path class="st20" d="M-1902.3,493.9l-0.6-0.2l-0.3,1.1l0.6,0.2c1,0.3,1.5,1.3,1.2,2.3c-0.3,1-1.3,1.5-2.3,1.2l-0.6-0.2l-0.3,1.1
				l0.6,0.2c1.6,0.5,3.3-0.4,3.7-2C-1899.8,496.1-1900.7,494.4-1902.3,493.9z"/>
		</g>
		<g>
			<path class="st20" d="M-1912.6,383.8l-1.9-3.4l-5.2,2.9l1.9,3.4c-0.8,1.6-0.8,3.5,0.1,5.1c1.5,2.6,4.8,3.5,7.3,2
				c2.6-1.5,3.5-4.8,2-7.3C-1909.2,384.8-1910.8,383.9-1912.6,383.8z M-1911.1,392.4c-1.8,1-4.1,0.4-5.1-1.4c0,0,0,0,0,0l6.5-3.7
				c0,0,0,0,0,0C-1908.7,389.1-1909.3,391.3-1911.1,392.4z"/>
			<path class="st20" d="M-1920.1,382.4l5.1-2.9c0.5-0.3,0.7-0.9,0.4-1.4c-0.3-0.5-0.9-0.7-1.4-0.4l-5.1,2.9
				c-0.5,0.3-0.7,0.9-0.4,1.4C-1921.3,382.5-1920.6,382.7-1920.1,382.4z"/>
		</g>
		<g>
			<path class="st20" d="M-2014.3,351.7c1.3-1.5,1.4-3.7,0-5.3c-0.4-0.5-1-0.9-1.5-1.1l-0.3-1.7c-0.2-1-1-1.8-2-1.9l-6.7-0.5
				c-1-0.1-1.9,0.5-2.2,1.5l-0.6,1.8c-0.6,0.2-1.1,0.4-1.6,0.8c-1.5,1.3-1.8,3.6-0.7,5.2l2.5-2.1l0.6,0.6c-2,2.2-2.2,5.4-0.6,7.8
				l-1.2,1c-0.3,0.3-0.3,0.7-0.1,1c0.3,0.3,0.7,0.3,1,0.1l1.2-1c2.2,2,5.4,2.2,7.8,0.6l1.2,1.3c0.3,0.3,0.7,0.3,1,0.1
				c0.3-0.3,0.3-0.7,0.1-1l-1.1-1.3c2-2.2,2.2-5.4,0.6-7.9l0.7-0.6L-2014.3,351.7z M-2017.9,352.3l-4.1,2.1
				c-0.1,0.1-0.2,0.1-0.4,0.1c-0.2,0-0.3-0.1-0.5-0.2l-2.9-3c-0.3-0.3-0.3-0.7,0-1c0.3-0.3,0.7-0.3,1,0l2.5,2.6l3.6-1.9
				c0.3-0.2,0.8,0,0.9,0.3C-2017.5,351.7-2017.6,352.1-2017.9,352.3z M-2019.5,345.7l2.1,2.5l-0.7,0.6c-0.9-0.8-1.9-1.3-3-1.5
				l0.1-0.9c0-0.5-0.3-0.9-0.8-0.9c-0.5,0-0.9,0.3-0.9,0.8l-0.1,0.9c-1.1,0.1-2.2,0.4-3.2,1.1l-0.6-0.6l2.5-2.1
				c-0.8-0.7-1.7-1-2.7-1l0.4-1.3c0.2-0.6,0.7-0.9,1.3-0.9l6.7,0.5c0.6,0,1.1,0.5,1.2,1.1l0.2,1.3
				C-2017.7,344.9-2018.7,345.1-2019.5,345.7z"/>
			<g>
				<path class="st20" d="M-2013.4,343.6c-0.5-0.3-1,0.4-0.5,0.8c1.3,0.9,2.1,2.3,2,3.9c0,0.6,0.9,0.7,0.9,0.1
					C-2011,346.4-2011.8,344.6-2013.4,343.6z"/>
				<path class="st20" d="M-2011.6,342.4c-0.5-0.3-1,0.4-0.5,0.8c1.3,0.9,2.1,2.3,2,3.9c0,0.6,0.9,0.7,0.9,0.1
					C-2009.1,345.2-2010,343.4-2011.6,342.4z"/>
			</g>
			<g>
				<path class="st20" d="M-2030,342.4c0.5-0.3,0.9,0.6,0.4,0.8c-1.4,0.7-2.4,2-2.5,3.6c-0.1,0.6-1,0.5-0.9-0.1
					C-2032.9,344.8-2031.8,343.2-2030,342.4z"/>
				<path class="st20" d="M-2031.7,341c0.5-0.3,0.9,0.6,0.4,0.8c-1.4,0.7-2.4,2-2.5,3.6c-0.1,0.6-1,0.5-0.9-0.1
					C-2034.5,343.4-2033.4,341.8-2031.7,341z"/>
			</g>
		</g>
		<g>
			<g>
				<path class="st20" d="M-2115.2,344.8l0.3,1.5l-3.8,0.8l0.3,1.3l3.4-0.8l0.3,1.5l-3.4,0.8l0.3,1.3l3.9-0.9l0.3,1.5l-5.8,1.3
					l-1.6-7.2L-2115.2,344.8z"/>
				<path class="st20" d="M-2109.3,345.7l0.3,1.2l-4.6,1l-0.3-1.2L-2109.3,345.7z M-2108.8,347.9l0.3,1.2l-4.6,1l-0.3-1.2
					L-2108.8,347.9z"/>
				<path class="st20" d="M-2098.6,345l0.8,3.5l-1.8,0.4l-0.7-3c-0.1-0.6-0.6-0.9-1.1-0.8c-0.6,0.2-0.9,0.8-0.8,1.5l0.6,2.7
					l-1.8,0.4l-0.7-3c-0.1-0.6-0.6-0.9-1.1-0.8c-0.6,0.2-0.9,0.8-0.8,1.5l0.6,2.7l-1.8,0.4l-1.2-5.5l1.8-0.4l0.2,0.9
					c0.2-0.7,0.8-1.2,1.6-1.4c0.9-0.2,1.7,0.1,2.1,0.8c0.2-0.9,0.8-1.5,1.7-1.7C-2099.8,343-2098.9,343.7-2098.6,345z"/>
				<path class="st20" d="M-2095,343.5c-0.7,0.1-1,0.8-0.8,1.6c0.2,0.8,0.7,1.2,1.4,1.1c0.5-0.1,0.8-0.4,0.9-0.9l1.5,0.5
					c-0.3,0.9-1,1.6-2.2,1.9c-1.7,0.4-3.1-0.5-3.5-2.2c-0.4-1.7,0.5-3.1,2.2-3.5c1.1-0.2,2.1,0,2.8,0.8l-1.1,1.1
					C-2094.1,343.6-2094.5,343.4-2095,343.5z"/>
			</g>
			<g>
				<path class="st20" d="M-2090.5,339.6c0-0.2-0.2-0.3-0.5-0.2c-0.3,0.1-0.7,0.4-1,0.8l-0.6-0.7c0.4-0.5,1-0.9,1.6-1
					c0.8-0.2,1.5,0.1,1.7,0.8c0.1,0.4-0.1,1-0.5,1.5l-0.7,1l1.8-0.4l0.2,0.9l-3.1,0.7l-0.2-0.7l1.2-1.9
					C-2090.6,340.1-2090.5,339.8-2090.5,339.6z"/>
			</g>
		</g>
		<g>
			<path class="st20" d="M-2155,462.2c-2.2,1.2-3.6,3.6-3.8,6.1c-0.2,2.5,0.8,5,2.6,6.8c1.1,1.1,2.4,1.9,3.8,2.5
				c3.8,1.6,8.9,1.9,12.4-0.6c1.1-0.8,2.2-2,2.1-3.5c-0.1-1.6-1.5-1.9-2.7-2.5c-1.1-0.5-1.8-1.6-2.4-2.6c-1.3-2.3-2.5-4.8-4.7-6.2
				c-1.4-0.9-3.1-1.2-4.8-0.9C-2153.5,461.5-2154.3,461.8-2155,462.2z M-2148.7,477.4c-0.8,0.3-1.7,0-2.1-0.8
				c-0.3-0.8,0-1.7,0.8-2.1c0.8-0.3,1.7,0,2.1,0.8C-2147.5,476.1-2147.9,477.1-2148.7,477.4z M-2143.1,472.7
				c0.2,0.6-0.1,1.3-0.7,1.5c-0.6,0.2-1.3-0.1-1.5-0.7c-0.2-0.6,0.1-1.3,0.7-1.5S-2143.3,472.1-2143.1,472.7z M-2152.3,473
				c0.3,0.8,0,1.7-0.8,2.1c-0.8,0.3-1.7,0-2.1-0.8c-0.3-0.8,0-1.7,0.8-2.1C-2153.6,471.8-2152.7,472.2-2152.3,473z M-2155.6,471.1
				c-0.8,0.3-1.7,0-2.1-0.8s0-1.7,0.8-2.1c0.8-0.3,1.7,0,2.1,0.8C-2154.4,469.8-2154.8,470.7-2155.6,471.1z M-2148.5,465.5
				c0.3,0.8,0,1.7-0.8,2.1c-0.8,0.3-1.7,0-2.1-0.8c-0.3-0.8,0-1.7,0.8-2.1C-2149.8,464.3-2148.8,464.7-2148.5,465.5z M-2153.1,464.7
				c0.3,0.8,0,1.7-0.8,2.1c-0.8,0.3-1.7,0-2.1-0.8c-0.3-0.8,0-1.7,0.8-2.1C-2154.4,463.5-2153.4,463.9-2153.1,464.7z"/>
			<path class="st20" d="M-2164.7,478.2C-2164.7,478.2-2164.7,478.2-2164.7,478.2C-2164.7,478.2-2164.7,478.3-2164.7,478.2
				c0,0.1,0.1,0.1,0.1,0.1c0,0,0,0,0,0c0,0,0.1,0.1,0.1,0.1c0,0,0.1,0,0.1,0c0,0,0.1,0,0.1,0c0,0,0.1,0,0.1,0.1c0,0,0,0,0,0
				c2.3,1.1,11.5,4.1,17.3,5.7l0,0c0.1,0,0.3,0.1,0.4,0.1c0,0,0,0,0,0c0.4,0.1,0.9,0.2,1.4,0.4c0.3,0.1,0.6,0.1,0.9,0.2
				c0.1,0,0.2,0,0.3,0.1c0.3,0.1,0.6,0.1,0.8,0.2c0.2,0,0.3,0,0.5,0.1c0,0,0,0,0,0c0.2,0.4,0.5,0.8,1.1,0.9c0.1,0,0.2,0,0.3,0
				c0.4,0,0.8-0.2,1.3-0.2c0.7-0.1,1.2,0.1,1.7,0.4c0,0,0.1,0,0.1,0.1c0.1,0.1,0.1,0.1,0.2,0.2c-0.1-0.6-0.4-1.2-0.8-1.8
				c-0.4-0.5-1-1-1.6-1.3c-0.5-0.2-1-0.2-1.4,0c-0.1,0-0.2,0.1-0.3,0.2c-0.3-0.1-0.8-0.3-1.3-0.5c-0.9-0.3-1.9-0.7-2.6-0.9
				C-2152.5,480.5-2164.5,477.6-2164.7,478.2z"/>
		</g>
	</g>
	<polygon class="st2" points="-2207.8,312.4 -2209.8,314.6 -2209.1,317.4 -2211.8,316.2 -2214.3,317.8 -2214,314.9 -2216.3,312.9 
		-2213.4,312.3 -2212.2,309.6 -2210.8,312.1 	"/>
	<polygon class="st2" points="-2135.5,436.6 -2137.4,438.8 -2136.7,441.7 -2139.4,440.5 -2141.9,442 -2141.6,439.1 -2143.9,437.2 
		-2141,436.6 -2139.9,433.8 -2138.4,436.4 	"/>
	<polygon class="st2" points="-2056.3,349.9 -2059.2,350.5 -2060.3,353.2 -2061.8,350.6 -2064.7,350.3 -2062.7,348.2 -2063.4,345.3 
		-2060.7,346.5 -2058.1,345 -2058.5,347.9 	"/>
	<polygon class="st2" points="-1902.4,316.2 -1905.3,316.8 -1906.5,319.5 -1907.9,316.9 -1910.9,316.6 -1908.9,314.5 -1909.5,311.6 
		-1906.9,312.8 -1904.3,311.3 -1904.7,314.2 	"/>
	<polygon class="st2" points="-1932.5,415.5 -1935.4,416.1 -1936.6,418.8 -1938,416.2 -1940.9,415.9 -1938.9,413.8 -1939.6,410.9 
		-1936.9,412.1 -1934.4,410.6 -1934.7,413.5 	"/>
	<polygon class="st2" points="-1900.4,531.1 -1903.3,531.7 -1904.5,534.4 -1905.9,531.8 -1908.8,531.5 -1906.8,529.4 -1907.5,526.5 
		-1904.8,527.7 -1902.3,526.2 -1902.6,529.1 	"/>
	<polygon class="st2" points="-2232.2,416.2 -2235.1,416.8 -2236.2,419.5 -2237.7,416.9 -2240.6,416.6 -2238.6,414.5 -2239.3,411.6 
		-2236.6,412.8 -2234.1,411.3 -2234.4,414.3 	"/>
	<g>
		<path class="st11" d="M-2008.7,396.3l-5.5,1l-4.4-3.4c-2.6-2.1-6.1-2.9-9.3-1.9c-3.8,1.2-8.2,5-10.3,15.5
			c-4.2,21,15.3,24.2,15.3,24.2s18.7,6.4,25-14.1c3.1-10.3,1.1-15.7-1.7-18.6C-2002,396.6-2005.4,395.7-2008.7,396.3z"/>
		<path class="st12" d="M-2017,432.6c-3.4-0.1-5.9-0.9-5.9-0.9s-19.5-3.2-15.3-24.2c2.1-10.5,6.5-14.3,10.3-15.5
			c3.2-1,6.7-0.2,9.3,1.9l1.6,1.2c-3.7,1.4-7.7,5.4-9.7,15.3C-2029.4,423.7-2022.4,429.9-2017,432.6z"/>
		<g>
			<path class="st5" d="M-2005.1,390c-6.6,0.3-11.8,5-12.7,11.6c-0.3,2.1,2.9,2.8,3.2,0.7c0.7-5.1,4.4-8.8,9.6-9
				C-2002.9,393.1-2003,389.9-2005.1,390z"/>
			<path class="st21" d="M-2017.7,385.9c3.1,5.2,0.7,12.4,0.7,12.4s-7.5-1.3-10.6-6.5c-3.1-5.2-0.7-12.4-0.7-12.4
				S-2020.8,380.7-2017.7,385.9z"/>
		</g>
	</g>
	<g>
		<g>
			<path class="st18" d="M-1964,440.7c-3.2,0.8-13.7,6.3-19.3,9.7c-29,17.4-80.1,50.9-78.6,53.5c1.5,2.6,55.2-26.8,84.2-44.2
				c5.6-3.4,15.4-9.9,17.6-12.5L-1964,440.7z"/>
			<path class="st2" d="M-1977.7,459.7c5.6-3.4,15.4-9.9,17.6-12.5l-3.9-6.5c-3.2,0.8-13.7,6.3-19.3,9.7c-0.6,0.4-1.3,0.8-1.9,1.2
				l5.6,9.2C-1979,460.4-1978.3,460.1-1977.7,459.7z"/>
			<path class="st19" d="M-2056.6,502.5c-3.1,1.3-5,1.9-5.3,1.4c-1.5-2.6,49.6-36.1,78.6-53.5c5.6-3.4,16.1-8.9,19.3-9.7l1.6,2.6
				c-3.2,0.8-13.7,6.3-19.3,9.7C-2005.5,467.3-2044.4,492.6-2056.6,502.5z"/>
			<path class="st17" d="M-1962.4,443.3c-3.2,0.8-13.7,6.3-19.3,9.7c-0.6,0.4-1.3,0.8-1.9,1.2l-1.6-2.6c0.6-0.4,1.3-0.8,1.9-1.2
				c5.6-3.4,16.1-8.9,19.3-9.7L-1962.4,443.3z"/>
		</g>
		<path class="st5" d="M-1964.4,445.2c-0.9-1.6-1.1-3.6-0.4-5.7c0.8-2.2,2.8-3.9,5-5c3.2-1.6,6.8-2,10.1-1.6
			c3.3,0.4,6.4,1.6,9.1,3.2c-0.4,0-0.9,0.1-1.3,0.2c-0.2,0-0.4,0.1-0.5,0.1c-3.1,0.6-5.7,1.9-7.4,4.8c-1.1,1.8-1.9,3.7-3.4,5.3
			c-0.3,0.4-0.7,0.7-1.2,1C-1958.1,450.1-1962.6,448.5-1964.4,445.2z"/>
	</g>
	<g>
		<path class="st9" d="M-2244.5,309.1l20.8,39c0.6,1.1,0.2,2.5-0.9,3.1l-5.8,3.1c-1.1,0.6-2.5,0.2-3.1-0.9l-20.8-39
			c-0.6-1.1-0.2-2.5,0.9-3.1l5.8-3.1C-2246.5,307.6-2245.1,308-2244.5,309.1z"/>
		<path class="st8" d="M-2253.4,311.3c-1.1,0.6-1.5,2-0.9,3.1l20.7,39c0.6,1.1,2,1.5,3.1,0.9l2.9-1.6l-22.9-43L-2253.4,311.3z"/>
		<g>
			<path class="st9" d="M-2255.4,300.5L-2255.4,300.5c-0.9,0.5-1.4,1.4-1.2,2.4l0.2,1.8c0.2,1.5,0.6,2.9,1.3,4.3l1.4,2.7l3.2-1.7
				l3.2-1.7l-1.4-2.7c-0.7-1.3-1.7-2.5-2.8-3.5l-1.3-1.2C-2253.4,300.2-2254.5,300.1-2255.4,300.5z"/>
			<path class="st8" d="M-2253.3,300.4c-0.1,0.2-0.1,0.5,0,0.7l0.2,1.8c0.2,1.5,0.6,2.9,1.3,4.3l1.4,2.7l-3.3,1.7l-1.4-2.7
				c-0.7-1.3-1.2-2.8-1.3-4.3l-0.2-1.8c-0.1-1,0.4-1.9,1.2-2.4l0,0C-2254.7,300.2-2254,300.2-2253.3,300.4z"/>
		</g>
		<g>
			<g>
				
					<rect x="-2254" y="312.6" transform="matrix(0.8826 -0.4701 0.4701 0.8826 -411.4359 -1020.1876)" class="st5" width="11.2" height="2.3"/>
				
					<rect x="-2251.8" y="316.7" transform="matrix(0.8826 -0.4701 0.4701 0.8826 -413.1274 -1018.7186)" class="st5" width="11.2" height="2.3"/>
				<path class="st5" d="M-2236.8,329.3c2,3.8,2.5,7.4,1.1,8.2s-4.1-1.7-6.1-5.5c-2-3.8-2.5-7.4-1.1-8.2
					C-2241.6,323.1-2238.8,325.6-2236.8,329.3z"/>
			</g>
			<g>
				
					<rect x="-2237.6" y="343.2" transform="matrix(0.8826 -0.4701 0.4701 0.8826 -423.9164 -1008.9189)" class="st5" width="11.2" height="2.3"/>
				
					<rect x="-2235.5" y="347.3" transform="matrix(0.8826 -0.4701 0.4701 0.8826 -425.5854 -1007.4189)" class="st5" width="11.2" height="2.3"/>
			</g>
		</g>
	</g>
	<g>
		<path class="st21" d="M-2058.6,469.7l-29.3,33c-0.8,0.9-2.3,1-3.2,0.2l-4.9-4.4c-0.9-0.8-1-2.3-0.2-3.2l29.3-33
			c0.8-0.9,2.3-1,3.2-0.2l4.9,4.4C-2057.8,467.3-2057.7,468.7-2058.6,469.7z"/>
		<path class="st6" d="M-2063.7,462.1c-0.9-0.8-2.4-0.8-3.2,0.2l-29.3,33c-0.8,0.9-0.8,2.4,0.2,3.2l2.5,2.2l32.3-36.4L-2063.7,462.1
			z"/>
		<g>
			<path class="st21" d="M-2054.3,456.5L-2054.3,456.5c-0.7-0.7-1.8-0.8-2.7-0.3l-1.6,0.8c-1.3,0.7-2.5,1.6-3.5,2.7l-2,2.3l2.7,2.4
				l2.7,2.4l2-2.3c1-1.1,1.8-2.4,2.3-3.8l0.6-1.7C-2053.3,458.2-2053.6,457.1-2054.3,456.5z"/>
			<path class="st6" d="M-2053.5,458.3c-0.2,0-0.5,0.1-0.7,0.2l-1.6,0.8c-1.3,0.7-2.5,1.6-3.5,2.7l-2,2.3l-2.8-2.4l2-2.3
				c1-1.1,2.2-2.1,3.5-2.7l1.6-0.8c0.9-0.5,1.9-0.3,2.7,0.3l0,0C-2053.8,457-2053.5,457.7-2053.5,458.3z"/>
		</g>
		<g>
			<g>
				
					<rect x="-2065.4" y="462" transform="matrix(0.6643 -0.7475 0.7475 0.6643 -1042.4838 -1385.958)" class="st5" width="2.3" height="11.2"/>
				
					<rect x="-2068.4" y="465.5" transform="matrix(0.6643 -0.7475 0.7475 0.6643 -1046.1044 -1387.0958)" class="st5" width="2.3" height="11.2"/>
				<path class="st5" d="M-2074.9,483.9c-2.8,3.2-6.1,4.9-7.3,3.9c-1.2-1,0.2-4.5,3-7.7c2.8-3.2,6.1-4.9,7.3-3.9
					C-2070.7,477.2-2072.1,480.7-2074.9,483.9z"/>
			</g>
			<g>
				
					<rect x="-2088.4" y="488" transform="matrix(0.6643 -0.7474 0.7474 0.6643 -1069.5397 -1394.4452)" class="st5" width="2.3" height="11.2"/>
				
					<rect x="-2091.5" y="491.4" transform="matrix(0.6644 -0.7474 0.7474 0.6644 -1073.1047 -1395.5532)" class="st5" width="2.3" height="11.2"/>
			</g>
		</g>
	</g>
	<g>
		<path class="st12" d="M-2079.5,450l-42.4,12.2c-1.2,0.3-2.5-0.3-2.8-1.6l-1.8-6.4c-0.3-1.2,0.3-2.5,1.5-2.8l42.4-12.2
			c1.2-0.3,2.5,0.3,2.8,1.6l1.8,6.4C-2077.6,448.4-2078.3,449.7-2079.5,450z"/>
		<path class="st11" d="M-2079.8,440.9c-0.3-1.2-1.6-1.9-2.8-1.6l-42.4,12.2c-1.2,0.3-1.9,1.6-1.6,2.8l0.9,3.2l46.8-13.5
			L-2079.8,440.9z"/>
		<g>
			<path class="st12" d="M-2068.9,441.2L-2068.9,441.2c-0.3-0.9-1.1-1.6-2.1-1.7l-1.8-0.2c-1.5-0.1-3,0-4.5,0.4l-2.9,0.8l1,3.5
				l1,3.5l2.9-0.8c1.4-0.4,2.8-1.1,4-2l1.4-1.1C-2068.9,443.1-2068.6,442.1-2068.9,441.2z"/>
			<path class="st11" d="M-2069.2,443.2c-0.2-0.1-0.5-0.2-0.7-0.2l-1.8-0.1c-1.5-0.1-3,0-4.5,0.4l-2.9,0.8l-1-3.5l2.9-0.8
				c1.4-0.4,3-0.6,4.5-0.4l1.8,0.2c1,0.1,1.8,0.8,2.1,1.7l0,0C-2068.7,441.9-2068.8,442.6-2069.2,443.2z"/>
		</g>
		<g>
			<g>
				
					<rect x="-2084.3" y="439.7" transform="matrix(0.961 -0.2765 0.2765 0.961 -204.3407 -558.6537)" class="st5" width="2.3" height="11.2"/>
				
					<rect x="-2088.8" y="441" transform="matrix(0.961 -0.2765 0.2765 0.961 -204.8684 -559.8345)" class="st5" width="2.3" height="11.2"/>
				<path class="st5" d="M-2100.9,453.3c-4.1,1.2-7.8,0.9-8.2-0.6c-0.4-1.5,2.6-3.7,6.7-4.9c4.1-1.2,7.8-0.9,8.2,0.6
					C-2093.8,450-2096.8,452.1-2100.9,453.3z"/>
			</g>
			<g>
				
					<rect x="-2117.7" y="449.3" transform="matrix(0.961 -0.2765 0.2765 0.961 -208.2688 -567.4539)" class="st5" width="2.3" height="11.2"/>
				
					<rect x="-2122.1" y="450.6" transform="matrix(0.961 -0.2765 0.2765 0.961 -208.7964 -568.6346)" class="st5" width="2.3" height="11.2"/>
			</g>
		</g>
	</g>
</g>
<g id="DESIGNED_BY_FREEPIK">
	<g>
		<g id="XMLID_5_">
			<g id="XMLID_48_">
				<path id="XMLID_56_" class="st22" d="M-2168.1,682.6c-0.4,0.4-0.8,0.9-1.1,1.5l-0.5-0.2c-0.1-0.3-0.3-0.5-0.7-0.5
					c-0.3,0-0.6,0.3-0.5,0.7c0,0.3,0.3,0.6,0.7,0.5c0.1,0,0.1,0,0.2-0.1l0.5,0.2c-0.3,0.6-0.4,1.1-0.5,1.7l0.7,0.1
					c0.2-1.3,0.8-2.5,1.8-3.5L-2168.1,682.6z"/>
				<path id="XMLID_55_" class="st22" d="M-2162.6,680.3c-0.2,0-0.3,0-0.5,0l-0.1-0.6c0.2-0.1,0.3-0.4,0.3-0.6
					c0-0.4-0.4-0.7-0.8-0.6c-0.4,0-0.7,0.4-0.6,0.8c0,0.3,0.2,0.5,0.4,0.6l0.1,0.6c-0.7,0.1-1.4,0.3-2.1,0.6l0.3,0.7
					c0.9-0.4,1.9-0.7,3-0.7c0.5,0,1,0.1,1.5,0.2l0.2-0.7C-2161.5,680.4-2162,680.3-2162.6,680.3z"/>
				<path id="XMLID_54_" class="st22" d="M-2156,682.8c0.3,0,0.6-0.3,0.5-0.7c0-0.3-0.3-0.6-0.7-0.5c-0.3,0-0.5,0.3-0.5,0.6
					l-0.4,0.4c-0.4-0.4-0.9-0.8-1.4-1.1l-0.4,0.6c1.1,0.7,2,1.7,2.6,2.9l0.7-0.3c-0.3-0.6-0.6-1.1-0.9-1.5l0.4-0.4
					C-2156.1,682.8-2156,682.9-2156,682.8z"/>
				<path id="XMLID_53_" class="st22" d="M-2163.1,690.5c-0.4,0-0.8,0-1.2,0c-0.9,0-1.7-0.1-2.5-0.2c-0.4-0.1-0.8-0.2-1.3-0.3
					c1,1.9,3.1,3.1,5.4,3.1c2.9,0,5.3-1.9,5.9-4.5c-0.7,0.4-1.5,0.8-2.5,1.1C-2160.3,690.2-2161.7,690.4-2163.1,690.5z"/>
				<path id="XMLID_49_" class="st22" d="M-2162.6,681.8c-3.4,0-6.1,2.7-6.1,5.9c0,0.4,0,0.8,0.1,1.3c0.7,0.5,2.7,0.9,5.3,0.7
					c2.9-0.2,5.3-1,6.7-2.2c0-0.2,0-0.4,0-0.6C-2156.9,684-2159.5,681.8-2162.6,681.8z M-2164.7,688.3c-1,0-1.8-0.8-1.8-1.8
					c0-1,0.8-1.8,1.8-1.8c1,0,1.8,0.8,1.8,1.8C-2162.9,687.5-2163.7,688.3-2164.7,688.3z M-2160,687.4c-0.8,0-1.4-0.6-1.4-1.4
					s0.6-1.4,1.4-1.4s1.4,0.6,1.4,1.4S-2159.2,687.4-2160,687.4z"/>
			</g>
			<path id="XMLID_46_" class="st22" d="M-2146.6,683.7c-0.3-0.1-0.8-0.3-1.4-0.2c-0.6,0.1-0.8,0.3-0.8,1v0.9h2.2v1.7h-2.2v5.5h-1.9
				V687h-1.3v-1.7h1.3v-0.9c0-1.7,0.9-2.8,2.6-2.8c0.6,0,1.2,0.1,1.6,0.3V683.7z"/>
			<path id="XMLID_44_" class="st22" d="M-2141.9,687c-0.2,0-0.4,0-0.5,0c-0.9,0-1.5,0.5-1.5,1.6v3.9h-1.9v-7.2h1.9v0.8
				c0.5-0.7,1.1-1,2-1c0.4,0,0.8,0.1,1.1,0.3L-2141.9,687z"/>
			<path id="XMLID_41_" class="st22" d="M-2134.2,688.9c0,0.2,0,0.5,0,0.7h-5.1c0.2,1,0.9,1.5,1.8,1.5c0.6,0,1.3-0.3,1.8-0.7
				l1.1,1.2c-0.8,0.7-1.9,1.1-3.1,1.1c-2.2,0-3.7-1.5-3.7-3.8c0-2.3,1.5-3.8,3.6-3.8C-2135.6,685.1-2134.2,686.7-2134.2,688.9z
				 M-2139.3,688.2h3.2c-0.2-0.9-0.7-1.4-1.6-1.4C-2138.6,686.8-2139.1,687.3-2139.3,688.2z"/>
			<path id="XMLID_38_" class="st22" d="M-2126.5,688.9c0,0.2,0,0.5,0,0.7h-5.1c0.2,1,0.9,1.5,1.8,1.5c0.6,0,1.3-0.3,1.8-0.7
				l1.1,1.2c-0.8,0.7-1.9,1.1-3.1,1.1c-2.2,0-3.7-1.5-3.7-3.8c0-2.3,1.5-3.8,3.6-3.8C-2128,685.1-2126.6,686.7-2126.5,688.9z
				 M-2131.7,688.2h3.2c-0.2-0.9-0.7-1.4-1.6-1.4C-2131,686.8-2131.5,687.3-2131.7,688.2z"/>
			<path id="XMLID_35_" class="st22" d="M-2118.2,688.9c0,2.2-1.5,3.8-3.5,3.8c-1,0-1.6-0.4-2.1-0.9v3.7h-1.9v-10.1h1.9v0.8
				c0.5-0.6,1.2-1,2.1-1C-2119.7,685.1-2118.2,686.7-2118.2,688.9z M-2123.9,688.9c0,1.1,0.7,2,1.8,2c1.1,0,1.9-0.9,1.9-2
				c0-1.1-0.7-2-1.9-2C-2123.1,686.9-2123.9,687.8-2123.9,688.9z"/>
			<path id="XMLID_32_" class="st22" d="M-2115.1,683c0,0.7-0.5,1.2-1.2,1.2c-0.7,0-1.2-0.5-1.2-1.2c0-0.7,0.5-1.2,1.2-1.2
				C-2115.6,681.7-2115.1,682.3-2115.1,683z M-2115.4,692.5h-1.9v-7.2h1.9V692.5z"/>
			<path id="XMLID_30_" class="st22" d="M-2112.1,687.9l2.7-2.6h2.4l-3.5,3.4l3.5,3.8h-2.4l-2.7-2.9v2.9h-1.9v-10.7h1.9V687.9z"/>
		</g>
		<g>
			<path class="st22" d="M-2243.8,692.4v-1.1c-0.5,0.7-1.4,1.2-2.4,1.2c-1.8,0-3.1-1.4-3.1-3.7c0-2.3,1.3-3.7,3.1-3.7
				c1,0,1.8,0.5,2.4,1.2v-3.8h1.1v9.8H-2243.8z M-2243.8,690.5v-3.2c-0.4-0.6-1.2-1.1-2.1-1.1c-1.4,0-2.3,1.2-2.3,2.7
				c0,1.6,0.8,2.7,2.3,2.7C-2245,691.6-2244.1,691.1-2243.8,690.5z"/>
			<path class="st22" d="M-2241.2,688.9c0-2.1,1.5-3.7,3.5-3.7c2.1,0,3.4,1.7,3.4,3.8v0.3h-5.7c0.1,1.3,1,2.4,2.5,2.4
				c0.8,0,1.6-0.3,2.2-0.9l0.5,0.7c-0.7,0.7-1.7,1.1-2.8,1.1C-2239.7,692.6-2241.2,691.1-2241.2,688.9z M-2237.8,686.1
				c-1.5,0-2.3,1.3-2.3,2.4h4.6C-2235.4,687.4-2236.2,686.1-2237.8,686.1z"/>
			<path class="st22" d="M-2233.6,691.5l0.6-0.8c0.5,0.5,1.4,1,2.3,1c1.1,0,1.7-0.5,1.7-1.2c0-1.7-4.4-0.7-4.4-3.3c0-1.1,1-2,2.6-2
				c1.2,0,2.1,0.5,2.6,1l-0.5,0.8c-0.4-0.5-1.2-0.9-2.1-0.9c-1,0-1.6,0.5-1.6,1.1c0,1.6,4.4,0.5,4.4,3.3c0,1.2-1,2.1-2.8,2.1
				C-2231.9,692.6-2232.8,692.2-2233.6,691.5z"/>
			<path class="st22" d="M-2226.7,683.6c0-0.4,0.3-0.7,0.7-0.7c0.4,0,0.7,0.3,0.7,0.7s-0.3,0.7-0.7,0.7
				C-2226.4,684.3-2226.7,684-2226.7,683.6z M-2226.5,692.4v-7.1h1.1v7.1H-2226.5z"/>
			<path class="st22" d="M-2223.6,694.2l0.6-0.8c0.6,0.7,1.3,1,2.3,1c1.2,0,2.3-0.6,2.3-2.1v-1c-0.5,0.7-1.4,1.3-2.4,1.3
				c-1.8,0-3.1-1.4-3.1-3.7c0-2.3,1.3-3.7,3.1-3.7c1,0,1.8,0.5,2.4,1.2v-1.1h1.1v6.9c0,2.3-1.6,3.1-3.4,3.1
				C-2221.9,695.3-2222.7,695.1-2223.6,694.2z M-2218.5,690.4v-3.1c-0.4-0.6-1.2-1.1-2.1-1.1c-1.4,0-2.3,1.1-2.3,2.7
				c0,1.6,0.8,2.7,2.3,2.7C-2219.7,691.5-2218.8,691-2218.5,690.4z"/>
			<path class="st22" d="M-2210.8,692.4v-4.6c0-1.2-0.6-1.6-1.6-1.6c-0.9,0-1.7,0.5-2.1,1.1v5.2h-1.1v-7.1h1.1v1
				c0.5-0.6,1.5-1.2,2.5-1.2c1.5,0,2.3,0.7,2.3,2.3v5H-2210.8z"/>
			<path class="st22" d="M-2208.2,688.9c0-2.1,1.5-3.7,3.5-3.7c2.1,0,3.4,1.7,3.4,3.8v0.3h-5.7c0.1,1.3,1,2.4,2.5,2.4
				c0.8,0,1.6-0.3,2.2-0.9l0.5,0.7c-0.7,0.7-1.7,1.1-2.8,1.1C-2206.7,692.6-2208.2,691.1-2208.2,688.9z M-2204.8,686.1
				c-1.5,0-2.3,1.3-2.3,2.4h4.6C-2202.4,687.4-2203.2,686.1-2204.8,686.1z"/>
			<path class="st22" d="M-2194.8,692.4v-1.1c-0.5,0.7-1.4,1.2-2.4,1.2c-1.8,0-3.1-1.4-3.1-3.7c0-2.3,1.3-3.7,3.1-3.7
				c1,0,1.8,0.5,2.4,1.2v-3.8h1.1v9.8H-2194.8z M-2194.8,690.5v-3.2c-0.4-0.6-1.2-1.1-2.1-1.1c-1.4,0-2.3,1.2-2.3,2.7
				c0,1.6,0.8,2.7,2.3,2.7C-2196.1,691.6-2195.2,691.1-2194.8,690.5z"/>
			<path class="st22" d="M-2188.5,692.4v-9.8h1.1v3.8c0.6-0.8,1.4-1.2,2.4-1.2c1.8,0,3.1,1.5,3.1,3.7c0,2.3-1.3,3.7-3.1,3.7
				c-1,0-1.9-0.5-2.4-1.2v1.1H-2188.5z M-2185.3,691.6c1.4,0,2.3-1.2,2.3-2.7c0-1.6-0.9-2.7-2.3-2.7c-0.9,0-1.7,0.5-2.1,1.1v3.2
				C-2187,691.1-2186.1,691.6-2185.3,691.6z"/>
			<path class="st22" d="M-2180.6,694.2c0.2,0.1,0.4,0.1,0.6,0.1c0.5,0,0.8-0.2,1.1-0.7l0.5-1.1l-3-7.1h1.2l2.4,5.8l2.3-5.8h1.2
				l-3.5,8.5c-0.4,1-1.1,1.4-2.1,1.4c-0.2,0-0.6,0-0.8-0.1L-2180.6,694.2z"/>
		</g>
	</g>
</g>
</svg>
