<?xml version="1.0" encoding="utf-8"?>
<!-- Generator: Adobe Illustrator 23.0.5, SVG Export Plug-In . SVG Version: 6.00 Build 0)  -->
<svg version="1.1" id="Layer_1" xmlns="http://www.w3.org/2000/svg" xmlns:xlink="http://www.w3.org/1999/xlink" x="0px" y="0px"
	 viewBox="0 0 34.3 25.3" style="enable-background:new 0 0 34.3 25.3;" xml:space="preserve">
<style type="text/css">
	.st0{fill:#FFFFFF;}
	.st1{fill:#2E3192;}
	.st2{fill:#DDC307;}
	.st3{fill:#299CA8;}
	.st4{fill:#EF7261;}
	.st5{fill:none;}
	.st6{fill:url(#SVGID_1_);}
	.st7{fill:url(#SVGID_2_);}
	.st8{fill:url(#SVGID_3_);}
	.st9{fill:url(#SVGID_4_);}
</style>
<g>
	<path class="st0" d="M-239.1-191l-6.6-1.5l-6.5-1.5l-8.5-1.9C-250.3-197.7-243.6-195.5-239.1-191z"/>
</g>
<circle class="st1" cx="-160.8" cy="-180" r="2.5"/>
<g>
	<path class="st1" d="M-169.2-132.1c-5.7,5.4-13.1,8-22.2,8c-2.9,0-6-0.3-9.3-0.8c-9.5-1.6-15.6-6.2-19.9-12.3
		c-1-1.4-1.8-2.8-2.6-4.3c-0.1-0.2-0.2-0.3-0.3-0.5c-0.8-1.6-1.5-3.2-2.2-4.9c-2.2-5.5-3.6-11.5-5-17.3c-0.7-3-1.4-6-2.2-8.7
		c-0.3-1-0.6-2.1-0.9-3.1c-0.4-1.2-0.8-2.3-1.2-3.4c-0.4-1-0.8-2-1.2-2.9c-2.2-4.7-5.1-8.3-9.6-10.2c-1.9-0.8-4-1.3-6.5-1.5
		c-1.8-0.1-3.7-0.1-5.8,0.2c-1.3,0.2-2.5-0.7-2.7-2l0-0.1l0,0c-0.2-1.4,0.7-2.7,2.1-2.8c12-1.5,19.1,2.3,23.8,8.6
		c2.2,3,3.9,6.6,5.3,10.5c0.4,1.1,0.8,2.3,1.1,3.4c0.5,1.5,0.9,3.1,1.3,4.7c0.5,1.9,0.9,3.8,1.4,5.7c0,0.1,0,0.2,0.1,0.3
		c0.8,3.2,1.5,6.4,2.4,9.5c0.7,2.7,1.6,5.2,2.5,7.6c0.2,0.5,0.4,1,0.6,1.5c0.7,1.7,1.5,3.3,2.4,4.8c3.7,6.2,9.1,10.7,17.9,12.2
		c11.8,2,20.9,0,27.3-5.9c10.6-10,10.8-28.5,10.5-34.9c-0.1-1.3,0.9-2.4,2.2-2.5l0.2,0l0,0c1.4-0.1,2.6,0.9,2.7,2.3
		C-156.8-163.8-157-143.6-169.2-132.1z"/>
</g>
<g>
	<path class="st1" d="M-220.9-148.3c-1-2.4-1.8-5-2.5-7.6c0,3.2-0.9,6.3-2.3,9c-3.3,6.2-9.8,10.4-17.3,10.4
		c-10.8,0-19.6-8.8-19.6-19.6s8.8-19.6,19.6-19.6c3.7,0,7.2,1,10.2,2.8c2.9,1.8,5.3,4.3,7,7.3c-0.5-1.9-0.9-3.8-1.4-5.7
		c-0.4-1.6-0.8-3.1-1.3-4.7c-1.9-1.4-4-2.5-6.3-3.3c-2.5-0.9-5.3-1.4-8.1-1.4c-13.6,0-24.6,11-24.6,24.6s11,24.6,24.6,24.6
		c8.1,0,15.3-3.9,19.8-10c1.2-1.6,2.2-3.4,3-5.3C-220.5-147.3-220.7-147.8-220.9-148.3z"/>
</g>
<g>
	<g>
		<path class="st2" d="M-196.6-167.8L-196.6-167.8c-0.8-0.2-1.2-1.1-1-1.8l9.9-30.7c0.2-0.8,1.1-1.2,1.9-1l0,0
			c0.8,0.2,1.2,1.1,1,1.8l-9.9,30.7C-195-168-195.8-167.5-196.6-167.8z"/>
	</g>
	<g>
		<path class="st2" d="M-185.3-183.6L-185.3-183.6c-0.6-0.6-0.5-1.5,0.1-2.1l11.4-10.2c0.6-0.5,0.7-1.5,0.1-2.1l-10.4-11.2
			c-0.6-0.6-0.5-1.5,0.1-2.1l0,0c0.6-0.5,1.6-0.5,2.1,0.1l12.4,13.4c0.6,0.6,0.5,1.5-0.1,2.1l-13.6,12.2
			C-183.8-183-184.8-183-185.3-183.6z"/>
	</g>
	<g>
		<path class="st2" d="M-200.9-159.5l-12.4-13.4c-0.6-0.6-0.5-1.5,0.1-2.1l13.6-12.2c0.6-0.5,1.6-0.5,2.1,0.1h0
			c0.6,0.6,0.5,1.5-0.1,2.1l-11.4,10.2c-0.6,0.5-0.7,1.5-0.1,2.1l10.4,11.2c0.6,0.6,0.5,1.5-0.1,2.1h0
			C-199.4-158.8-200.4-158.9-200.9-159.5z"/>
	</g>
</g>
<g>
	<path class="st0" d="M-240.4-78.7l-6.6-1.5l-6.5-1.5l-8.5-1.9C-251.7-85.4-245-83.2-240.4-78.7z"/>
</g>
<circle class="st1" cx="-162.2" cy="-75.2" r="2.5"/>
<g>
	<path class="st3" d="M-170.6-27.3c-5.7,5.4-13.1,8-22.2,8c-2.9,0-6-0.3-9.3-0.8c-9.5-1.6-15.6-6.2-19.9-12.3
		c-1-1.4-1.8-2.8-2.6-4.3c-0.1-0.2-0.2-0.3-0.3-0.5c-0.8-1.6-1.5-3.2-2.2-4.9c-2.2-5.5-3.6-11.5-5-17.3c-0.7-3-1.4-6-2.2-8.7
		c-0.3-1-0.6-2.1-0.9-3.1c-0.4-1.2-0.8-2.3-1.2-3.4c-0.4-1-0.8-2-1.2-2.9c-2.2-4.7-5.1-8.3-9.6-10.2c-1.9-0.8-4-1.3-6.5-1.5
		c-1.8-0.1-3.7-0.1-5.8,0.2c-1.3,0.2-2.5-0.7-2.7-2l0-0.1l0,0c-0.2-1.4,0.7-2.7,2.1-2.8c12-1.5,19.1,2.3,23.8,8.6
		c2.2,3,3.9,6.6,5.3,10.5c0.4,1.1,0.8,2.3,1.1,3.4c0.5,1.5,0.9,3.1,1.3,4.7c0.5,1.9,0.9,3.8,1.4,5.7c0,0.1,0,0.2,0.1,0.3
		c0.8,3.2,1.5,6.4,2.4,9.5c0.7,2.7,1.6,5.2,2.5,7.6c0.2,0.5,0.4,1,0.6,1.5c0.7,1.7,1.5,3.3,2.4,4.8c3.7,6.2,9.1,10.7,17.9,12.2
		c11.8,2,20.9,0,27.3-5.9c10.6-10,10.8-28.5,10.5-34.9c-0.1-1.3,0.9-2.4,2.2-2.5l0.2,0h0c1.4-0.1,2.6,0.9,2.7,2.3
		C-158.2-59-158.4-38.8-170.6-27.3z"/>
</g>
<g>
	<path class="st3" d="M-222.3-43.5c-1-2.4-1.8-5-2.5-7.6c0,3.2-0.9,6.3-2.3,9c-3.3,6.2-9.8,10.4-17.3,10.4
		c-10.8,0-19.6-8.8-19.6-19.6s8.8-19.6,19.6-19.6c3.7,0,7.2,1,10.2,2.8c2.9,1.8,5.3,4.3,7,7.3c-0.5-1.9-0.9-3.8-1.4-5.7
		c-0.4-1.6-0.8-3.1-1.3-4.7c-1.9-1.4-4-2.5-6.3-3.3c-2.5-0.9-5.3-1.4-8.1-1.4C-258-76-269-65-269-51.4s11,24.6,24.6,24.6
		c8.1,0,15.3-3.9,19.8-10c1.2-1.6,2.2-3.4,3-5.3C-221.9-42.5-222.1-43-222.3-43.5z"/>
</g>
<g>
	<g>
		<path class="st2" d="M-198-63L-198-63c-0.8-0.2-1.2-1.1-1-1.8l9.9-30.7c0.2-0.8,1.1-1.2,1.9-1l0,0c0.8,0.2,1.2,1.1,1,1.8
			l-9.9,30.7C-196.3-63.1-197.2-62.7-198-63z"/>
	</g>
	<g>
		<path class="st2" d="M-186.7-78.8L-186.7-78.8c-0.6-0.6-0.5-1.5,0.1-2.1l11.4-10.2c0.6-0.5,0.7-1.5,0.1-2.1l-10.4-11.2
			c-0.6-0.6-0.5-1.5,0.1-2.1l0,0c0.6-0.5,1.6-0.5,2.1,0.1l12.4,13.4c0.6,0.6,0.5,1.5-0.1,2.1l-13.6,12.2
			C-185.2-78.2-186.2-78.2-186.7-78.8z"/>
	</g>
	<g>
		<path class="st2" d="M-202.3-54.7l-12.4-13.4c-0.6-0.6-0.5-1.5,0.1-2.1l13.6-12.2c0.6-0.5,1.6-0.5,2.1,0.1v0
			c0.6,0.6,0.5,1.5-0.1,2.1l-11.4,10.2c-0.6,0.5-0.7,1.5-0.1,2.1l10.4,11.2c0.6,0.6,0.5,1.5-0.1,2.1l0,0
			C-200.8-54-201.8-54.1-202.3-54.7z"/>
	</g>
</g>
<g>
	<g>
		<g>
			<path class="st0" d="M-263.6,30.7l-2-0.4l-1.9-0.4l-2.5-0.6C-266.9,28.7-264.9,29.3-263.6,30.7z"/>
		</g>
		<g>
			<circle class="st3" cx="-240.2" cy="33.9" r="0.7"/>
			<g>
				<path class="st3" d="M-242.7,48.2c-1.7,1.6-3.9,2.4-6.6,2.4c-0.9,0-1.8-0.1-2.8-0.3c-2.8-0.5-4.7-1.9-5.9-3.7
					c-0.3-0.4-0.5-0.8-0.8-1.3c0,0-0.1-0.1-0.1-0.1c-0.2-0.5-0.5-1-0.7-1.5c-0.6-1.7-1.1-3.4-1.5-5.2c-0.2-0.9-0.4-1.8-0.6-2.6
					c-0.1-0.3-0.2-0.6-0.3-0.9c-0.1-0.3-0.2-0.7-0.3-1c-0.1-0.3-0.2-0.6-0.4-0.9c-0.7-1.4-1.5-2.5-2.9-3c-0.6-0.2-1.2-0.4-1.9-0.4
					c-0.5,0-1.1,0-1.7,0.1c-0.4,0-0.7-0.2-0.8-0.6l0,0l0,0c-0.1-0.4,0.2-0.8,0.6-0.8c3.6-0.4,5.7,0.7,7.1,2.6c0.7,0.9,1.2,2,1.6,3.1
					c0.1,0.3,0.2,0.7,0.3,1c0.1,0.5,0.3,0.9,0.4,1.4c0.1,0.6,0.3,1.1,0.4,1.7c0,0,0,0.1,0,0.1c0.2,1,0.5,1.9,0.7,2.8
					c0.2,0.8,0.5,1.6,0.7,2.3c0.1,0.2,0.1,0.3,0.2,0.5c0.2,0.5,0.5,1,0.7,1.4c1.1,1.8,2.7,3.2,5.3,3.6c3.5,0.6,6.2,0,8.1-1.8
					c3.2-3,3.2-8.5,3.1-10.4c0-0.4,0.3-0.7,0.6-0.7l0.1,0l0,0c0.4,0,0.8,0.3,0.8,0.7C-239,38.8-239.1,44.8-242.7,48.2z"/>
			</g>
			<g>
				<path class="st3" d="M-260.5,44c-0.3-0.7-0.5-1.5-0.7-2.3c0,1-0.3,1.9-0.7,2.7c-1,1.8-2.9,3.1-5.2,3.1c-3.2,0-5.8-2.6-5.8-5.8
					s2.6-5.8,5.8-5.8c1.1,0,2.2,0.3,3,0.8c0.9,0.5,1.6,1.3,2.1,2.2c-0.1-0.6-0.3-1.1-0.4-1.7c-0.1-0.5-0.2-0.9-0.4-1.4
					c-0.6-0.4-1.2-0.8-1.9-1c-0.8-0.3-1.6-0.4-2.4-0.4c-4,0-7.3,3.3-7.3,7.3s3.3,7.3,7.3,7.3c2.4,0,4.6-1.2,5.9-3
					c0.4-0.5,0.7-1,0.9-1.6C-260.4,44.3-260.5,44.1-260.5,44z"/>
			</g>
		</g>
		<g>
			<g>
				<path class="st4" d="M-250.9,37.6L-250.9,37.6c-0.2-0.1-0.4-0.3-0.3-0.6l3-9.2c0.1-0.2,0.3-0.4,0.6-0.3l0,0
					c0.2,0.1,0.4,0.3,0.3,0.6l-3,9.2C-250.4,37.5-250.7,37.6-250.9,37.6z"/>
			</g>
			<g>
				<path class="st4" d="M-247.5,32.9L-247.5,32.9c-0.2-0.2-0.2-0.5,0-0.6l3.4-3.1c0.2-0.2,0.2-0.4,0-0.6l-3.1-3.3
					c-0.2-0.2-0.2-0.5,0-0.6l0,0c0.2-0.2,0.5-0.2,0.6,0l3.7,4c0.2,0.2,0.2,0.5,0,0.6l-4,3.6C-247.1,33-247.4,33-247.5,32.9z"/>
			</g>
			<g>
				<path class="st4" d="M-252.2,40l-3.7-4c-0.2-0.2-0.2-0.5,0-0.6l4-3.6c0.2-0.2,0.5-0.2,0.6,0l0,0c0.2,0.2,0.2,0.5,0,0.6l-3.4,3.1
					c-0.2,0.2-0.2,0.4,0,0.6l3.1,3.3c0.2,0.2,0.2,0.5,0,0.6l0,0C-251.7,40.2-252,40.2-252.2,40z"/>
			</g>
		</g>
	</g>
	<text transform="matrix(1 0 0 1 -231.9285 40.2856)" class="st3" style="font-family:'Helvetica'; font-size:16.7246px;">IKKENE</text>
	<text transform="matrix(1 0 0 1 -231.9285 50.4062)" style="font-family:'Helvetica'; font-size:11.6208px;">abdennafea</text>
</g>
<text transform="matrix(1 0 0 1 -233.3089 126.3656)" class="st3" style="font-family:'Helvetica'; font-size:16.7246px;">IKKENE</text>
<text transform="matrix(1 0 0 1 -233.3089 136.4862)" class="st4" style="font-family:'Helvetica'; font-size:11.6208px;">abdennafea</text>
<g>
	<g>
		<path class="st0" d="M-270.1,229.7l-2.8-0.6l-2.8-0.6l-3.6-0.8C-274.9,226.8-272.1,227.7-270.1,229.7z"/>
	</g>
	<g>
		<circle class="st3" cx="-236.7" cy="234.4" r="1.1"/>
		<g>
			<path class="st3" d="M-240.3,254.8c-2.4,2.3-5.6,3.4-9.5,3.4c-1.3,0-2.6-0.1-4-0.4c-4-0.7-6.7-2.7-8.5-5.3
				c-0.4-0.6-0.8-1.2-1.1-1.8c0-0.1-0.1-0.1-0.1-0.2c-0.3-0.7-0.7-1.4-0.9-2.1c-0.9-2.4-1.5-4.9-2.1-7.4c-0.3-1.3-0.6-2.5-0.9-3.7
				c-0.1-0.4-0.3-0.9-0.4-1.3c-0.2-0.5-0.3-1-0.5-1.4c-0.2-0.4-0.3-0.8-0.5-1.2c-0.9-2-2.2-3.5-4.1-4.3c-0.8-0.3-1.7-0.6-2.8-0.6
				c-0.8-0.1-1.6,0-2.5,0.1c-0.5,0.1-1.1-0.3-1.2-0.8l0-0.1l0,0c-0.1-0.6,0.3-1.1,0.9-1.2c5.1-0.6,8.1,1,10.1,3.7
				c0.9,1.3,1.7,2.8,2.2,4.5c0.2,0.5,0.3,1,0.5,1.5c0.2,0.7,0.4,1.3,0.6,2c0.2,0.8,0.4,1.6,0.6,2.4c0,0,0,0.1,0,0.1
				c0.3,1.4,0.7,2.7,1,4c0.3,1.1,0.7,2.2,1.1,3.3c0.1,0.2,0.2,0.4,0.3,0.6c0.3,0.7,0.6,1.4,1,2c1.6,2.6,3.9,4.6,7.6,5.2
				c5,0.9,8.9,0,11.6-2.5c4.5-4.3,4.6-12.2,4.5-14.9c0-0.5,0.4-1,0.9-1.1l0.1,0l0,0c0.6-0.1,1.1,0.4,1.1,1
				C-235,241.3-235.1,249.9-240.3,254.8z"/>
		</g>
		<g>
			<path class="st3" d="M-265.8,248.7c-0.4-1-0.8-2.1-1.1-3.3c0,1.4-0.4,2.7-1,3.8c-1.4,2.6-4.2,4.4-7.4,4.4c-4.6,0-8.4-3.8-8.4-8.4
				s3.8-8.4,8.4-8.4c1.6,0,3.1,0.4,4.3,1.2c1.2,0.8,2.3,1.8,3,3.1c-0.2-0.8-0.4-1.6-0.6-2.4c-0.2-0.7-0.3-1.3-0.6-2
				c-0.8-0.6-1.7-1.1-2.7-1.4c-1.1-0.4-2.3-0.6-3.5-0.6c-5.8,0-10.5,4.7-10.5,10.5s4.7,10.5,10.5,10.5c3.5,0,6.5-1.7,8.4-4.3
				c0.5-0.7,0.9-1.4,1.3-2.2C-265.6,249.2-265.7,248.9-265.8,248.7z"/>
		</g>
	</g>
	<g>
		<g>
			<path class="st4" d="M-252,239.6L-252,239.6c-0.3-0.1-0.5-0.5-0.4-0.8l4.2-13.1c0.1-0.3,0.5-0.5,0.8-0.4l0,0
				c0.3,0.1,0.5,0.5,0.4,0.8l-4.2,13.1C-251.3,239.5-251.7,239.7-252,239.6z"/>
		</g>
		<g>
			<path class="st4" d="M-247.2,232.8L-247.2,232.8c-0.2-0.3-0.2-0.7,0-0.9l4.9-4.4c0.3-0.2,0.3-0.6,0-0.9l-4.4-4.8
				c-0.2-0.3-0.2-0.7,0-0.9l0,0c0.3-0.2,0.7-0.2,0.9,0l5.3,5.7c0.2,0.3,0.2,0.7,0,0.9l-5.8,5.2
				C-246.5,233.1-246.9,233.1-247.2,232.8z"/>
		</g>
		<g>
			<path class="st4" d="M-253.8,243.1l-5.3-5.7c-0.2-0.3-0.2-0.7,0-0.9l5.8-5.2c0.3-0.2,0.7-0.2,0.9,0l0,0c0.2,0.3,0.2,0.7,0,0.9
				l-4.9,4.4c-0.3,0.2-0.3,0.6,0,0.9l4.4,4.8c0.2,0.3,0.2,0.7,0,0.9l0,0C-253.2,243.4-253.6,243.4-253.8,243.1z"/>
		</g>
	</g>
</g>
<g>
	<path class="st3" d="M-220,227.9v15c0,0.8-0.7,1.5-1.5,1.5h-0.5c-0.8,0-1.5-0.7-1.5-1.5v-15c0-0.8,0.7-1.5,1.5-1.5h0.5
		C-220.7,226.4-220,227.1-220,227.9z"/>
	<path class="st3" d="M-213.9,234l5.1-7c0.3-0.4,0.7-0.6,1.2-0.6h0.3c1.3,0,2,1.5,1.2,2.5l-4,4.9c-0.4,0.5-0.5,1.3,0,1.9l4.7,6.3
		c0.8,1,0,2.4-1.2,2.4h-0.7c-0.5,0-1-0.2-1.2-0.6l-5.3-7.5h0v6.6c0,0.8-0.7,1.5-1.5,1.5h-0.5c-0.8,0-1.5-0.7-1.5-1.5v-15
		c0-0.8,0.7-1.5,1.5-1.5h0.5c0.8,0,1.5,0.7,1.5,1.5L-213.9,234L-213.9,234z"/>
	<path class="st3" d="M-199.1,234l5.1-7c0.3-0.4,0.7-0.6,1.2-0.6h0.3c1.3,0,2,1.5,1.2,2.5l-4,4.9c-0.4,0.5-0.5,1.3,0,1.9l4.7,6.3
		c0.8,1,0,2.4-1.2,2.4h-0.7c-0.5,0-1-0.2-1.2-0.6l-5.3-7.5h0v6.6c0,0.8-0.7,1.5-1.5,1.5h-0.5c-0.8,0-1.5-0.7-1.5-1.5v-15
		c0-0.8,0.7-1.5,1.5-1.5h0.5c0.8,0,1.5,0.7,1.5,1.5L-199.1,234L-199.1,234z"/>
	<path class="st3" d="M-180,229.5h-2.8c-0.8,0-1.5,0.7-1.5,1.5v0.9c0,0.8,0.7,1.5,1.5,1.5h2.5c0.8,0,1.5,0.7,1.5,1.5v0
		c0,0.8-0.7,1.5-1.5,1.5h-2.5c-0.8,0-1.5,0.7-1.5,1.5v1.8c0,0.8,0.7,1.5,1.5,1.5h2.8c0.8,0,1.5,0.7,1.5,1.5v0c0,0.8-0.7,1.5-1.5,1.5
		h-6.3c-0.8,0-1.5-0.7-1.5-1.5v-15c0-0.8,0.7-1.5,1.5-1.5h6.3c0.8,0,1.5,0.7,1.5,1.5l0,0C-178.5,228.8-179.2,229.5-180,229.5z"/>
	<path class="st3" d="M-176.1,242.9v-15.5c0-0.8,0.7-1.5,1.5-1.5h0.2c0.5,0,0.9,0.2,1.2,0.6l9,12h0v-10.6c0-0.8,0.7-1.5,1.5-1.5h0.5
		c0.8,0,1.5,0.7,1.5,1.5v15.3c0,0.8-0.7,1.5-1.5,1.5h-0.2c-0.5,0-0.9-0.2-1.2-0.6l-9-12h0v10.7c0,0.8-0.7,1.5-1.5,1.5h-0.5
		C-175.4,244.5-176.1,243.8-176.1,242.9z"/>
	<path class="st3" d="M-150.2,229.5h-2.8c-0.8,0-1.5,0.7-1.5,1.5v0.9c0,0.8,0.7,1.5,1.5,1.5h2.5c0.8,0,1.5,0.7,1.5,1.5v0
		c0,0.8-0.7,1.5-1.5,1.5h-2.5c-0.8,0-1.5,0.7-1.5,1.5v1.8c0,0.8,0.7,1.5,1.5,1.5h2.8c0.8,0,1.5,0.7,1.5,1.5v0c0,0.8-0.7,1.5-1.5,1.5
		h-6.3c-0.8,0-1.5-0.7-1.5-1.5v-15c0-0.8,0.7-1.5,1.5-1.5h6.3c0.8,0,1.5,0.7,1.5,1.5l0,0C-148.6,228.8-149.3,229.5-150.2,229.5z"/>
</g>
<g>
	<path d="M-217.4,250.8v7.1h-0.7v-1.3h0c-0.3,0.4-0.6,0.8-1.1,1.1c-0.5,0.3-1,0.4-1.6,0.4c-1.1,0-1.9-0.4-2.6-1.1
		c-0.6-0.7-1-1.6-1-2.7c0-1.1,0.3-1.9,1-2.6c0.6-0.7,1.5-1,2.5-1c0.6,0,1.1,0.1,1.6,0.4c0.5,0.2,0.9,0.6,1.2,1h0v-1.2H-217.4z
		 M-220.9,251.3c-0.9,0-1.6,0.4-2.2,1.2c-0.4,0.6-0.6,1.2-0.6,1.9c0,0.8,0.3,1.6,0.8,2.2c0.5,0.6,1.2,0.9,2,0.9
		c0.9,0,1.6-0.3,2.1-0.9c0.5-0.6,0.8-1.4,0.8-2.3c0-0.8-0.3-1.5-0.8-2.1C-219.3,251.5-220,251.3-220.9,251.3z"/>
	<path d="M-215,257.9v-12.8h0.7v6.9h0c0.3-0.4,0.7-0.8,1.2-1s1-0.4,1.6-0.4c1.1,0,1.9,0.3,2.5,1c0.6,0.7,1,1.6,1,2.6
		c0,1.1-0.3,2-1,2.7c-0.6,0.7-1.5,1.1-2.6,1.1c-0.5,0-1.1-0.1-1.6-0.4c-0.5-0.3-0.9-0.6-1.1-1.1h0v1.3H-215z M-211.5,257.4
		c0.8,0,1.5-0.3,2-0.9c0.5-0.6,0.8-1.3,0.8-2.2c0-0.9-0.3-1.7-1-2.4c-0.4-0.4-1-0.6-1.5-0.7c-1-0.1-1.8,0.2-2.3,0.9
		c-0.5,0.6-0.8,1.3-0.8,2.2c0,0.9,0.3,1.6,0.8,2.2C-213.1,257.1-212.4,257.4-211.5,257.4z"/>
	<path d="M-200.8,257.9v-1.3h0c-0.3,0.4-0.6,0.8-1.1,1.1c-0.5,0.3-1,0.4-1.6,0.4c-1.1,0-1.9-0.4-2.6-1.1c-0.6-0.7-1-1.6-1-2.7
		c0-1.1,0.3-1.9,1-2.6c0.6-0.7,1.5-1,2.5-1c0.6,0,1.1,0.1,1.6,0.4c0.5,0.2,0.9,0.6,1.2,1h0v-6.9h0.7v12.8H-200.8z M-203.5,257.4
		c0.9,0,1.6-0.3,2.1-0.9c0.5-0.6,0.8-1.4,0.8-2.3c0-0.8-0.3-1.5-0.8-2.1c-0.6-0.7-1.5-0.9-2.6-0.8c-0.4,0-0.7,0.2-1,0.4
		c-0.8,0.7-1.2,1.6-1.2,2.6c0,0.9,0.3,1.6,0.8,2.2C-205,257.1-204.4,257.4-203.5,257.4z"/>
	<path d="M-191.8,254.4h-5.6c-0.2,0-0.3,0.1-0.3,0.3c0,0.8,0.3,1.4,0.8,1.9c0.5,0.6,1.2,0.8,2.1,0.8c0.5,0,1-0.1,1.5-0.4
		c0.4-0.3,0.8-0.7,1.1-1.2l0.6,0.3c-0.7,1.3-1.7,1.9-3.2,1.9c-1,0-1.9-0.4-2.5-1.1c-0.6-0.7-1-1.6-1-2.7c0-1,0.3-1.9,1-2.6
		c0.6-0.7,1.5-1.1,2.5-1.1c1.1,0,1.9,0.4,2.5,1.1c0.6,0.7,0.9,1.5,0.9,2.4C-191.5,254.3-191.6,254.4-191.8,254.4z M-197.7,253.8h5.2
		c0.2,0,0.3-0.2,0.3-0.3c-0.1-0.5-0.4-1-0.8-1.4c-0.5-0.5-1.1-0.7-1.8-0.8c-0.8,0-1.4,0.2-2,0.7
		C-197.3,252.5-197.6,253.1-197.7,253.8z"/>
	<path d="M-189.1,250.8v1.1h0c0.2-0.4,0.5-0.7,0.9-0.9s0.8-0.3,1.3-0.3c0.9,0,1.5,0.3,1.8,0.8c0.3,0.5,0.5,1.2,0.5,2.2v4.3h-0.7
		v-4.3c0-0.4,0-0.7-0.1-0.9s-0.1-0.5-0.2-0.7c-0.1-0.2-0.3-0.4-0.5-0.5s-0.5-0.2-0.9-0.2c-1.4,0-2.1,1-2.1,3.1v3.5h-0.7v-7.1H-189.1
		z"/>
	<path d="M-181.5,250.8v1.1h0c0.2-0.4,0.5-0.7,0.9-0.9s0.8-0.3,1.3-0.3c0.9,0,1.5,0.3,1.8,0.8c0.3,0.5,0.5,1.2,0.5,2.2v4.3h-0.7
		v-4.3c0-0.4,0-0.7-0.1-0.9s-0.1-0.5-0.2-0.7c-0.1-0.2-0.3-0.4-0.5-0.5s-0.5-0.2-0.9-0.2c-1.4,0-2.1,1-2.1,3.1v3.5h-0.7v-7.1H-181.5
		z"/>
	<path d="M-168.4,250.8v7.1h-0.7v-1.3h0c-0.3,0.4-0.6,0.8-1.1,1.1c-0.5,0.3-1,0.4-1.6,0.4c-1.1,0-1.9-0.4-2.6-1.1
		c-0.6-0.7-1-1.6-1-2.7c0-1.1,0.3-1.9,1-2.6c0.6-0.7,1.5-1,2.5-1c0.6,0,1.1,0.1,1.6,0.4c0.5,0.2,0.9,0.6,1.2,1h0v-1.2H-168.4z
		 M-171.9,251.3c-0.9,0-1.6,0.4-2.2,1.2c-0.4,0.6-0.6,1.2-0.6,1.9c0,0.8,0.3,1.6,0.8,2.2c0.5,0.6,1.2,0.9,2,0.9
		c0.9,0,1.6-0.3,2.1-0.9c0.5-0.6,0.8-1.4,0.8-2.3c0-0.8-0.3-1.5-0.8-2.1C-170.3,251.5-171,251.3-171.9,251.3z"/>
	<path d="M-165,251.4c-0.2,0-0.3,0.1-0.3,0.3v6.2h-0.7v-6.5h-0.8v-0.6h0.8v-3.2c0-0.8,0.1-1.4,0.3-1.7c0.3-0.6,0.9-0.9,1.6-0.9
		c0.2,0,0.4,0,0.6,0.1v0.6c-0.4-0.1-0.6-0.1-0.6-0.1c-0.3,0-0.5,0.1-0.7,0.2c-0.2,0.1-0.3,0.3-0.4,0.5s-0.1,0.5-0.1,0.6
		c0,0.2,0,0.4,0,0.7v2.8c0,0.2,0.1,0.3,0.3,0.3h1.5v0.6H-165z"/>
	<path d="M-156.3,254.4h-5.6c-0.2,0-0.3,0.1-0.3,0.3c0,0.8,0.3,1.4,0.8,1.9c0.5,0.6,1.2,0.8,2.1,0.8c0.5,0,1-0.1,1.5-0.4
		c0.4-0.3,0.8-0.7,1.1-1.2l0.6,0.3c-0.7,1.3-1.7,1.9-3.2,1.9c-1,0-1.9-0.4-2.5-1.1c-0.6-0.7-1-1.6-1-2.7c0-1,0.3-1.9,1-2.6
		c0.6-0.7,1.5-1.1,2.5-1.1c1.1,0,1.9,0.4,2.5,1.1c0.6,0.7,0.9,1.5,0.9,2.4C-156.1,254.3-156.2,254.4-156.3,254.4z M-162.3,253.8h5.2
		c0.2,0,0.3-0.2,0.3-0.3c-0.1-0.5-0.4-1-0.8-1.4c-0.5-0.5-1.1-0.7-1.8-0.8c-0.8,0-1.4,0.2-2,0.7
		C-161.9,252.5-162.2,253.1-162.3,253.8z"/>
	<path d="M-148.1,250.8v7.1h-0.7v-1.3h0c-0.3,0.4-0.6,0.8-1.1,1.1c-0.5,0.3-1,0.4-1.6,0.4c-1.1,0-1.9-0.4-2.6-1.1
		c-0.6-0.7-1-1.6-1-2.7c0-1.1,0.3-1.9,1-2.6c0.6-0.7,1.5-1,2.5-1c0.6,0,1.1,0.1,1.6,0.4c0.5,0.2,0.9,0.6,1.2,1h0v-1.2H-148.1z
		 M-151.6,251.3c-0.9,0-1.6,0.4-2.2,1.2c-0.4,0.6-0.6,1.2-0.6,1.9c0,0.8,0.3,1.6,0.8,2.2c0.5,0.6,1.2,0.9,2,0.9
		c0.9,0,1.6-0.3,2.1-0.9c0.5-0.6,0.8-1.4,0.8-2.3c0-0.8-0.3-1.5-0.8-2.1C-150.1,251.5-150.7,251.3-151.6,251.3z"/>
</g>
<g>
	<path class="st3" d="M73.4,118.7v15c0,0.8-0.7,1.5-1.5,1.5h-0.5c-0.8,0-1.5-0.7-1.5-1.5v-15c0-0.8,0.7-1.5,1.5-1.5h0.5
		C72.7,117.1,73.4,117.8,73.4,118.7z"/>
	<path class="st3" d="M79.6,124.7l5.1-7c0.3-0.4,0.7-0.6,1.2-0.6h0.3c1.3,0,2,1.5,1.2,2.5l-4,4.9c-0.4,0.5-0.5,1.3,0,1.9l4.7,6.3
		c0.8,1,0,2.4-1.2,2.4h-0.7c-0.5,0-1-0.2-1.2-0.6l-5.3-7.5h0v6.6c0,0.8-0.7,1.5-1.5,1.5h-0.5c-0.8,0-1.5-0.7-1.5-1.5v-15
		c0-0.8,0.7-1.5,1.5-1.5H78c0.8,0,1.5,0.7,1.5,1.5L79.6,124.7L79.6,124.7z"/>
	<path class="st3" d="M94.4,124.7l5.1-7c0.3-0.4,0.7-0.6,1.2-0.6h0.3c1.3,0,2,1.5,1.2,2.5l-4,4.9c-0.4,0.5-0.5,1.3,0,1.9l4.7,6.3
		c0.8,1,0,2.4-1.2,2.4H101c-0.5,0-1-0.2-1.2-0.6l-5.3-7.5h0v6.6c0,0.8-0.7,1.5-1.5,1.5h-0.5c-0.8,0-1.5-0.7-1.5-1.5v-15
		c0-0.8,0.7-1.5,1.5-1.5h0.5c0.8,0,1.5,0.7,1.5,1.5L94.4,124.7L94.4,124.7z"/>
	<path class="st3" d="M113.5,120.2h-2.8c-0.8,0-1.5,0.7-1.5,1.5v0.9c0,0.8,0.7,1.5,1.5,1.5h2.5c0.8,0,1.5,0.7,1.5,1.5v0
		c0,0.8-0.7,1.5-1.5,1.5h-2.5c-0.8,0-1.5,0.7-1.5,1.5v1.8c0,0.8,0.7,1.5,1.5,1.5h2.8c0.8,0,1.5,0.7,1.5,1.5v0c0,0.8-0.7,1.5-1.5,1.5
		h-6.3c-0.8,0-1.5-0.7-1.5-1.5v-15c0-0.8,0.7-1.5,1.5-1.5h6.3c0.8,0,1.5,0.7,1.5,1.5l0,0C115,119.5,114.3,120.2,113.5,120.2z"/>
	<path class="st3" d="M117.3,133.6v-15.5c0-0.8,0.7-1.5,1.5-1.5h0.2c0.5,0,0.9,0.2,1.2,0.6l9,12h0v-10.6c0-0.8,0.7-1.5,1.5-1.5h0.5
		c0.8,0,1.5,0.7,1.5,1.5V134c0,0.8-0.7,1.5-1.5,1.5h-0.2c-0.5,0-0.9-0.2-1.2-0.6l-9-12h0v10.7c0,0.8-0.7,1.5-1.5,1.5h-0.5
		C118,135.2,117.3,134.5,117.3,133.6z"/>
	<path class="st3" d="M143.3,120.2h-2.8c-0.8,0-1.5,0.7-1.5,1.5v0.9c0,0.8,0.7,1.5,1.5,1.5h2.5c0.8,0,1.5,0.7,1.5,1.5v0
		c0,0.8-0.7,1.5-1.5,1.5h-2.5c-0.8,0-1.5,0.7-1.5,1.5v1.8c0,0.8,0.7,1.5,1.5,1.5h2.8c0.8,0,1.5,0.7,1.5,1.5v0c0,0.8-0.7,1.5-1.5,1.5
		H137c-0.8,0-1.5-0.7-1.5-1.5v-15c0-0.8,0.7-1.5,1.5-1.5h6.3c0.8,0,1.5,0.7,1.5,1.5l0,0C144.8,119.5,144.2,120.2,143.3,120.2z"/>
</g>
<g>
	<path d="M76.1,141.5v7.1h-0.7v-1.3h0c-0.3,0.4-0.6,0.8-1.1,1.1c-0.5,0.3-1,0.4-1.6,0.4c-1.1,0-1.9-0.4-2.6-1.1
		c-0.6-0.7-1-1.6-1-2.7c0-1.1,0.3-1.9,1-2.6c0.6-0.7,1.5-1,2.5-1c0.6,0,1.1,0.1,1.6,0.4c0.5,0.2,0.9,0.6,1.2,1h0v-1.2H76.1z
		 M72.6,142c-0.9,0-1.6,0.4-2.2,1.2c-0.4,0.6-0.6,1.2-0.6,1.9c0,0.8,0.3,1.6,0.8,2.2c0.5,0.6,1.2,0.9,2,0.9c0.9,0,1.6-0.3,2.1-0.9
		c0.5-0.6,0.8-1.4,0.8-2.3c0-0.8-0.3-1.5-0.8-2.1C74.1,142.3,73.4,142,72.6,142z"/>
	<path d="M78.5,148.6v-12.8h0.7v6.9h0c0.3-0.4,0.7-0.8,1.2-1s1-0.4,1.6-0.4c1.1,0,1.9,0.3,2.5,1c0.6,0.7,1,1.6,1,2.6
		c0,1.1-0.3,2-1,2.7c-0.6,0.7-1.5,1.1-2.6,1.1c-0.5,0-1.1-0.1-1.6-0.4c-0.5-0.3-0.9-0.6-1.1-1.1h0v1.3H78.5z M81.9,148.1
		c0.8,0,1.5-0.3,2-0.9s0.8-1.3,0.8-2.2c0-0.9-0.3-1.7-1-2.4c-0.4-0.4-1-0.6-1.5-0.7c-1-0.1-1.8,0.2-2.3,0.9
		c-0.5,0.6-0.8,1.3-0.8,2.2c0,0.9,0.3,1.6,0.8,2.2C80.4,147.8,81.1,148.1,81.9,148.1z"/>
	<path d="M92.7,148.6v-1.3h0c-0.3,0.4-0.6,0.8-1.1,1.1c-0.5,0.3-1,0.4-1.6,0.4c-1.1,0-1.9-0.4-2.6-1.1c-0.6-0.7-1-1.6-1-2.7
		c0-1.1,0.3-1.9,1-2.6c0.6-0.7,1.5-1,2.5-1c0.6,0,1.1,0.1,1.6,0.4c0.5,0.2,0.9,0.6,1.2,1h0v-6.9h0.7v12.8H92.7z M89.9,148.1
		c0.9,0,1.6-0.3,2.1-0.9c0.5-0.6,0.8-1.4,0.8-2.3c0-0.8-0.3-1.5-0.8-2.1c-0.6-0.7-1.5-0.9-2.6-0.8c-0.4,0-0.7,0.2-1,0.4
		c-0.8,0.7-1.2,1.6-1.2,2.6c0,0.9,0.3,1.6,0.8,2.2S89.1,148.1,89.9,148.1z"/>
	<path d="M101.7,145.1h-5.6c-0.2,0-0.3,0.1-0.3,0.3c0,0.8,0.3,1.4,0.8,1.9c0.5,0.6,1.2,0.8,2.1,0.8c0.5,0,1-0.1,1.5-0.4
		c0.4-0.3,0.8-0.7,1.1-1.2l0.6,0.3c-0.7,1.3-1.7,1.9-3.2,1.9c-1,0-1.9-0.4-2.5-1.1c-0.6-0.7-1-1.6-1-2.7c0-1,0.3-1.9,1-2.6
		c0.6-0.7,1.5-1.1,2.5-1.1c1.1,0,1.9,0.4,2.5,1.1c0.6,0.7,0.9,1.5,0.9,2.4C102,145,101.9,145.1,101.7,145.1z M95.8,144.5h5.2
		c0.2,0,0.3-0.2,0.3-0.3c-0.1-0.5-0.4-1-0.8-1.4c-0.5-0.5-1.1-0.7-1.8-0.8c-0.8,0-1.4,0.2-2,0.7C96.2,143.2,95.9,143.8,95.8,144.5z"
		/>
	<path d="M104.4,141.5v1.1h0c0.2-0.4,0.5-0.7,0.9-0.9s0.8-0.3,1.3-0.3c0.9,0,1.5,0.3,1.8,0.8c0.3,0.5,0.5,1.2,0.5,2.2v4.3h-0.7v-4.3
		c0-0.4,0-0.7-0.1-0.9s-0.1-0.5-0.2-0.7c-0.1-0.2-0.3-0.4-0.5-0.5s-0.5-0.2-0.9-0.2c-1.4,0-2.1,1-2.1,3.1v3.5h-0.7v-7.1H104.4z"/>
	<path d="M112,141.5v1.1h0c0.2-0.4,0.5-0.7,0.9-0.9s0.8-0.3,1.3-0.3c0.9,0,1.5,0.3,1.8,0.8c0.3,0.5,0.5,1.2,0.5,2.2v4.3h-0.7v-4.3
		c0-0.4,0-0.7-0.1-0.9s-0.1-0.5-0.2-0.7c-0.1-0.2-0.3-0.4-0.5-0.5s-0.5-0.2-0.9-0.2c-1.4,0-2.1,1-2.1,3.1v3.5h-0.7v-7.1H112z"/>
	<path d="M125.1,141.5v7.1h-0.7v-1.3h0c-0.3,0.4-0.6,0.8-1.1,1.1c-0.5,0.3-1,0.4-1.6,0.4c-1.1,0-1.9-0.4-2.6-1.1
		c-0.6-0.7-1-1.6-1-2.7c0-1.1,0.3-1.9,1-2.6c0.6-0.7,1.5-1,2.5-1c0.6,0,1.1,0.1,1.6,0.4c0.5,0.2,0.9,0.6,1.2,1h0v-1.2H125.1z
		 M121.6,142c-0.9,0-1.6,0.4-2.2,1.2c-0.4,0.6-0.6,1.2-0.6,1.9c0,0.8,0.3,1.6,0.8,2.2c0.5,0.6,1.2,0.9,2,0.9c0.9,0,1.6-0.3,2.1-0.9
		c0.5-0.6,0.8-1.4,0.8-2.3c0-0.8-0.3-1.5-0.8-2.1C123.1,142.3,122.5,142,121.6,142z"/>
	<path d="M128.5,142.1c-0.2,0-0.3,0.1-0.3,0.3v6.2h-0.7v-6.5h-0.8v-0.6h0.8v-3.2c0-0.8,0.1-1.4,0.3-1.7c0.3-0.6,0.9-0.9,1.6-0.9
		c0.2,0,0.4,0,0.6,0.1v0.6c-0.4-0.1-0.6-0.1-0.6-0.1c-0.3,0-0.5,0.1-0.7,0.2c-0.2,0.1-0.3,0.3-0.4,0.5s-0.1,0.5-0.1,0.6
		c0,0.2,0,0.4,0,0.7v2.8c0,0.2,0.1,0.3,0.3,0.3h1.5v0.6H128.5z"/>
	<path d="M137.1,145.1h-5.6c-0.2,0-0.3,0.1-0.3,0.3c0,0.8,0.3,1.4,0.8,1.9c0.5,0.6,1.2,0.8,2.1,0.8c0.5,0,1-0.1,1.5-0.4
		c0.4-0.3,0.8-0.7,1.1-1.2l0.6,0.3c-0.7,1.3-1.7,1.9-3.2,1.9c-1,0-1.9-0.4-2.5-1.1c-0.6-0.7-1-1.6-1-2.7c0-1,0.3-1.9,1-2.6
		c0.6-0.7,1.5-1.1,2.5-1.1c1.1,0,1.9,0.4,2.5,1.1c0.6,0.7,0.9,1.5,0.9,2.4C137.4,145,137.3,145.1,137.1,145.1z M131.2,144.5h5.2
		c0.2,0,0.3-0.2,0.3-0.3c-0.1-0.5-0.4-1-0.8-1.4c-0.5-0.5-1.1-0.7-1.8-0.8c-0.8,0-1.4,0.2-2,0.7
		C131.6,143.2,131.3,143.8,131.2,144.5z"/>
	<path d="M145.4,141.5v7.1h-0.7v-1.3h0c-0.3,0.4-0.6,0.8-1.1,1.1c-0.5,0.3-1,0.4-1.6,0.4c-1.1,0-1.9-0.4-2.6-1.1
		c-0.6-0.7-1-1.6-1-2.7c0-1.1,0.3-1.9,1-2.6c0.6-0.7,1.5-1,2.5-1c0.6,0,1.1,0.1,1.6,0.4c0.5,0.2,0.9,0.6,1.2,1h0v-1.2H145.4z
		 M141.9,142c-0.9,0-1.6,0.4-2.2,1.2c-0.4,0.6-0.6,1.2-0.6,1.9c0,0.8,0.3,1.6,0.8,2.2c0.5,0.6,1.2,0.9,2,0.9c0.9,0,1.6-0.3,2.1-0.9
		c0.5-0.6,0.8-1.4,0.8-2.3c0-0.8-0.3-1.5-0.8-2.1C143.4,142.3,142.7,142,141.9,142z"/>
</g>
<g>
	<g>
		<path class="st0" d="M-264.9,116.7l-2-0.4l-1.9-0.4l-2.5-0.6C-268.3,114.7-266.3,115.4-264.9,116.7z"/>
	</g>
	<g>
		<circle class="st3" cx="-241.6" cy="120" r="0.7"/>
		<g>
			<path class="st3" d="M-244.1,134.3c-1.7,1.6-3.9,2.4-6.6,2.4c-0.9,0-1.8-0.1-2.8-0.3c-2.8-0.5-4.7-1.9-5.9-3.7
				c-0.3-0.4-0.5-0.8-0.8-1.3c0,0-0.1-0.1-0.1-0.1c-0.2-0.5-0.5-1-0.7-1.5c-0.6-1.7-1.1-3.4-1.5-5.2c-0.2-0.9-0.4-1.8-0.6-2.6
				c-0.1-0.3-0.2-0.6-0.3-0.9c-0.1-0.3-0.2-0.7-0.3-1c-0.1-0.3-0.2-0.6-0.4-0.9c-0.7-1.4-1.5-2.5-2.9-3c-0.6-0.2-1.2-0.4-1.9-0.4
				c-0.5,0-1.1,0-1.7,0.1c-0.4,0-0.7-0.2-0.8-0.6l0,0l0,0c-0.1-0.4,0.2-0.8,0.6-0.8c3.6-0.4,5.7,0.7,7.1,2.6c0.7,0.9,1.2,2,1.6,3.1
				c0.1,0.3,0.2,0.7,0.3,1c0.1,0.5,0.3,0.9,0.4,1.4c0.1,0.6,0.3,1.1,0.4,1.7c0,0,0,0.1,0,0.1c0.2,1,0.5,1.9,0.7,2.8
				c0.2,0.8,0.5,1.6,0.7,2.3c0.1,0.2,0.1,0.3,0.2,0.5c0.2,0.5,0.5,1,0.7,1.4c1.1,1.8,2.7,3.2,5.3,3.6c3.5,0.6,6.2,0,8.1-1.8
				c3.2-3,3.2-8.5,3.1-10.4c0-0.4,0.3-0.7,0.6-0.7l0.1,0l0,0c0.4,0,0.8,0.3,0.8,0.7C-240.4,124.8-240.5,130.9-244.1,134.3z"/>
		</g>
		<g>
			<path class="st3" d="M-263.8,123.2c0-0.2-0.1-0.4-0.2-0.6c-0.2-0.6-0.5-1-1.1-1.3c-0.3-0.2-0.7-0.3-1.1-0.5c-1-0.3-2-0.5-3.1-0.4
				c-3.4,0.3-6.1,3-6.6,6.3c-0.6,4.5,2.9,8.3,7.3,8.3c0.2,0,0.3,0,0.5,0c0.9-0.1,1.7-0.7,2.1-1.5l0.2-0.7c-0.8,0.5-1.8,0.7-2.8,0.7
				c-3.5,0-6.2-3-5.8-6.6c0.3-2.5,2.4-4.6,4.9-5c1.5-0.2,2.8,0.1,4,0.8c0.9,0.5,1.6,1.3,2.1,2.2
				C-263.5,124.3-263.7,123.7-263.8,123.2z"/>
		</g>
	</g>
	<g>
		<g>
			<path class="st4" d="M-252.3,123.7L-252.3,123.7c-0.2-0.1-0.4-0.3-0.3-0.6l3-9.2c0.1-0.2,0.3-0.4,0.6-0.3l0,0
				c0.2,0.1,0.4,0.3,0.3,0.6l-3,9.2C-251.8,123.6-252,123.7-252.3,123.7z"/>
		</g>
		<g>
			<path class="st4" d="M-248.9,118.9L-248.9,118.9c-0.2-0.2-0.2-0.5,0-0.6l3.4-3.1c0.2-0.2,0.2-0.4,0-0.6l-3.1-3.3
				c-0.2-0.2-0.2-0.5,0-0.6l0,0c0.2-0.2,0.5-0.2,0.6,0l3.7,4c0.2,0.2,0.2,0.5,0,0.6l-4,3.6C-248.5,119.1-248.8,119.1-248.9,118.9z"
				/>
		</g>
		<g>
			<path class="st4" d="M-253.6,126.1l-3.7-4c-0.2-0.2-0.2-0.5,0-0.6l4-3.6c0.2-0.2,0.5-0.2,0.6,0l0,0c0.2,0.2,0.2,0.5,0,0.6
				l-3.4,3.1c-0.2,0.2-0.2,0.4,0,0.6l3.1,3.3c0.2,0.2,0.2,0.5,0,0.6l0,0C-253.1,126.3-253.4,126.3-253.6,126.1z"/>
		</g>
	</g>
	<polyline class="st5" points="-267,136.5 -266.4,134.7 -265.7,132.8 -264.3,128.9 	"/>
</g>
<linearGradient id="SVGID_1_" gradientUnits="userSpaceOnUse" x1="32.4986" y1="8.5918" x2="33.9744" y2="8.5918">
	<stop  offset="0" style="stop-color:#FFFFFF"/>
	<stop  offset="1" style="stop-color:#4F79D6"/>
</linearGradient>
<circle class="st6" cx="33.2" cy="8.6" r="0.7"/>
<g>
	<g>
		<path class="st0" d="M30.7,22.9c-1.7,1.6-3.9,2.4-6.6,2.4c-0.9,0-1.8-0.1-2.8-0.3c-2.8-0.5-4.7-1.9-5.9-3.7
			c-0.3-0.4-0.5-0.8-0.8-1.3c0,0-0.1-0.1-0.1-0.1c-0.2-0.5-0.5-1-0.7-1.5c-0.6-1.7-1.1-3.4-1.5-5.2c-0.2-0.9-0.4-1.8-0.6-2.6
			c-0.1-0.3-0.2-0.6-0.3-0.9c-0.1-0.3-0.2-0.7-0.3-1c-0.1-0.3-0.2-0.6-0.4-0.9c-0.7-1.4-1.5-2.5-2.9-3C7.4,4.6,6.7,4.5,6,4.4
			c-0.5,0-1.1,0-1.7,0.1c-0.4,0-0.7-0.2-0.8-0.6l0,0l0,0C3.4,3.5,3.7,3.1,4.1,3c3.6-0.4,5.7,0.7,7.1,2.6c0.7,0.9,1.2,2,1.6,3.1
			c0.1,0.3,0.2,0.7,0.3,1c0.1,0.5,0.3,0.9,0.4,1.4c0.1,0.6,0.3,1.1,0.4,1.7c0,0,0,0.1,0,0.1c0.2,1,0.5,1.9,0.7,2.8
			c0.2,0.8,0.5,1.6,0.7,2.3c0.1,0.2,0.1,0.3,0.2,0.5c0.2,0.5,0.5,1,0.7,1.4c1.1,1.8,2.7,3.2,5.3,3.6c3.5,0.6,6.2,0,8.1-1.8
			c3.2-3,3.2-8.5,3.1-10.4c0-0.4,0.3-0.7,0.6-0.7l0.1,0l0,0c0.4,0,0.8,0.3,0.8,0.7C34.4,13.4,34.4,19.4,30.7,22.9z"/>
	</g>
	<g>
		<path class="st0" d="M12,11.7c0-0.2-0.1-0.4-0.2-0.6c-0.2-0.6-0.5-1-1.1-1.3c-0.3-0.2-0.7-0.3-1.1-0.5C8.8,9,7.7,8.9,6.6,9
			c-3.4,0.3-6.1,3-6.6,6.3c-0.6,4.5,2.9,8.3,7.3,8.3c0.2,0,0.3,0,0.5,0c0.9-0.1,1.7-0.7,2.1-1.5l0.2-0.7c-0.8,0.5-1.8,0.7-2.8,0.7
			c-3.5,0-6.2-3-5.8-6.6c0.3-2.5,2.4-4.6,4.9-5c1.5-0.2,2.8,0.1,4,0.8c0.9,0.5,1.6,1.3,2.1,2.2C12.3,12.9,12.2,12.3,12,11.7z"/>
	</g>
</g>
<g>
	<g>
		<linearGradient id="SVGID_2_" gradientUnits="userSpaceOnUse" x1="22.3391" y1="8.0889" x2="26.1855" y2="8.0889">
			<stop  offset="0" style="stop-color:#FFFFFF"/>
			<stop  offset="1" style="stop-color:#4F79D6"/>
		</linearGradient>
		<path class="st7" d="M22.7,13.1L22.7,13.1c-0.2-0.1-0.4-0.3-0.3-0.6l3-9.2c0.1-0.2,0.3-0.4,0.6-0.3l0,0c0.2,0.1,0.4,0.3,0.3,0.6
			l-3,9.2C23.1,13,22.9,13.2,22.7,13.1z"/>
	</g>
	<g>
		<linearGradient id="SVGID_3_" gradientUnits="userSpaceOnUse" x1="25.8901" y1="4.2565" x2="30.8307" y2="4.2565">
			<stop  offset="0" style="stop-color:#FFFFFF"/>
			<stop  offset="1" style="stop-color:#4F79D6"/>
		</linearGradient>
		<path class="st8" d="M26,8.4L26,8.4c-0.2-0.2-0.2-0.5,0-0.6l3.4-3.1c0.2-0.2,0.2-0.4,0-0.6l-3.1-3.3c-0.2-0.2-0.2-0.5,0-0.6l0,0
			C26.6,0,26.8,0,27,0.1l3.7,4c0.2,0.2,0.2,0.5,0,0.6l-4,3.6C26.5,8.6,26.2,8.5,26,8.4z"/>
	</g>
	<g>
		<linearGradient id="SVGID_4_" gradientUnits="userSpaceOnUse" x1="17.5328" y1="11.4514" x2="22.4733" y2="11.4514">
			<stop  offset="0" style="stop-color:#FFFFFF"/>
			<stop  offset="1" style="stop-color:#4F79D6"/>
		</linearGradient>
		<path class="st9" d="M21.4,15.6l-3.7-4c-0.2-0.2-0.2-0.5,0-0.6l4-3.6c0.2-0.2,0.5-0.2,0.6,0l0,0c0.2,0.2,0.2,0.5,0,0.6L18.9,11
			c-0.2,0.2-0.2,0.4,0,0.6L22,15c0.2,0.2,0.2,0.5,0,0.6l0,0C21.8,15.8,21.5,15.7,21.4,15.6z"/>
	</g>
</g>
<polyline class="st5" points="7.8,25.1 8.5,23.3 9.1,21.4 10.6,17.5 "/>
<g>
	<g>
		<path class="st0" d="M29.8,124.7l-2.4-0.5l-2.3-0.5L22,123C25.8,122.3,28.2,123.1,29.8,124.7z"/>
	</g>
	<g>
		<circle class="st3" cx="58" cy="128.7" r="0.9"/>
		<g>
			<path class="st3" d="M55,145.9c-2,1.9-4.7,2.9-8,2.9c-1.1,0-2.2-0.1-3.4-0.3c-3.4-0.6-5.6-2.2-7.2-4.4c-0.3-0.5-0.7-1-0.9-1.5
				c0-0.1-0.1-0.1-0.1-0.2c-0.3-0.6-0.6-1.2-0.8-1.8c-0.8-2-1.3-4.2-1.8-6.2c-0.3-1.1-0.5-2.1-0.8-3.1c-0.1-0.4-0.2-0.7-0.3-1.1
				c-0.1-0.4-0.3-0.8-0.4-1.2c-0.1-0.4-0.3-0.7-0.4-1c-0.8-1.7-1.8-3-3.5-3.7c-0.7-0.3-1.4-0.5-2.3-0.5c-0.6,0-1.3,0-2.1,0.1
				c-0.5,0.1-0.9-0.3-1-0.7l0-0.1l0,0c-0.1-0.5,0.3-1,0.7-1c4.3-0.5,6.9,0.8,8.5,3.1c0.8,1.1,1.4,2.4,1.9,3.8
				c0.1,0.4,0.3,0.8,0.4,1.2c0.2,0.6,0.3,1.1,0.5,1.7c0.2,0.7,0.3,1.4,0.5,2.1c0,0,0,0.1,0,0.1c0.3,1.2,0.6,2.3,0.9,3.4
				c0.3,1,0.6,1.9,0.9,2.7c0.1,0.2,0.1,0.4,0.2,0.5c0.3,0.6,0.5,1.2,0.9,1.7c1.3,2.2,3.3,3.8,6.4,4.4c4.2,0.7,7.5,0,9.8-2.1
				c3.8-3.6,3.9-10.3,3.8-12.6c0-0.5,0.3-0.9,0.8-0.9l0.1,0h0c0.5-0.1,0.9,0.3,1,0.8C59.4,134.5,59.4,141.8,55,145.9z"/>
		</g>
		<g>
			<path class="st3" d="M31.2,132.5c-0.1-0.2-0.1-0.5-0.2-0.7c-0.2-0.7-0.6-1.3-1.3-1.6c-0.4-0.2-0.8-0.4-1.3-0.6
				c-1.1-0.4-2.4-0.6-3.8-0.5c-4.1,0.4-7.4,3.6-7.9,7.7c-0.7,5.4,3.5,10,8.8,10c0.2,0,0.4,0,0.6,0c1.1-0.1,2.1-0.8,2.5-1.8l0.3-0.8
				c-1,0.6-2.1,0.9-3.4,0.9c-4.2,0-7.5-3.7-7-8c0.4-3.1,2.8-5.6,5.9-6.1c1.8-0.3,3.4,0.1,4.8,0.9c1,0.6,1.9,1.5,2.5,2.6
				C31.5,133.8,31.4,133.2,31.2,132.5z"/>
		</g>
	</g>
	<g>
		<g>
			<path class="st4" d="M45.1,133.1L45.1,133.1c-0.3-0.1-0.4-0.4-0.3-0.7l3.6-11.1c0.1-0.3,0.4-0.4,0.7-0.3h0
				c0.3,0.1,0.4,0.4,0.3,0.7l-3.6,11.1C45.7,133,45.4,133.2,45.1,133.1z"/>
		</g>
		<g>
			<path class="st4" d="M49.2,127.4L49.2,127.4c-0.2-0.2-0.2-0.6,0-0.7l4.1-3.7c0.2-0.2,0.2-0.5,0-0.7l-3.7-4
				c-0.2-0.2-0.2-0.6,0-0.7l0,0c0.2-0.2,0.6-0.2,0.8,0l4.5,4.8c0.2,0.2,0.2,0.6,0,0.7l-4.9,4.4C49.7,127.6,49.4,127.6,49.2,127.4z"
				/>
		</g>
		<g>
			<path class="st4" d="M43.5,136.1l-4.5-4.8c-0.2-0.2-0.2-0.6,0-0.7l4.9-4.4c0.2-0.2,0.6-0.2,0.8,0l0,0c0.2,0.2,0.2,0.6,0,0.7
				l-4.1,3.7c-0.2,0.2-0.2,0.5,0,0.7l3.7,4c0.2,0.2,0.2,0.6,0,0.7h0C44.1,136.3,43.8,136.3,43.5,136.1z"/>
		</g>
	</g>
	<polyline class="st5" points="27.3,148.6 28.1,146.4 28.9,144.2 30.6,139.5 	"/>
</g>
<g>
	<path class="st0" d="M-267.1,154.9l-2-0.4l-1.9-0.4l-2.5-0.6C-270.5,152.9-268.5,153.5-267.1,154.9z"/>
</g>
<polyline class="st5" points="-269.2,174.6 -268.6,172.9 -267.9,171 -266.5,167.1 "/>
</svg>
