<?xml version="1.0" encoding="utf-8"?>
<!-- Generator: Adobe Illustrator 23.0.5, SVG Export Plug-In . SVG Version: 6.00 Build 0)  -->
<svg version="1.1" id="Layer_1" xmlns="http://www.w3.org/2000/svg" xmlns:xlink="http://www.w3.org/1999/xlink" x="0px" y="0px"
	 viewBox="0 0 483.2 398.9" style="enable-background:new 0 0 483.2 398.9;" xml:space="preserve">
<style type="text/css">
	.st0{opacity:0.13;}
	.st1{fill:#6066D5;}
	.st2{fill:#E8ABA2;}
	.st3{fill:#2A2422;}
	.st4{fill:#231F20;}
	.st5{fill:#171211;}
	.st6{fill:none;stroke:#231F20;stroke-miterlimit:10;}
	.st7{fill:none;}
	.st8{fill:#201917;}
	.st9{fill:url(#SVGID_1_);}
	.st10{fill:url(#SVGID_2_);}
	.st11{fill:#231F20;stroke:#231F20;stroke-miterlimit:10;}
	.st12{fill:#B64ADB;}
	.st13{fill:#CFBBEB;}
	.st14{fill:none;stroke:#D8857D;stroke-width:0.9962;stroke-miterlimit:10;}
	.st15{fill:none;stroke:#AB8BDB;stroke-width:1.9923;stroke-miterlimit:10;}
	.st16{fill:#AB8BDB;}
	.st17{fill:#1A1A1A;}
	.st18{fill:#49ACCC;}
	.st19{fill:#4888BC;}
	.st20{fill:#4F79D6;}
	.st21{fill:#5436BF;}
	.st22{fill:#6C26A7;}
	.st23{fill:#1C1C1B;}
	.st24{fill:url(#SVGID_3_);}
	.st25{fill:url(#SVGID_4_);}
	.st26{fill:url(#SVGID_5_);}
	.st27{fill:url(#SVGID_6_);}
	.st28{fill:url(#SVGID_7_);}
	.st29{fill:url(#SVGID_8_);}
	.st30{fill:#FFFFFF;}
	.st31{fill:#513600;}
	.st32{fill:none;stroke:#231F20;stroke-width:0.75;stroke-miterlimit:10;}
</style>
<g class="st0">
	<g>
		<path class="st1" d="M-36.1,255.9c0-118.8-96.3-215-215-215s-215,96.3-215,215c0,49.9,17,95.7,45.4,132.2h339.1
			C-53,351.7-36.1,305.8-36.1,255.9z"/>
	</g>
</g>
<polygon class="st2" points="281.2,143.8 280.9,105.9 253.4,105.9 252.8,142.8 "/>
<g>
	<path class="st3" d="M250.5,62.8c0.9,0.9,1.9,1.8,2.9,2.6s2.1,1.5,3.1,2.1c1.1,0.7,2.2,1.2,3.4,1.7c1.2,0.5,2.4,0.8,3.7,1.2
		c-1.3,0-2.7-0.1-3.9-0.5c-0.7-0.1-1.3-0.4-1.9-0.6c-0.6-0.3-1.2-0.6-1.8-0.9C253.8,67,251.8,65.1,250.5,62.8z"/>
</g>
<g>
	<path class="st3" d="M250.5,61.9c1,0.6,1.9,1.3,2.8,2.1c0.4,0.4,0.8,0.8,1.2,1.2c0.4,0.4,0.8,0.8,1.2,1.3c-0.6-0.1-1.2-0.4-1.7-0.7
		c-0.5-0.3-1-0.7-1.4-1.1s-0.8-0.8-1.2-1.3C251,63,250.7,62.5,250.5,61.9z"/>
</g>
<g>
	<path class="st3" d="M250,60.9c0.7,0.2,1.3,0.6,1.8,1s0.9,0.9,1.3,1.5c-0.4,0.1-0.8,0-1.1-0.2c-0.3-0.1-0.6-0.3-0.9-0.6
		C250.7,62.2,250.2,61.7,250,60.9z"/>
</g>
<g>
	<path class="st3" d="M249.9,59.3c1,0.7,1.8,1.5,2.6,2.1c0.4,0.4,0.9,0.7,1.3,1c0.4,0.4,0.9,0.7,1.3,1.1c-1.2-0.1-2.3-0.6-3.3-1.4
		c-0.5-0.4-0.9-0.8-1.2-1.3C250.3,60.4,250,59.9,249.9,59.3z"/>
</g>
<g>
	<path class="st3" d="M249.7,57.8c0.7,0.6,1.3,1.2,1.9,1.8c0.6,0.6,1.3,1.2,1.9,1.7c1.3,1.1,2.6,2.1,4.3,2.9c-0.9,0-1.8-0.2-2.6-0.6
		c-0.8-0.4-1.6-0.9-2.3-1.5s-1.3-1.3-1.8-2C250.6,59.4,250.1,58.6,249.7,57.8z"/>
</g>
<g>
	<path class="st3" d="M254.1,63.7c1.5,0.9,2.9,1.8,4.4,2.5c0.7,0.4,1.5,0.7,2.3,1s1.6,0.5,2.4,0.7c-0.9,0.2-1.8,0.2-2.6,0
		c-0.9-0.2-1.7-0.5-2.5-0.9s-1.5-0.9-2.2-1.5C255.2,65.1,254.6,64.4,254.1,63.7z"/>
</g>
<g>
	<path class="st3" d="M255.9,66c0.7,0.3,1.4,0.7,2.1,1s1.4,0.7,2.1,0.9c1.4,0.6,2.8,1,4.4,1.1c-0.7,0.4-1.6,0.5-2.4,0.4
		s-1.6-0.3-2.4-0.6c-0.7-0.3-1.5-0.7-2.1-1.2C257,67.2,256.4,66.7,255.9,66z"/>
</g>
<g>
	<path class="st3" d="M249.8,56.6c0.8,1,1.8,1.7,2.8,2.4s2.1,1.3,3.1,1.8c1.1,0.6,2.2,1,3.3,1.5l1.7,0.6c0.6,0.2,1.2,0.4,1.8,0.6
		c-0.6,0-1.2-0.1-1.9-0.2c-0.6-0.1-1.2-0.2-1.8-0.4c-1.2-0.3-2.4-0.7-3.6-1.3c-1.1-0.6-2.2-1.2-3.2-2.1
		C251.2,58.7,250.3,57.7,249.8,56.6z"/>
</g>
<g>
	<path class="st3" d="M250,55.2c0.3,0,0.5-0.1,0.8-0.1l0,0l0.1,0.1c0.6,0.7,1.4,1.2,2.2,1.6c0.9,0.5,1.6,1.1,2.4,1.6s1.6,1,2.4,1.4
		s1.7,0.8,2.6,1.1c-2,0.1-3.9-0.6-5.6-1.7c-0.8-0.5-1.6-1.2-2.3-1.7c-0.8-0.6-1.6-1.2-2-2.2l0.1,0.1C250.5,55.4,250.2,55.3,250,55.2
		z"/>
</g>
<g>
	<path class="st3" d="M251.1,54.8c0.8,0.4,1.5,0.8,2.2,1.3c0.3,0.2,0.7,0.5,1,0.7c0.3,0.3,0.7,0.5,1,0.9c-0.9,0.1-1.8-0.3-2.5-0.8
		c-0.4-0.3-0.7-0.5-1-0.9C251.4,55.6,251.2,55.2,251.1,54.8z"/>
</g>
<g>
	<path class="st3" d="M250.8,56.3c2,1.5,3.9,3,5.9,4.2c1,0.6,2.1,1.2,3.2,1.6c1.1,0.4,2.2,0.7,3.5,0.8c-1.2,0.3-2.5,0.2-3.7-0.1
		s-2.4-0.9-3.4-1.5c-1.1-0.7-2.1-1.4-3-2.3C252.3,58.2,251.5,57.3,250.8,56.3z"/>
</g>
<g>
	<path class="st3" d="M260,64.6c1.2,0.3,2.2,0.6,3.3,0.8c0.5,0.1,1.1,0.3,1.6,0.4s1.1,0.2,1.7,0.4c-1.1,0.5-2.4,0.4-3.5,0.2
		c-0.6-0.1-1.1-0.4-1.7-0.7C260.8,65.4,260.3,65.1,260,64.6z"/>
</g>
<g>
	<path class="st3" d="M266.9,67.4c0.7,0.1,1.3,0,2,0c0.6-0.1,1.3-0.1,1.9-0.3c0.6-0.1,1.3-0.2,1.9-0.3c0.6-0.1,1.3-0.2,2-0.3
		c-0.5,0.4-1.1,0.8-1.8,1c-0.6,0.3-1.3,0.5-2,0.6s-1.4,0.2-2.1,0.1C268.2,68.1,267.5,67.9,266.9,67.4z"/>
</g>
<g>
	<path class="st3" d="M257.1,64.8c1.1,0.4,2.1,0.8,3.1,1.1c0.5,0.2,1,0.3,1.5,0.5s1.1,0.3,1.6,0.5c-1.1,0.4-2.4,0.3-3.5-0.1
		c-0.6-0.2-1.1-0.5-1.6-0.8C257.8,65.7,257.4,65.3,257.1,64.8z"/>
</g>
<g>
	<path class="st3" d="M256.6,62.6c1.4,0.3,2.8,0.7,4.1,1.2c1.3,0.4,2.6,0.9,4,1.3c-0.7,0.2-1.5,0.2-2.2,0.1s-1.4-0.3-2.1-0.5
		s-1.4-0.5-2-0.9C257.8,63.5,257.2,63.1,256.6,62.6z"/>
</g>
<g>
	<path class="st3" d="M274.4,63.2c1,0.4,2,0.8,3,1.1s2,0.5,3.1,0.6c0.5,0,1,0,1.5,0s1-0.1,1.6-0.2c1.1-0.1,2.2,0.1,3.3,0.2
		c1.1,0.2,2.2,0.5,3.2,1c1,0.4,2,1,2.8,1.8c0.9,0.7,1.5,1.7,2,2.7s0.5,2.2,0.4,3.2c-0.2-2.2-1.2-4.1-2.9-5.3
		c-0.8-0.6-1.7-1.1-2.7-1.5s-2-0.7-3-0.8c-1-0.2-2.1-0.3-3.1-0.3c-0.5,0-1,0.1-1.6,0.1s-1.1,0-1.7-0.1
		C278.2,65.3,276.2,64.4,274.4,63.2z"/>
</g>
<g>
	<path class="st3" d="M275.1,64.8c1.3,0.3,2.5,0.7,3.7,1c0.6,0.2,1.2,0.3,1.8,0.4c0.6,0.1,1.2,0.1,1.9,0.2c-0.6,0.4-1.2,0.6-1.9,0.6
		c-0.7,0.1-1.4,0-2-0.2s-1.3-0.4-1.8-0.7C276.1,65.7,275.6,65.3,275.1,64.8z"/>
</g>
<g>
	<path class="st3" d="M258.2,49.1c2.2,0,4.4,0.1,6.6,0.1c1.1,0,2.1,0,3.2-0.2c0.5-0.1,1.1-0.2,1.6-0.4c0.5-0.1,1-0.4,1.6-0.4
		c-0.5,0.2-0.9,0.6-1.4,0.8c-0.5,0.3-1,0.5-1.6,0.7c-1.1,0.3-2.3,0.4-3.4,0.4s-2.2-0.1-3.3-0.3C260.4,49.8,259.3,49.5,258.2,49.1z"
		/>
</g>
<g>
	<path class="st3" d="M252.3,54.1c2.1,0.4,4.1,0.6,6.2,0.8c2.1,0.3,4.1,0.5,6.2,0.9c-1.1,0.2-2.1,0.3-3.2,0.3s-2.1-0.1-3.2-0.2
		c-1.1-0.1-2.1-0.3-3.1-0.6C254.2,55.1,253.2,54.7,252.3,54.1z"/>
</g>
<g>
	<path class="st3" d="M254.5,53.3c1.6-0.2,3.1-0.1,4.6,0.1c1.5,0.2,3,0.4,4.5,0.9c-0.8,0.2-1.6,0.2-2.3,0.2c-0.8,0-1.5-0.1-2.3-0.1
		C257.5,54.1,256,53.9,254.5,53.3z"/>
</g>
<g>
	<path class="st3" d="M255.9,52.2c1.7-0.3,3.4-0.2,5-0.1c0.8,0.1,1.7,0.1,2.5,0.2c0.8,0.1,1.6,0.3,2.5,0.4c-0.8,0.3-1.7,0.3-2.5,0.4
		c-0.8,0-1.7,0-2.5,0C259.2,52.9,257.6,52.7,255.9,52.2z"/>
</g>
<g>
	<path class="st3" d="M256.3,50.7c1.7-0.2,3.3-0.1,4.9,0c0.8,0.1,1.6,0.2,2.4,0.3s1.6,0.3,2.4,0.5c-0.8,0.3-1.6,0.3-2.5,0.3
		c-0.8,0-1.6,0-2.4-0.1C259.5,51.5,257.9,51.2,256.3,50.7z"/>
</g>
<g>
	<path class="st3" d="M266.3,65c1-0.1,1.9,0,2.8,0l1.3,0.1c0.5,0,0.9,0.1,1.4,0.2C271,65.9,270,66,269,66c-0.5,0-1-0.1-1.4-0.3
		C267.1,65.5,266.6,65.3,266.3,65z"/>
</g>
<g>
	<path class="st3" d="M289.5,67c0.8,0.2,1.5,0.5,2.1,0.9c0.7,0.4,1.2,1,1.8,1.6c0.5,0.6,0.9,1.3,1.1,2.1c0.2,0.8,0.2,1.6,0,2.4
		c-0.2-0.8-0.4-1.4-0.8-2.1c-0.3-0.6-0.7-1.2-1.2-1.8C291.7,69,290.7,68,289.5,67z"/>
</g>
<g>
	<path class="st3" d="M255.8,56c1.3,0.6,2.5,1.2,3.7,1.6c0.6,0.2,1.2,0.4,1.9,0.6c0.6,0.2,1.3,0.3,2,0.5c-0.7,0.2-1.4,0.4-2.1,0.3
		c-0.7,0-1.4-0.2-2.1-0.4c-0.7-0.3-1.3-0.6-1.9-1C256.7,57.1,256.2,56.6,255.8,56z"/>
</g>
<g>
	<path class="st3" d="M259.8,57c1.3,0.1,2.5,0.1,3.7,0c0.6,0,1.2-0.1,1.8-0.1c0.6,0,1.2-0.1,1.9-0.1c-1.1,0.8-2.4,1.1-3.7,1.2
		c-0.7,0-1.3,0-2-0.2C261,57.6,260.3,57.4,259.8,57z"/>
</g>
<g>
	<path class="st3" d="M262.9,60.8c1.4,0.6,2.7,0.9,4.1,1.1c0.7,0.1,1.4,0.1,2.1,0.2c0.7,0,1.4,0,2.2,0.1c-0.7,0.3-1.4,0.5-2.2,0.7
		c-0.7,0.1-1.5,0.1-2.3,0s-1.5-0.3-2.2-0.6C263.9,61.9,263.3,61.5,262.9,60.8z"/>
</g>
<g>
	<path class="st3" d="M264.7,60.4c1-0.3,1.9-0.3,2.9-0.3s1.9,0.1,2.9,0.4c-0.9,0.5-1.9,0.6-2.9,0.6C266.6,61,265.6,60.9,264.7,60.4z
		"/>
</g>
<g>
	<path class="st3" d="M265.6,63.3c1.1-0.1,2.1,0,3.1,0c0.5,0,1,0,1.5,0l1.5-0.1c-0.4,0.4-0.9,0.7-1.4,0.8c-0.5,0.2-1.1,0.2-1.6,0.2
		s-1.1-0.1-1.6-0.3C266.5,63.9,266,63.7,265.6,63.3z"/>
</g>
<g>
	<path class="st3" d="M268.2,66.6c1-0.3,1.9-0.4,2.8-0.5c0.5,0,0.9-0.1,1.4-0.1s0.9-0.1,1.5,0c-0.8,0.7-1.8,1-2.7,1.2
		c-0.5,0.1-1,0.1-1.5,0C269.2,67,268.7,66.9,268.2,66.6z"/>
</g>
<g>
	<path class="st3" d="M264.8,59.3c0.8-0.1,1.5,0,2.1,0l1,0.1c0.3,0,0.7,0.1,1.1,0.2c-0.6,0.6-1.4,0.8-2.2,0.7
		C266.1,60.2,265.3,60,264.8,59.3z"/>
</g>
<g>
	<path class="st3" d="M256.3,58.1c1.3,0.1,2.4,0.4,3.5,0.8l1.7,0.5c0.6,0.2,1.1,0.4,1.7,0.5c-0.6,0.3-1.3,0.3-1.9,0.3
		s-1.2-0.2-1.8-0.4C258.4,59.4,257.3,58.9,256.3,58.1z"/>
</g>
<g>
	<path class="st3" d="M252.8,53.4c0.4-0.1,0.8-0.1,1.3-0.1c0.2,0,0.4,0,0.7,0.1c0.1,0,0.2,0.1,0.4,0.1c0.2,0.1,0.1,0,0.2,0.1
		c0.7,0.1,1.6,0.2,2.4,0.3c1.6,0.3,3.2,0.6,4.8,1.2c-0.8,0.1-1.7,0.1-2.5,0.1s-1.6-0.1-2.5-0.2c-0.8-0.1-1.6-0.3-2.5-0.6
		c-0.1,0-0.3-0.2-0.4-0.2c-0.1,0-0.1-0.1-0.2-0.1c-0.2-0.1-0.3-0.1-0.5-0.2C253.6,53.6,253.2,53.5,252.8,53.4z"/>
</g>
<g>
	<path class="st3" d="M254.2,52.6c0-0.2,0.1-0.4,0.2-0.5c0.1-0.1,0.3-0.2,0.5-0.2s0.4,0.1,0.6,0.2c0.2,0.2,0.2,0.4,0.1,0.6
		c-0.2,0-0.4,0-0.5,0.1s-0.1,0.1-0.2,0.1C254.8,52.9,254.6,52.8,254.2,52.6z"/>
</g>
<g>
	<path class="st3" d="M255.5,51.2c0.6-0.4,1.2-0.5,1.8-0.5c0.3,0,0.6,0.1,0.9,0.2c0.3,0.1,0.6,0.4,0.7,0.8c-0.3-0.1-0.6,0-0.8,0
		c-0.3,0-0.5,0-0.8,0C256.6,51.7,256.1,51.6,255.5,51.2z"/>
</g>
<g>
	<path class="st3" d="M253.1,55.4c0.9,0.2,1.6,0.6,2.4,1c0.7,0.4,1.3,0.8,2.1,1.4c-0.5,0.1-0.9,0.1-1.4,0c-0.4-0.1-0.8-0.3-1.2-0.5
		C254.2,56.8,253.5,56.2,253.1,55.4z"/>
</g>
<g>
	<path class="st3" d="M265.1,53.8c3.4,0.1,6.7,0.4,10,0.7c0.8,0.1,1.7,0.1,2.5,0.1s1.7,0,2.6,0.2c1.7,0.3,3.3,1,4.7,1.9
		c-1.6-0.5-3.2-0.9-4.9-1.1c-0.8-0.1-1.6-0.1-2.4-0.1c-0.9,0-1.7,0-2.6-0.1C271.7,55.2,268.4,54.7,265.1,53.8z"/>
</g>
<g>
	<path class="st3" d="M264,52c2,0.1,4.1,0.3,6.1,0.4c2,0.2,4.1,0.4,6.1,0.5c0.5,0,1,0,1.5,0c0.3,0,0.5,0,0.7,0s0.6,0,0.8,0
		c1.1,0.1,2.1,0.5,3,1c1.9,1,3.5,2.2,5,3.6c-1.7-1.1-3.5-2.1-5.3-2.9c-0.9-0.4-1.9-0.7-2.8-0.8c-0.2,0-0.4,0-0.7,0
		c-0.3,0-0.5,0.1-0.8,0c-0.5,0-1,0-1.6,0C272,53.6,267.9,53,264,52z"/>
</g>
<g>
	<path class="st3" d="M267.3,55c3.3,0.3,6.6,0.9,9.9,1.3c0.8,0.1,1.6,0.1,2.5,0.2c0.9,0.1,1.7,0.3,2.5,0.6c1.6,0.5,3.1,1.4,4.4,2.4
		c-1.5-0.7-3.1-1.3-4.6-1.7c-0.8-0.2-1.6-0.3-2.4-0.4c-0.8-0.1-1.7-0.1-2.5-0.2C273.8,56.9,270.5,56.1,267.3,55z"/>
</g>
<g>
	<path class="st3" d="M266,58.5c1.8,0.2,3.6,0.5,5.5,0.8c1.8,0.3,3.6,0.5,5.4,0.7c0.9,0.1,1.8,0.2,2.7,0.2c0.9,0,1.8-0.1,2.8,0
		c1.9,0.2,3.7,0.9,5.1,2.1c-1.6-0.9-3.4-1.3-5.2-1.3c-0.9,0-1.7,0.1-2.7,0.1c-0.9,0-1.9,0-2.8-0.1C273.1,60.5,269.5,59.7,266,58.5z"
		/>
</g>
<g>
	<path class="st3" d="M286.4,63.8c1.2,0.1,2.5,0.5,3.6,1c1.2,0.5,2.2,1.2,3.2,2c0.9,0.9,1.7,1.9,2.2,3.1s0.6,2.5,0.4,3.7
		c-0.3-1.2-0.6-2.4-1.2-3.4s-1.3-1.9-2.2-2.7C290.8,66,288.7,64.8,286.4,63.8z"/>
</g>
<g>
	<path class="st3" d="M293.9,66.7c0.8,0.4,1.4,1,1.9,1.7s0.9,1.5,1.1,2.3s0.4,1.7,0.3,2.6c0,0.9-0.2,1.7-0.5,2.5
		c-0.1-0.8-0.2-1.7-0.3-2.4c-0.1-0.8-0.3-1.6-0.5-2.3C295.5,69.5,294.9,68.1,293.9,66.7z"/>
</g>
<g>
	<path class="st3" d="M289.4,63.2c0.7-0.3,1.5-0.4,2.3-0.4s1.6,0.1,2.4,0.4c0.8,0.3,1.5,0.8,2,1.5s0.7,1.5,0.6,2.3
		c-0.4-0.7-0.7-1.3-1.2-1.8s-1.1-0.8-1.8-1.1c-0.6-0.3-1.3-0.4-2.1-0.6C290.9,63.5,290.2,63.4,289.4,63.2z"/>
</g>
<g>
	<path class="st3" d="M272.6,61.3c1.2,0.3,2.5,0.6,3.7,0.9c1.2,0.3,2.4,0.5,3.6,0.6s2.6,0.2,3.8,0.5c1.3,0.3,2.5,0.7,3.7,1.2
		l-3.8-0.4c-1.3-0.1-2.5-0.2-3.8-0.3s-2.6-0.4-3.8-0.9C274.8,62.5,273.7,62,272.6,61.3z"/>
</g>
<g>
	<path class="st3" d="M268.6,57.7c2.3-0.3,4.7-0.2,7,0.1s4.6,0.7,6.8,1.7c-2.3-0.2-4.6-0.5-6.9-0.7
		C273.2,58.4,270.9,58.2,268.6,57.7z"/>
</g>
<g>
	<path class="st3" d="M267.3,50.6c1.6,0.5,3.3,0.5,4.9,0.6c1.7,0,3.3-0.1,5,0c0.8,0.1,1.7,0.1,2.6,0.3s1.7,0.5,2.4,0.9
		c1.5,0.7,3,1.5,4.5,2.4c-1.6-0.5-3.2-1-4.8-1.6c-0.4-0.1-0.8-0.3-1.2-0.4c-0.4-0.1-0.8-0.2-1.2-0.3c-0.8-0.1-1.6-0.2-2.4-0.3
		c-1.7-0.1-3.3-0.1-5-0.2C270.5,51.8,268.8,51.4,267.3,50.6z"/>
</g>
<g>
	<path class="st3" d="M269.7,49.9c1.4,0,2.8,0,4.2,0c0.6,0,1.4-0.1,2.1-0.1s1.4,0,2.1,0.1c1.4,0.1,2.8,0.4,4.2,0.8
		c1.3,0.4,2.7,1.1,3.7,2.1c-1.2-0.7-2.5-1-3.9-1.3c-1.3-0.3-2.7-0.5-4-0.6c-0.7-0.1-1.4-0.1-2-0.1c-0.3,0-0.7,0-1,0s-0.7,0-1.1,0
		C272.4,50.6,271,50.3,269.7,49.9z"/>
</g>
<g>
	<path class="st3" d="M261.9,48c1,0.1,1.9-0.1,2.9-0.2c0.9-0.1,1.9-0.3,2.9-0.4c1-0.1,1.9-0.1,2.9-0.1c1,0.1,2,0.1,2.9,0.5
		c-1,0-1.9,0.2-2.9,0.2l-2.9,0.3c-0.9,0.1-1.9,0.2-2.9,0.2C263.8,48.6,262.8,48.5,261.9,48z"/>
</g>
<g>
	<path class="st3" d="M268.7,46.1c0.5-0.3,1.1-0.4,1.7-0.4c0.6-0.1,1.2,0,1.8,0.1c1.2,0.2,2.3,0.7,3.1,1.6c-0.6-0.1-1.1-0.2-1.7-0.4
		c-0.5-0.1-1.1-0.2-1.6-0.3C270.9,46.5,269.9,46.4,268.7,46.1z"/>
</g>
<g>
	<path class="st3" d="M272.7,48.9c1-0.6,2.2-0.7,3.3-0.7c1.1,0,2.3,0.3,3.3,1c-1.2,0.1-2.2,0-3.3,0
		C274.9,49.1,273.8,49.1,272.7,48.9z"/>
</g>
<g>
	<path class="st3" d="M272.3,60.4c1.3,0.4,2.6,0.6,3.8,0.8c1.3,0.2,2.5,0.2,3.8,0.1c2.7,0,5.4,0.8,7.7,2.1c-1.3-0.3-2.6-0.6-3.8-0.8
		c-1.3-0.2-2.5-0.4-3.8-0.3c-0.6,0-1.3,0-2-0.1s-1.3-0.2-2-0.3C274.7,61.6,273.5,61.1,272.3,60.4z"/>
</g>
<g>
	<path class="st3" d="M283.8,59.7c1.1,0,2.3,0.1,3.4,0.4c1.1,0.3,2.2,0.7,3.2,1.2c1,0.6,2,1.2,2.8,2.1c0.8,0.9,1.4,1.9,1.7,3
		c-0.7-0.9-1.4-1.7-2.3-2.4c-0.9-0.7-1.8-1.3-2.7-1.8c-1-0.5-2-0.9-3-1.4C285.9,60.4,284.8,60,283.8,59.7z"/>
</g>
<g>
	<path class="st3" d="M288.2,63.2c1.1,0.2,2.2,0.5,3.3,1c1.1,0.4,2.1,1,3.1,1.6c0.9,0.7,1.9,1.4,2.6,2.4s1.1,2.2,0.8,3.4
		c-0.1-1.2-0.7-2.1-1.4-2.9c-0.7-0.8-1.6-1.5-2.5-2.1C292.2,65.4,290.2,64.4,288.2,63.2z"/>
</g>
<g>
	<path class="st3" d="M287.8,59.8c0.5-0.2,1-0.2,1.5-0.2s1,0.2,1.5,0.4c0.9,0.4,1.8,1.1,2.1,2.1c-0.5-0.2-0.9-0.5-1.3-0.7
		s-0.8-0.4-1.2-0.6C289.6,60.6,288.7,60.3,287.8,59.8z"/>
</g>
<g>
	<path class="st3" d="M288.2,59c0.5-0.2,1.1-0.2,1.7-0.1c0.6,0.1,1.1,0.2,1.6,0.4s1,0.5,1.4,1c0.4,0.4,0.7,1,0.8,1.5
		c-0.4-0.4-0.8-0.7-1.3-0.9c-0.4-0.2-0.9-0.5-1.3-0.7C290.1,59.8,289.2,59.4,288.2,59z"/>
</g>
<g>
	<path class="st3" d="M288.3,57.5c0.6-0.2,1.2-0.1,1.9,0c0.6,0.1,1.2,0.3,1.8,0.7c0.5,0.3,1,0.7,1.4,1.3c0.4,0.5,0.6,1.1,0.7,1.7
		c-0.5-0.4-0.8-0.8-1.3-1.2c-0.4-0.3-0.9-0.7-1.4-0.9C290.4,58.5,289.4,58,288.3,57.5z"/>
</g>
<g>
	<path class="st3" d="M288.3,55.9c0.8-0.2,1.7,0,2.5,0.3s1.6,0.8,2.2,1.4c0.6,0.6,1.1,1.4,1.4,2.2c0.2,0.4,0.3,0.8,0.4,1.2
		s0.1,0.8,0.1,1.3c-0.2-0.4-0.4-0.7-0.6-1.1c-0.2-0.3-0.4-0.7-0.6-1c-0.4-0.7-0.9-1.3-1.4-1.8c-0.5-0.6-1.2-1-1.8-1.4
		C289.9,56.5,289.2,56.2,288.3,55.9z"/>
</g>
<g>
	<path class="st3" d="M288.1,54.3c0.9-0.1,1.8,0.1,2.6,0.4c0.8,0.3,1.6,0.8,2.3,1.3c0.7,0.6,1.3,1.3,1.7,2.1
		c0.4,0.8,0.6,1.7,0.6,2.6c-0.4-0.8-0.8-1.5-1.3-2.2s-1-1.3-1.7-1.8C291.1,55.7,289.6,55,288.1,54.3z"/>
</g>
<g>
	<path class="st3" d="M287.5,52.5c1,0.2,2,0.6,3,1c0.9,0.5,1.8,1.1,2.6,1.8c0.8,0.7,1.5,1.5,2,2.5c0.5,0.9,0.8,2,0.8,3.1
		c-0.4-1-0.9-1.8-1.5-2.6s-1.3-1.5-2-2.2C291,54.7,289.3,53.6,287.5,52.5z"/>
</g>
<g>
	<path class="st3" d="M295.9,62c0.5,0,0.8,0.3,1.1,0.6c0.3,0.3,0.4,0.7,0.6,1.1c0.2,0.8,0.2,1.6-0.2,2.4c-0.2-0.4-0.4-0.7-0.5-1.1
		c-0.1-0.3-0.2-0.7-0.3-1c-0.1-0.3-0.2-0.7-0.3-1C296.2,62.7,296.1,62.3,295.9,62z"/>
</g>
<g>
	<path class="st3" d="M294.4,62.8c0.8,0.6,1.4,1.4,2,2.2s1,1.7,1.4,2.6c0.3,0.9,0.6,1.9,0.6,2.9c0.1,1-0.1,2-0.5,2.9
		c-0.1-1-0.1-1.9-0.3-2.8c-0.2-0.9-0.5-1.8-0.8-2.7C296.2,66.2,295.3,64.5,294.4,62.8z"/>
</g>
<g>
	<path class="st3" d="M293.3,72.2c0.4,0.2,0.8,0.6,1,1c0.3,0.4,0.4,0.8,0.5,1.3c0.2,0.9,0.1,1.9-0.4,2.7c-0.1-0.5-0.2-0.9-0.3-1.3
		c-0.1-0.4-0.2-0.8-0.2-1.2C293.7,73.8,293.5,73.1,293.3,72.2z"/>
</g>
<g>
	<path class="st3" d="M295.4,74.1c0.5,0.4,0.7,0.9,0.8,1.5c0,0.3,0,0.6-0.2,0.8c-0.1,0.3-0.3,0.5-0.6,0.6l-0.1-0.8
		c0-0.2-0.1-0.4-0.1-0.7C295.2,75.2,295.2,74.7,295.4,74.1z"/>
</g>
<g>
	<path class="st3" d="M296.3,74.4c0.5,0.3,0.7,0.8,0.8,1.3c0,0.3,0,0.5-0.1,0.8s-0.3,0.5-0.6,0.6l-0.2-0.7c-0.1-0.2-0.1-0.4-0.1-0.6
		C296.1,75.4,296.1,75,296.3,74.4z"/>
</g>
<g>
	<path class="st3" d="M297.3,71.3c0.4,0.3,0.6,0.8,0.8,1.3c0.2,0.5,0.3,1,0.3,1.5c0,1-0.2,2-0.8,2.8c-0.1-0.5-0.1-1-0.1-1.4
		l-0.1-1.4L297.3,71.3z"/>
</g>
<g>
	<path class="st3" d="M289.3,64.2c1.1,0.3,2.1,0.8,3,1.4s1.8,1.3,2.6,2.1c0.8,0.8,1.4,1.7,1.9,2.8c0.4,1,0.7,2.2,0.6,3.3
		c-0.3-1.1-0.7-2-1.3-2.9c-0.6-0.9-1.2-1.7-1.9-2.4c-0.7-0.8-1.5-1.5-2.3-2.2C291,65.5,290.2,64.9,289.3,64.2z"/>
</g>
<g>
	<path class="st3" d="M290,58.7c-0.7-0.1-1.3-0.1-1.9,0c-0.1,0-0.3,0.1-0.4,0.1c-0.2,0.1-0.4,0.1-0.6,0.1c-0.4,0-0.7-0.1-1.1-0.2
		c-0.3-0.1-0.7-0.2-1-0.4s-0.6-0.3-0.9-0.4c-0.6-0.3-1.2-0.5-1.8-0.7c-0.3-0.1-0.6-0.2-0.9-0.3c-0.1,0-0.3-0.1-0.4-0.1h-0.5
		c-0.7-0.1-1.3-0.2-2-0.3c-1.3-0.2-2.5-0.6-3.8-1c1.3-0.1,2.6,0.1,3.9,0.2c0.6,0,1.3,0.1,1.9,0.2c0.1,0,0.3,0,0.5,0s0.4,0,0.5,0.1
		c0.3,0.1,0.7,0.2,1,0.3c0.6,0.2,1.2,0.5,1.8,0.8c0.3,0.1,0.6,0.3,0.9,0.5s0.5,0.3,0.8,0.4c0.3,0.1,0.6,0.2,0.8,0.2
		c0.1,0,0.3,0,0.4,0c0.2-0.1,0.4-0.1,0.6-0.1C288.7,58.2,289.4,58.4,290,58.7z"/>
</g>
<g>
	<path class="st3" d="M291.3,57.5l-2.6-0.2H288c-0.2,0-0.4,0-0.7-0.1c-0.5-0.2-0.9-0.4-1.3-0.6c-0.8-0.5-1.5-1-2.1-1.7
		c-0.3-0.4-0.5-0.7-0.8-1s-0.7-0.5-1.1-0.7c0.5,0,0.9,0.1,1.4,0.3s0.8,0.6,1.1,0.8c0.7,0.4,1.4,1,2.1,1.4c0.3,0.2,0.7,0.5,1.1,0.6
		c0.1,0.1,0.3,0.1,0.6,0.1c0.2,0,0.4,0.1,0.7,0.1C289.7,56.8,290.6,57.1,291.3,57.5z"/>
</g>
<g>
	<path class="st3" d="M282.3,51.7c0.8-0.1,1.4,0.1,2,0.4c0.6,0.3,1.1,0.7,1.5,1.3c-0.7,0.1-1.4-0.1-2-0.4
		C283.3,52.7,282.7,52.4,282.3,51.7z"/>
</g>
<g>
	<path class="st3" d="M290.6,55.5c-0.6,0-1.3,0-1.9,0h-0.5c-0.2,0-0.4-0.1-0.5-0.2c-0.3-0.1-0.6-0.3-0.9-0.4l-3.3-1.6
		c-1.1-0.5-2.2-1-3.4-1.5c-1.1-0.4-2.3-0.8-3.6-0.8c1.2-0.4,2.6-0.2,3.8,0.1c1.2,0.3,2.4,0.8,3.6,1.3c1.1,0.6,2.2,1.2,3.3,1.8
		l0.8,0.5c0.1,0.1,0.2,0.1,0.3,0.2l0.4,0.1C289.4,55.1,290,55.3,290.6,55.5z"/>
</g>
<g>
	<path class="st3" d="M286.9,53.4c0.1-0.3,0.4-0.4,0.7-0.4c0.3,0,0.5,0,0.7,0.1c0.5,0.2,0.9,0.4,1.1,1c-0.3,0.1-0.5,0.1-0.8,0.1
		c-0.2,0-0.4-0.1-0.6-0.1c-0.2-0.1-0.4-0.1-0.5-0.2C287.3,53.7,287.1,53.5,286.9,53.4z"/>
</g>
<g>
	<path class="st3" d="M279.6,52.6c-2.2,0.4-4.3,0.4-6.5,0.3c-1.1-0.1-2.2-0.2-3.2-0.4c-1.1-0.2-2.2-0.5-3.1-1.1
		c1.1,0.2,2.1,0.2,3.2,0.3l3.2,0.2C275.3,52,277.5,52.2,279.6,52.6z"/>
</g>
<g>
	<path class="st3" d="M260.2,56.4c1.9-0.2,3.7-0.3,5.5-0.5c0.2,0,0.4-0.1,0.6-0.1c0.2-0.1,0.5-0.1,0.8-0.1c0.5,0,1,0,1.5,0.1
		c0.9,0.1,1.9,0.4,2.8,0.6l0.7,0.2l0.3,0.1h0.3l1.4,0.1c0.9,0.1,1.9,0.2,2.8,0.3s1.8,0.3,2.8,0.5c0.9,0.3,1.8,0.5,2.6,1
		c-0.9-0.3-1.8-0.4-2.7-0.5c-0.9-0.1-1.8-0.2-2.8-0.2l-2.8-0.1l-1.4-0.1h-0.4c-0.2,0-0.3,0-0.4-0.1l-0.7-0.2
		c-0.9-0.2-1.8-0.4-2.7-0.6c-0.4-0.1-0.9-0.1-1.3-0.2c-0.2,0-0.4,0-0.6,0c-0.3,0-0.5,0.1-0.7,0.1C263.9,56.8,262,56.7,260.2,56.4z"
		/>
</g>
<g>
	<path class="st3" d="M279.8,59.8c-1.5,0.3-2.9,0.3-4.4,0.2c-0.7-0.1-1.5-0.2-2.2-0.4s-1.4-0.4-2.1-0.8c0.8,0,1.5,0,2.2,0
		s1.4,0.1,2.2,0.1C276.9,59.1,278.3,59.3,279.8,59.8z"/>
</g>
<g>
	<path class="st3" d="M269.9,64.2c0.5-0.1,1.1-0.3,1.6-0.5c0.2-0.1,0.5-0.2,0.7-0.3s0.5-0.3,0.6-0.4l0.2-0.2l0.3,0.1
		c0.9,0.4,1.8,0.9,2.7,1.3c0.9,0.5,1.7,1,2.7,1.4c-0.5,0-1.1-0.1-1.6-0.2s-1-0.3-1.5-0.5c-1-0.4-1.9-0.8-2.8-1.3h0.5
		c-0.3,0.2-0.6,0.3-0.9,0.4s-0.6,0.1-0.9,0.2C271,64.4,270.5,64.3,269.9,64.2z"/>
</g>
<g>
	<path class="st3" d="M278.6,64c-1.1,0.1-2.2,0.1-3.3-0.2c-1.1-0.2-2.2-0.6-3.1-1.4l0.7-0.1c-0.3,0.4-0.7,0.6-1,0.8
		c-0.4,0.2-0.7,0.2-1.1,0.3c-0.7,0.1-1.5,0.1-2.2-0.1c0.7-0.2,1.4-0.4,2-0.6c0.6-0.2,1.3-0.5,1.5-0.9l0.3-0.5l0.4,0.4
		c0.3,0.3,0.8,0.5,1.2,0.7c0.5,0.2,0.9,0.4,1.4,0.6C276.5,63.3,277.5,63.6,278.6,64z"/>
</g>
<g>
	<path class="st3" d="M271.9,61.1c0,0.3-0.2,0.6-0.5,0.7c-0.2,0.2-0.5,0.2-0.7,0.2c-0.5,0-1-0.1-1.4-0.5c0.5-0.4,0.9-0.4,1.3-0.5
		c0.2,0,0.4,0,0.6,0C271.4,61.1,271.6,61.1,271.9,61.1z"/>
</g>
<g>
	<path class="st3" d="M259.5,61.4c0.7,0,1.4,0,2.1,0s1.4,0.1,2.1,0.1h0.1l0,0c0.5,0.2,1,0.4,1.5,0.6c0.5,0.2,1,0.5,1.5,0.8
		c-0.6,0-1.1,0-1.7-0.1c-0.5-0.1-1.1-0.2-1.6-0.3h0.1c-0.7,0-1.4-0.1-2.1-0.3S260.1,61.8,259.5,61.4z"/>
</g>
<g>
	<path class="st3" d="M249.4,65c-0.7,0.5-1.1,1.3-1.5,2s-0.7,1.5-1,2.3s-0.5,1.6-0.7,2.4s-0.4,1.7-0.6,2.5c-0.3-1.7-0.2-3.6,0.4-5.3
		c0.3-0.8,0.7-1.7,1.2-2.4c0.3-0.4,0.6-0.7,0.9-1C248.5,65.3,249,65,249.4,65z"/>
</g>
<g>
	<path class="st3" d="M249.2,64c-0.4,0.3-0.7,0.6-1,1s-0.6,0.8-0.8,1.2c-0.5,0.8-0.9,1.7-1.3,2.5c-0.4,0.9-0.7,1.8-1,2.7
		c-0.3,0.9-0.5,1.9-0.7,2.8c-0.3-2,0-4.1,0.8-5.9c0.4-0.9,1-1.8,1.6-2.6c0.3-0.4,0.7-0.7,1.1-1.1C248.3,64.4,248.7,64.1,249.2,64z"
		/>
</g>
<g>
	<path class="st3" d="M248.8,62.8c-0.5,0.3-0.7,0.8-1,1.2s-0.6,0.9-0.8,1.4c-0.5,0.9-1,1.9-1.4,2.9s-0.8,2-1.1,3s-0.6,2.1-0.8,3.1
		c-0.2-1.1-0.1-2.2,0.1-3.3c0.2-1.1,0.5-2.2,1-3.2c0.4-1,1-2,1.6-2.9c0.3-0.5,0.7-0.9,1.1-1.3C247.7,63.3,248.2,62.9,248.8,62.8z"/>
</g>
<g>
	<path class="st3" d="M248.2,61.8c-0.5,0.3-0.8,0.8-1.1,1.3s-0.6,1-0.9,1.5c-0.5,1-1,2-1.5,3c-0.9,2.1-1.6,4.2-2.1,6.4
		c-0.2-1.2-0.1-2.3,0.1-3.5c0.2-1.2,0.6-2.3,1-3.3c0.5-1.1,1-2.1,1.7-3c0.3-0.5,0.7-0.9,1.1-1.3C247.2,62.3,247.6,61.9,248.2,61.8z"
		/>
</g>
<g>
	<path class="st3" d="M248,60.9c-0.9,1.3-1.8,2.5-2.6,3.7c-0.4,0.6-0.8,1.2-1.2,1.9c-0.4,0.6-0.7,1.3-1.1,2c0-1.6,0.7-3.1,1.5-4.4
		c0.5-0.6,1-1.2,1.5-1.8C246.7,61.7,247.3,61.2,248,60.9z"/>
</g>
<g>
	<path class="st3" d="M247.8,59.8c-0.4,0.9-1,1.5-1.6,2.2c-0.3,0.3-0.6,0.6-1,0.9c-0.3,0.3-0.7,0.5-1.1,0.8c0.1-0.5,0.3-0.9,0.5-1.3
		c0.2-0.4,0.6-0.7,0.9-1.1C246.2,60.7,246.9,60.1,247.8,59.8z"/>
</g>
<g>
	<path class="st3" d="M247.9,58.2c-0.5,1-1.2,1.7-1.9,2.4c-0.4,0.4-0.7,0.7-1,1.1c-0.4,0.4-0.7,0.7-1.2,1.1c0.1-0.5,0.3-1,0.6-1.5
		c0.2-0.5,0.6-0.9,0.9-1.3C246,59.1,246.9,58.5,247.9,58.2z"/>
</g>
<g>
	<path class="st3" d="M247.7,57.4c-0.3,0.7-0.7,1.2-1.2,1.6c-0.2,0.2-0.5,0.4-0.8,0.6c-0.3,0.2-0.6,0.3-0.9,0.5c0-0.4,0.2-0.7,0.4-1
		s0.4-0.5,0.7-0.7C246.4,57.8,246.9,57.5,247.7,57.4z"/>
</g>
<path class="st2" d="M299.9,101c-0.1,0.5-0.4,1.1-0.7,1.7c0,0.1-0.1,0.1-0.1,0.2c-0.3,0.5-0.7,1-1,1.5l-0.1,0.1
	c-0.1,0.1-0.1,0.1-0.1,0.2c-0.3,0.3-1.7,3.4-2.1,4.3c0,0.1-0.1,0.2-0.1,0.2s0,0,0,0.1l0,0c-0.6,1.3-1.1,2-1.8,3.2l0,0
	c-0.1,0.2-0.2,0.3-0.2,0.4s-0.1,0.2-0.2,0.2l0,0c-0.3,0.5-0.7,0.8-1,1.1l0,0c0,0,0,0-0.1,0c-0.7,0.5-1.4,0.3-1.8,0.1l0,0
	c-0.1,0-0.1,0-0.2,0s-0.2-0.1-0.2-0.1l0,0c0,0,0,0.1-0.1,0.2c-0.4,0.9-1.9,4.9-2.8,7l0,0v0.1l0,0l0,0c-0.1,0.2-0.2,0.4-0.3,0.6
	c-0.6,1.3-1.7,2.7-3.5,4.9l-0.1,0.1c-1,1.2-2.2,2.5-3.6,4.1c-0.1,0.1-0.1,0.1-0.2,0.2c-0.1,0.2-0.3,0.4-0.4,0.6
	c0,0.1-0.1,0.1-0.1,0.2c-1.4,2-2.7,2.9-3.9,3.5c-1.1,0.6-2.3,1-3.5,1.1l0,0c-0.9,0.4-2.3,0.3-3.8,0.1s-2.9-0.5-4.1-0.9l0,0
	c-0.3-0.1-0.5-0.2-0.5-0.2s-0.1,0-0.2-0.1c-1.2-0.4-2.2-0.9-2.8-1.3c-0.4-0.2-0.8-0.4-1.2-0.8c-0.2-0.1-0.4-0.2-0.4-0.3
	c-0.5-0.4-2.9-2.5-4.1-3.6l0,0c-0.2-0.2-0.3-0.3-0.5-0.5c0,0,0,0-0.1-0.1c-0.4-0.4-0.8-0.8-1.2-1.3l0,0c-0.5-0.6-1.1-1.3-1.6-2.2
	l0,0c-0.2-0.3-0.4-0.6-0.6-1l0,0c-0.4-0.9-1-1.9-1.4-2.7c-0.2-0.3-0.3-0.6-0.5-0.8c-0.4-0.6-0.8-2-1.2-3.5c-0.1-0.5-0.2-0.9-0.3-1.4
	c0-0.1,0-0.1,0-0.2v-0.1c-0.1-0.7-0.3-1.3-0.4-1.9l0,0c-0.2-0.9-0.3-1.6-0.3-1.7l0,0c-0.9,0-2.3-1.2-2.7-1.6s-0.8-1.8-1.3-2.6
	c-0.2-0.3-0.5-1.4-0.9-2.5c-0.4-1.5-0.9-3.1-1-3.7c0-0.2-0.1-0.3-0.1-0.3s-1.3-2.9-1.7-4.5c-0.1-0.4-0.2-0.8-0.1-1.3
	c0-1.4,0.6-2.9,0.9-3.6c0.4-1,1.5-1.3,1.9-1.4s1.3,0.6,1.6,0.8c0.3,0.3,0.7,0.7,0.7,0.7l0.3-0.5l0.2-0.2v-0.3v-1.2l0.1-2.2l0.1-4
	l0.1-4.6l0.1-0.4l3.5-15.8l2-0.3l8.6-1.2L270,60c14.1-2.6,20.7,2.1,23.6,8.2l0,0c0.3,0.7,0.6,1.3,0.8,2c0.9,2.7,1.3,5.5,1.4,8
	c0,0.2,0,0.5,0,0.7c0.1,3.5-0.3,6.2-0.2,6.5c0.1,0.4,0.1,1.3,0.2,2.4c0,0.2,0,0.4,0,0.6c0,0.1,0,0.1,0,0.2v0.1c0,0.2,0,0.3,0,0.5
	c0,0.5,0,0.9,0,1.3s0,0.7,0,1l0,0c0,0.2,0,0.4,0,0.5c0,0.3,0,0.5,0.1,0.5c0.2,0.1,0.3,1,0.4,1.2c0,0.1-0.1,0.4-0.3,0.8
	c0,0.1-0.1,0.1-0.1,0.2c-0.2,0.4-0.4,0.8-0.4,0.8s0.2,0.1,0.4,0c0,0,0.1,0,0.1-0.1c0.1-0.1,0.2-0.2,0.3-0.4l0,0
	c0.1-0.1,0.2-0.2,0.3-0.2l0,0c0.5-0.3,1.2-0.6,2.3-0.5c0.2,0,0.4,0.1,0.6,0.1c1.1,0.4,1,1.1,1.2,1.6c0,0.1,0.1,0.1,0.1,0.1
	c0.1,0.7,0.1,1.6,0,2.5l0,0C300.3,99.6,300.1,100.3,299.9,101z"/>
<g>
	<path class="st4" d="M263.6,84.4l-1.7,0.7c0,0-6.6-2.5-12.1,1.3c-1.9,0.7,0.5-2.5,0.5-2.5l1.1-1.2c0.5-0.5,1.1-0.9,1.1-0.9
		L263.6,84.4z"/>
	<path class="st4" d="M252.6,81.8c0,0,3.7-1.8,10.7,1.4c0.8,0.6,0.4,1.2,0.4,1.2L252.6,81.8z"/>
</g>
<path class="st4" d="M246.1,83.5c0,0,0-0.1,0-0.3c-0.4,0.2-0.8,0.3-1.2,0.4C245.6,83.6,246.1,83.5,246.1,83.5z"/>
<path class="st5" d="M295.7,88.9l0.1-0.4c0,0,1.2-5.4,1.4-6.1s2.3-7.9,2.3-9.9s-1.2-5.3-1.2-5.3s1.3-1.9-0.5-5.6
	c-1.8-3.7-3-5-3.3-5.6c-0.3-0.7-5.2-6-8.8-4.8c0,0-1.5-1.7-3.3-1.7c-2.6-1.7-6.1-3.5-8.1-3.3c-1.7-0.9-3.9-1.4-5.3-1.3
	c-1.4,0-2.7,1.4-4.2,1.7c-1.6,0.3-2.6-0.2-3.7-0.1c-1.9-0.4-8.2,5.1-12.4,8.3c-0.7,1.4-1.6,2.5-1.9,2.7c-0.3,0.2-2.1,1.9-2.6,2.8
	c-0.6,0.9-1.2,2.4-0.8,4.1c0,1.4-0.4,1.4-0.9,3c-0.3,1.9-0.7,5.6,0.4,16.3c0,0.2,0,0.3,0,0.4l0,0c0.5-0.2,1.3-0.4,2-0.5
	c0.4-0.1,0.8-0.3,1.2-0.4c0-0.4,0.1-1.5,0.2-4c-0.1-8-0.1-12.2,4.7-12.3c7.4,7.5,13.4,5,14,5.2c3.1-0.6,5.7-1,3.7-2.7
	c3.6,1.9,6,0.2,7.7-1.4c4,1.3,5.9,0.6,7.2-0.3c12.3-0.1,9.3,13.2,9.3,13.8c0,0.1,0,0.6,0,1.3c0.1,1.8,0.4,4.8,0.4,4.8l0,0
	C294,88,294.8,88.5,295.7,88.9z"/>
<path class="st4" d="M242.9,84.2l-1.6,0.1v0.3c0.6-0.2,1.2-0.3,1.8-0.5L242.9,84.2z"/>
<path class="st6" d="M242.9,84.2L242.9,84.2L242.9,84.2L242.9,84.2z"/>
<path class="st7" d="M290.2,114.2c0,0,1.8-7.6,2.3-8.9c0.4-1.2,0.6-3.9,0.7-6.3s0.3-4.4,1.1-4.2l0.5,0.1"/>
<path class="st4" d="M275.8,88.9c0,0,0-1,0.4-1.5s7.2-4.9,9.7-3.9s4.4,2.3,4.4,2.5s-1.8-0.2-3.9-0.2c-2.1,0.2-7.3,2-7.3,2
	L275.8,88.9z"/>
<path class="st6" d="M242.5,84.8"/>
<path class="st7" d="M282.2,95.4"/>
<path class="st7" d="M245.8,111.6c0,0-1.2-8.7-1.4-9.7c-0.3-1.1-1.5-3.8-0.2-6.5"/>
<path class="st8" d="M295.7,87.9l-1.8-0.6c0,0-0.1-1-0.2-2.2c-0.5-1.2-0.2-3.3-0.1-3.5s0.3-2.6,0.3-4c0-0.6,0-1,0-1.1
	c-0.1-0.4-1.2-6.1-2.3-7.4c-1.1-1.2-6.5-3.2-8.4-2.2s-6,0.3-6.8-0.3c-0.4,0.4-3.8,2.7-5.4,2.7s-4.6-0.9-4.6-0.9s0.7,2.4-1.9,2.5
	c-4.7,0.3-6.4-1.3-10.8-3.9c-4.4-2.6-6.4-8.3-3.4-12.1c1.2-1.5,9.8-7.3,9.8-7.3s6-1,8.3-1.8s6.1,1.5,6.9,1.1
	c0.8-0.3,6.1,3.3,7.3,3.2c1.2-0.1,3.4,1.6,3.8,1.7c0.5,0.1,1,0.1,1.8-0.1c0.8-0.2,5.5,4.7,6.6,5.7c1,1,2.3,4.2,2.7,6.4
	c0.4,2.2,0.2,3.6,0.3,3.9c0.1,0.3,1,3.5,1.2,4.6c0.2,1-0.4,4-0.7,4.9c0,0.1-0.1,0.2-0.1,0.2C297.8,78,295.7,87.9,295.7,87.9z"/>
<linearGradient id="SVGID_1_" gradientUnits="userSpaceOnUse" x1="244.2217" y1="922.038" x2="237.5437" y2="934.6821" gradientTransform="matrix(0.8216 0.5701 0.5701 -0.8216 -431.8435 706.6148)">
	<stop  offset="0" style="stop-color:#60534F"/>
	<stop  offset="0.3492" style="stop-color:#4A403D"/>
	<stop  offset="0.7128" style="stop-color:#3A3330"/>
	<stop  offset="1" style="stop-color:#352E2C"/>
</linearGradient>
<path class="st9" d="M295.6,88.7l-2-0.6c0,0,0.1-1.6-0.1-2.9c-0.3-2.5-0.3-2.5-0.1-3.5c0-0.2,0.3-2.6,0.3-4l0,0l2.1,0.6
	c0.3,0.1,0.5,0.1,0.6,0.1c1.1,0.2,1.3,0,1.3,0.1C297.6,79.1,295.6,88.7,295.6,88.7z"/>
<linearGradient id="SVGID_2_" gradientUnits="userSpaceOnUse" x1="199.7652" y1="897.628" x2="192.7852" y2="908.5059" gradientTransform="matrix(0.8216 0.5701 0.5701 -0.8216 -431.8435 706.6148)">
	<stop  offset="0" style="stop-color:#60534F"/>
	<stop  offset="0.3492" style="stop-color:#4A403D"/>
	<stop  offset="0.7128" style="stop-color:#3A3330"/>
	<stop  offset="1" style="stop-color:#352E2C"/>
</linearGradient>
<path class="st10" d="M245.9,74.9c0,0-1.4,0.4-2,0.4c-0.7,0-1.5-0.1-1.5-0.1l0.8,8.9l2.7-0.4V74.9z"/>
<path class="st4" d="M241.3,84.3l-0.1,3.1l1.5,0.5c0,0,0.3,2.7,0.7,3.3c0.1-0.4,2.8-7.7,2.8-7.7s-2.3,0.4-3.2,0.6c-0.7,0.1,0,0,0,0"
	/>
<g>
	<path class="st4" d="M244.5,88l0.5-1.4C244.8,87,244.6,87.5,244.5,88z"/>
	<path class="st4" d="M295.5,91.6L295.5,91.6l0.2-0.9l0.1-0.8l0.1-0.8c0-0.1,0-0.2,0-0.2l-0.1-0.1l0,0l-0.1-0.1l0,0
		c-0.1,0-0.1-0.1-0.2-0.1h-0.1c-0.2,0-0.4-0.1-0.8-0.1c-0.1,0-0.2,0-0.3,0c-0.2,0-0.4-0.1-0.7-0.1l0,0l0,0l-0.4-0.1l0,0
		c-1.5-0.3-3.8-0.7-6.9-1.3c-0.1,0-0.2,0-0.4-0.1c-4.7-1-9.2-0.6-12,0c-1.1,0.2-1.9,0.5-2.4,0.7c-0.1,0-0.2,0.1-0.3,0.1
		c-1.4,0.5-3.3,0.5-5.4-0.3c-0.1,0-0.2-0.1-0.3-0.1c-3-2.1-9.2-2.9-13.8-3.3c-0.2,0-0.3,0-0.5,0c-2-0.1-3.6-0.2-4.5-0.2l0,0
		c-0.5,0-0.7,0-0.7,0l-0.1,0.4l-0.2,0.6l-0.7,2.1c0.3-0.5,0.6-0.8,1-1c0,0,1.3-0.6,3.8-0.7c0.2,0,0.4,0,0.6,0l0,0h0.1
		c1.2,0,2.7,0.1,4.4,0.4c1,0.2,1.9,0.4,2.7,0.6l0,0c0.8,0.2,1.6,0.4,2.3,0.6l0,0c1.4,0.4,2.5,0.8,3.3,1.4c0.1,0.1,0.2,0.1,0.3,0.2
		l0,0c0.5,0.4,0.8,0.8,1.1,1.2c0.7,1.6,0.7,3.7-0.9,6.5c-0.4,0.6-0.8,1.3-1.3,2c-2.9,3.8-11.5,2.2-14.4,0.9c-2.5-0.7-4.3-7-3.5-10.6
		l-0.8,2.1l-0.2,0.5l-0.2,0.6c0.1,0.2,0.1,0.4,0.2,0.6c0.3,1.2,0.4,2.5,0.7,3.6v0.1l0,0c0.1,0.5,0.3,1,0.6,1.5l0,0
		c0.1,0.1,0.1,0.2,0.2,0.3l0,0c1.1,1.6,3.4,2.9,8.6,3.6c5.4,0.7,8.3-1,9.9-3.2c1.5-1.9,2.1-4.2,2.5-5.2c0.1-0.2,0.1-0.3,0.2-0.4
		c0.6-1.2,2.6-1.2,3.7-0.6c0.3,0.2,0.5,0.4,0.6,0.7c0.2,1.1,0.5,2.1,0.8,3c0.5,1.7,1.1,3,1.9,4.1c1.1,1.5,2.6,2.3,4.7,2.9
		c1.5,0.4,3.2,0.6,5.4,0.8c0.6,0.1,1.1,0.1,1.6,0.1c5.4-0.1,6.8-3.5,7.7-6.4c0.2-0.8,0.4-1.5,0.6-2.1c0-0.2,0.1-0.3,0.1-0.5
		c0.3-1,0.6-1.5,0.9-1.8l0,0c0.3-0.3,0.7-0.2,0.9-0.2c0,0,0,0,0.1,0l0,0c0.1,0,0.1,0.1,0.1,0.1L295.5,91.6z M289.8,100.4
		c-0.5,0.6-1.2,1-2,1.2c-2.2,0.4-6.1,0.9-10.9-1.1c-0.7-0.3-2.4-1.3-2.9-2c-0.1-0.2-0.2-0.3-0.3-0.5c-1-1.6-1.4-3.2-1.5-4.6
		c-0.1-2.4,0.8-4.3,2-5c0.1-0.1,0.3-0.2,0.4-0.2c0.4-0.2,0.8-0.3,1.3-0.4l0,0c0.7-0.2,1.6-0.2,2.7-0.3c2.1-0.1,4.9,0.1,8.3,0.3
		c0.1,0,0.2,0,0.4,0c0,0,0,0,0.1,0c0,0,0.1,0,0.2,0c6.4,0.7,5,5.7,4.7,6.4c0,0.1,0,0.1-0.1,0.2C292,95.9,291.4,98.5,289.8,100.4z"/>
</g>
<polygon class="st4" points="293.2,87.6 293.2,88.2 293.6,88.1 293.6,87.8 "/>
<path class="st4" d="M295.5,90.2l0.2,1c0,0-0.2,0.2-0.2,0.3s-0.2,0.1-0.3,0S295.5,90.2,295.5,90.2z"/>
<polygon class="st4" points="294.8,94.9 294.7,95.1 295,95.4 "/>
<polyline class="st11" points="294.3,92.4 295.3,94 295.7,93 294.8,91.7 294.2,92.6 "/>
<g id="BACKGROUND">
</g>
<g>
	<polygon class="st12" points="311.9,270.1 337.1,398.9 288.3,398.9 269.5,313.8 265.2,313.5 265.2,398.9 216.5,398.9 219,270.1 	
		"/>
	<line class="st7" x1="257" y1="312.9" x2="284.8" y2="312.9"/>
</g>
<g>
	<g>
		<g>
			<path class="st2" d="M334.3,179.7l45.9-11.7c9.2-2.6,14.6-12,12.2-21.2l0,0c-2.5-9.5-12.2-15.1-21.7-12.4l-46,13.1L334.3,179.7z"
				/>
			<polygon class="st13" points="339.4,139.1 294.5,145 307.4,190.8 350.2,181.8 			"/>
		</g>
		<g>
			<g>
				<path class="st2" d="M360.8,82c1.1-7.2-1.6-16.4-1.6-16.4l1-16.2c0.2-1.5-0.8-3-2.3-3.3l0,0c-1.6-0.4-3.2,0.6-3.7,2.2l-1.3,10.4
					h-1.4l-1.9-16.8c-0.1-2-2-3.5-4-3.1l0,0c-1.7,0.3-2.9,1.8-2.8,3.5l1.3,18.1l-1.5,0.3l-5.1-18.1c-0.6-2.1-2.7-3.3-4.8-2.7l0,0
					c-1.9,0.6-3,2.6-2.6,4.5l5.3,20.7l-1.9,0.5l-7-14.5c-0.8-1.7-2.9-2.3-4.5-1.3l0,0c-1.3,0.8-1.8,2.3-1.3,3.8l7.1,19.4l-5.9-0.1
					c-2.7,0-4.9,2.4-4.6,5.1l0,0c0.2,1.9,1.6,3.5,3.4,4l7.7,1.9c0,0,5.2,7.2,13.8,10.3C342.2,94.2,359.9,87.5,360.8,82z"/>
				<path class="st14" d="M327.6,73c0,0,11.2-0.7,17.8,5.6"/>
			</g>
			<g>
				<polygon class="st2" points="391.8,144.9 360.8,82 341.2,90.3 361,159.4 				"/>
				<line class="st14" x1="355.1" y1="138.8" x2="358.1" y2="149.5"/>
			</g>
		</g>
	</g>
	<g>
		<polygon class="st13" points="254.4,142.5 217.7,150.1 219,270.1 311.9,270.1 314.8,146.8 279.8,143.8 		"/>
		<line class="st15" x1="313.8" y1="189.5" x2="313.8" y2="174"/>
		<path class="st16" d="M242.6,201.1L242.6,201.1c-6.3,0-11.4-5.1-11.4-11.4v-11.4H254v11.4C253.9,196,248.9,201.1,242.6,201.1z"/>
	</g>
	<g>
		<g>
			<path class="st2" d="M191.1,180.6l-26.5,48c-4.6,8.4-1.7,19,6.6,23.8l0,0c8.2,4.7,18.7,2.1,23.7-5.9l27.5-43.9L191.1,180.6z"/>
			<g>
				<path class="st13" d="M182.8,187.3l38,24.4l6.1-29.1c6.4-10.4,14.6-22.9,4.3-29.5l0,0c-10.4-6.7-24.3-3.6-30.9,6.8L182.8,187.3z
					"/>
				<line class="st15" x1="218.4" y1="210" x2="218.4" y2="177.4"/>
			</g>
		</g>
		<g>
			<g>
				<polygon class="st2" points="177.6,254.5 247.1,252.6 251.9,230.1 173.3,220.2 				"/>
				<line class="st14" x1="208.6" y1="224.6" x2="190.4" y2="222.4"/>
			</g>
			<g>
				<path class="st2" d="M247.3,231c0,0,8.9-12,19.4,0l-4.2,8.3L247.3,231z"/>
				<path class="st17" d="M257.8,218.3l-2.7,16.8l21.2,2.4l3.4-16.2c0.4-1.7-0.8-3.4-2.6-3.6l-15.9-1.9
					C259.5,215.6,258,216.7,257.8,218.3z"/>
				<path class="st2" d="M251.8,229.6l25.1,0.6c2.9,0.1,5.2,2.5,5.2,5.4l0,0c0,2.1-1.2,3.9-3,4.8l-1.3,0.6c0,0,2.6,19-12.5,21.3
					s-23.5-9.7-23.5-9.7L251.8,229.6z"/>
			</g>
		</g>
	</g>
</g>
<g>
	<polygon class="st2" points="252.8,142.8 267.3,161.5 281.2,143.8 	"/>
	<polygon class="st16" points="252.8,140.2 244.2,144.6 253.9,164 263.5,156.7 	"/>
	<polygon class="st16" points="281.3,140.2 291,144.7 280.8,164 271.2,156.5 	"/>
</g>
<rect x="-137.8" y="-109.5" class="st18" width="34.5" height="34.5"/>
<rect x="-86.9" y="-109.5" class="st19" width="34.5" height="34.5"/>
<rect x="-36.1" y="-109.5" class="st20" width="34.5" height="34.5"/>
<rect x="14.8" y="-109.5" class="st1" width="34.5" height="34.5"/>
<rect x="65.6" y="-109.5" class="st21" width="34.5" height="34.5"/>
<rect x="116.5" y="-109.5" class="st12" width="34.5" height="34.5"/>
<rect x="167.3" y="-109.5" class="st22" width="34.5" height="34.5"/>
<rect x="218.2" y="-109.5" class="st23" width="34.5" height="34.5"/>
<rect x="269.1" y="-109.5" class="st23" width="34.5" height="34.5"/>
<rect x="319.9" y="-109.5" class="st23" width="34.5" height="34.5"/>
<g>
	
		<linearGradient id="SVGID_3_" gradientUnits="userSpaceOnUse" x1="385.9287" y1="-728.9" x2="441.4121" y2="-728.9" gradientTransform="matrix(1 0 0 -1 0 -623)">
		<stop  offset="0" style="stop-color:#49ACCC"/>
		<stop  offset="1" style="stop-color:#6066D5"/>
	</linearGradient>
	<path class="st24" d="M413.7,133.6L386,105.9l27.7-27.7l27.7,27.7L413.7,133.6z M400.1,105.9l13.6,13.6l13.6-13.6l-13.6-13.6
		L400.1,105.9z"/>
</g>
<linearGradient id="SVGID_4_" gradientUnits="userSpaceOnUse" x1="14.8" y1="-885.6" x2="99.2" y2="-885.6" gradientTransform="matrix(1 0 0 -1 0 -623)">
	<stop  offset="0" style="stop-color:#49ACCC"/>
	<stop  offset="1" style="stop-color:#4888BC"/>
</linearGradient>
<polygon class="st25" points="58.4,299.2 14.8,299.2 55.6,226 99.2,226 "/>
<linearGradient id="SVGID_5_" gradientUnits="userSpaceOnUse" x1="409.6949" y1="-869.0745" x2="483.2" y2="-869.0745" gradientTransform="matrix(1 0 0 -1 0 -623)">
	<stop  offset="0" style="stop-color:#B64ADB"/>
	<stop  offset="0.5444" style="stop-color:#6C26A7"/>
</linearGradient>
<path class="st26" d="M416.8,214.5l66.4,45.7c-12.6,18.3-37.7,23-56.1,10.3C408.8,258,404.2,232.9,416.8,214.5z"/>
<path class="st1" d="M366.5,363.7l34.7-28.2c7.8,9.6,6.3,23.7-3.3,31.5C388.4,374.8,374.3,373.3,366.5,363.7z"/>
<g>
	
		<linearGradient id="SVGID_6_" gradientUnits="userSpaceOnUse" x1="129.4484" y1="-644.55" x2="172.5529" y2="-644.55" gradientTransform="matrix(1 0 0 -1 0 -623)">
		<stop  offset="0" style="stop-color:#49ACCC"/>
		<stop  offset="1" style="stop-color:#6066D5"/>
	</linearGradient>
	<path class="st27" d="M151,43.1c-11.9,0-21.6-9.7-21.6-21.6S139.1,0,151,0s21.6,9.7,21.6,21.6S162.9,43.1,151,43.1z M151,7.6
		c-7.7,0-14,6.3-14,14s6.3,14,14,14s14-6.3,14-14S158.7,7.6,151,7.6z"/>
</g>
<g>
	
		<linearGradient id="SVGID_7_" gradientUnits="userSpaceOnUse" x1="56.7" y1="-796.85" x2="155.6" y2="-796.85" gradientTransform="matrix(1 0 0 -1 0 -623)">
		<stop  offset="0" style="stop-color:#49ACCC"/>
		<stop  offset="1" style="stop-color:#6066D5"/>
	</linearGradient>
	<polygon class="st28" points="84.9,186.1 71.9,173.2 61.6,183.5 56.7,178.6 71.9,163.3 84.9,176.2 97.9,163.2 110.5,175.8 
		124.7,161.6 139,176 150.6,164.4 155.6,169.4 139,185.9 124.7,171.5 110.5,185.7 97.9,173.1 	"/>
</g>
<g>
	
		<linearGradient id="SVGID_8_" gradientUnits="userSpaceOnUse" x1="42" y1="-991.2" x2="100.2" y2="-991.2" gradientTransform="matrix(1 0 0 -1 0 -623)">
		<stop  offset="0" style="stop-color:#49ACCC"/>
		<stop  offset="1" style="stop-color:#4888BC"/>
	</linearGradient>
	<polygon class="st29" points="58.6,375.4 51,367.8 44.9,373.9 42,370.9 51,361.9 58.6,369.5 66.3,361.9 73.7,369.3 82,361 
		90.5,369.4 97.3,362.6 100.2,365.5 90.5,375.3 82,366.8 73.7,375.1 66.3,367.7 	"/>
</g>
<g>
	<path class="st30" d="M280.7,115.1h-24.1c0,0,0.7,6.3,11.5,6.3C277.8,121.5,280.7,115.1,280.7,115.1z"/>
</g>
<g id="DESIGNED_BY_FREEPIK">
</g>
<circle class="st31" cx="256.9" cy="92" r="2.9"/>
<circle class="st31" cx="280.2" cy="93.5" r="2.9"/>
<path class="st32" d="M244.5,103.9c-2-0.6-3.9-6.2-2.9-7.6"/>
<path class="st32" d="M292.8,107.1c2-0.6,3.9-6.2,2.9-7.6"/>
<polyline class="st6" points="266.2,103.3 266.2,108.4 270.8,108.4 "/>
</svg>
